<svg width="56" height="40" viewBox="0 0 56 40" fill="none" xmlns="http://www.w3.org/2000/svg">
<path d="M16.346 22.8798C16.5513 22.4223 16.7566 21.9648 16.9619 21.5074C18.088 18.956 19.2199 16.4106 20.346 13.8593C21.6481 10.9209 22.9443 7.97657 24.2463 5.03815C24.4868 4.4927 24.739 3.95311 24.9736 3.40766C25.0322 3.26689 25.1143 3.21411 25.261 3.21411C26.1583 3.21411 27.0616 3.21997 27.9589 3.21411C28.1349 3.21411 28.1994 3.31382 28.258 3.44285C29.0146 5.10267 29.7654 6.7625 30.5278 8.42232C31.4663 10.4751 32.4164 12.5279 33.3548 14.5865C34.5572 17.2082 35.7536 19.8358 36.9501 22.4575C36.9501 22.4692 36.956 22.4751 36.9618 22.481C37.0381 22.5631 37.0029 22.7566 37.1554 22.7332C37.2727 22.7156 37.2492 22.5572 37.2786 22.4575C37.824 20.3813 38.3753 18.3109 38.9149 16.2346C39.3724 14.481 39.824 12.7273 40.3577 10.9912C40.827 9.46044 41.2844 7.92965 41.7478 6.39886C42.1407 5.09094 42.5396 3.78889 42.9208 2.47511C42.9795 2.26983 43.0733 2.21704 43.2727 2.21704C46.6158 2.21704 49.9589 2.22291 53.302 2.21704C53.5366 2.21704 53.5953 2.28742 53.5953 2.52203C53.5953 14.217 53.5953 25.9121 53.5953 37.6129C53.5953 37.8417 53.5249 37.8886 53.3138 37.8886C50.9501 37.8827 48.5865 37.8827 46.217 37.8886C45.9765 37.8886 45.9296 37.8065 45.9296 37.5836C45.9355 34.9443 45.9472 32.305 45.9296 29.6716C45.9179 27.6423 45.9707 25.6071 46 23.5777C46.0234 21.9179 46.1055 20.2581 46.1114 18.5983C46.1114 18.4223 46.129 18.2464 46.1407 18.0704C46.1407 18.0176 46.129 17.9648 46.0704 17.959C46.0117 17.959 46 18.0059 45.9824 18.0587C45.4545 19.7009 44.9208 21.3431 44.3929 22.9854C44.0058 24.1701 43.6187 25.3549 43.2316 26.5396C42.8387 27.742 42.4457 28.9502 42.0469 30.1525C41.6774 31.2845 41.3079 32.4106 40.9325 33.5426C40.4985 34.8681 40.0528 36.1877 39.6305 37.5132C39.5425 37.7889 39.4017 37.8769 39.1202 37.871C38.3284 37.8593 37.5366 37.8534 36.7448 37.871C36.4633 37.8769 36.3226 37.783 36.2111 37.5308C35.3372 35.5836 34.4516 33.6423 33.566 31.7009C32.2287 28.7684 30.8856 25.8299 29.5425 22.8974C28.6275 20.8915 27.7185 18.8857 26.8094 16.8798C26.7742 16.8094 26.7566 16.7214 26.6627 16.7156C26.5572 16.7156 26.5689 16.827 26.5396 16.8915C25.2727 19.6657 24.0117 22.4399 22.7448 25.22C21.6539 27.6012 20.563 29.9883 19.4721 32.3695C18.6862 34.088 17.9003 35.8123 17.1261 37.5308C17.0146 37.7713 16.8797 37.8769 16.5924 37.871C15.7595 37.8475 14.9325 37.8593 14.0997 37.871C13.912 37.871 13.824 37.8182 13.7595 37.6364C13.3255 36.305 12.8739 34.9736 12.434 33.6423C11.912 32.0821 11.3959 30.5162 10.8797 28.956C10.2815 27.132 9.68913 25.3079 9.08502 23.4839C8.42227 21.478 7.74778 19.4722 7.08502 17.4663C6.43986 15.5074 5.80056 13.5426 5.14954 11.5777C4.60408 9.92378 4.04103 8.27569 3.48971 6.62173C3.07329 5.3666 2.65687 4.1056 2.24631 2.84461C2.21112 2.73903 2.22871 2.61 2.21698 2.49857C2.19352 2.29915 2.26977 2.21704 2.47505 2.22877C2.88561 2.2405 3.29616 2.22877 3.70672 2.22877C5.74191 2.22877 7.77124 2.22877 9.80643 2.22877C10.041 2.22877 10.1583 2.27569 10.2404 2.53376C10.8446 4.5103 11.4663 6.48097 12.088 8.45164C12.5865 10.0294 13.1026 11.6071 13.5718 13.1965C14 14.6452 14.3753 16.1115 14.7742 17.566C15.0792 18.6745 15.39 19.783 15.7009 20.8915C15.8827 21.5543 16.0645 22.2229 16.2463 22.8857C16.2756 22.8857 16.305 22.8974 16.3343 22.8974L16.346 22.8798Z" fill="#5F6380" fill-opacity="0.7"/>
</svg>
