<svg width="246" height="200" viewBox="0 0 246 200" fill="none" xmlns="http://www.w3.org/2000/svg">
<rect x="0.5" y="0.5" width="245" height="199" rx="15.5" fill="#CECFD2" stroke="#CECFD2"/>
<path d="M51.4962 113.733L47.4482 113.736L47.4543 124.104L46.3343 124.104L46.3282 113.736L42.2802 113.739L42.2797 112.747L51.4957 112.741L51.4962 113.733ZM54.7831 124.26C54.1858 124.26 53.631 124.148 53.1189 123.925C52.6068 123.69 52.1639 123.376 51.7904 122.981C51.4168 122.576 51.1232 122.112 50.9095 121.59C50.7066 121.067 50.6049 120.507 50.6046 119.91C50.6041 119.131 50.7797 118.417 51.1313 117.766C51.4936 117.115 51.9893 116.597 52.6184 116.213C53.2475 115.818 53.9621 115.62 54.7621 115.62C55.5834 115.619 56.2982 115.816 56.9064 116.21C57.5253 116.605 58.011 117.127 58.3633 117.777C58.7157 118.417 58.8921 119.121 58.8926 119.889C58.8926 119.975 58.8927 120.06 58.8927 120.145C58.8928 120.22 58.8875 120.279 58.8768 120.321L51.7408 120.325C51.7945 120.923 51.9601 121.456 52.2377 121.925C52.526 122.384 52.8942 122.751 53.3424 123.028C53.8012 123.295 54.2973 123.428 54.8306 123.428C55.3746 123.427 55.8865 123.288 56.3664 123.011C56.8569 122.733 57.198 122.37 57.3897 121.922L58.3339 122.178C58.1635 122.572 57.9023 122.93 57.5505 123.25C57.1987 123.57 56.7828 123.821 56.3029 124.003C55.8337 124.174 55.3271 124.259 54.7831 124.26ZM51.7084 119.541L57.8684 119.538C57.8253 118.93 57.6597 118.397 57.3714 117.938C57.0938 117.48 56.7256 117.122 56.2668 116.867C55.8187 116.6 55.3226 116.467 54.7786 116.468C54.2346 116.468 53.7387 116.602 53.2908 116.868C52.843 117.125 52.4752 117.488 52.1874 117.957C51.9104 118.416 51.7507 118.944 51.7084 119.541ZM64.1897 124.254C63.5817 124.254 63.0217 124.143 62.5095 123.919C62.0081 123.685 61.5652 123.365 61.181 122.96C60.8074 122.555 60.5138 122.091 60.3002 121.568C60.0972 121.046 59.9955 120.491 59.9952 119.905C59.9947 119.115 60.1703 118.395 60.5219 117.744C60.8736 117.093 61.3639 116.576 61.993 116.191C62.6222 115.807 63.3474 115.615 64.1687 115.614C64.9474 115.614 65.6355 115.795 66.233 116.157C66.8306 116.509 67.2735 116.988 67.5619 117.596L66.5061 117.933C66.2711 117.506 65.9403 117.176 65.5135 116.941C65.0973 116.696 64.6333 116.574 64.1213 116.574C63.5666 116.574 63.06 116.719 62.6015 117.007C62.143 117.295 61.7752 117.69 61.4982 118.192C61.2318 118.693 61.0988 119.264 61.0992 119.904C61.0996 120.533 61.2386 121.104 61.5162 121.616C61.7938 122.128 62.1621 122.538 62.6209 122.847C63.0797 123.145 63.5865 123.294 64.1412 123.294C64.5038 123.294 64.8505 123.23 65.1811 123.102C65.5223 122.973 65.8155 122.803 66.0608 122.589C66.3166 122.365 66.4872 122.125 66.5723 121.869L67.6445 122.188C67.4954 122.583 67.245 122.94 66.8931 123.261C66.552 123.57 66.1468 123.816 65.6776 123.997C65.219 124.168 64.7231 124.254 64.1897 124.254ZM76.3629 124.087L75.2749 124.088L75.2722 119.432C75.2716 118.493 75.1059 117.789 74.775 117.32C74.444 116.84 73.9692 116.6 73.3505 116.601C72.9452 116.601 72.5399 116.708 72.1347 116.922C71.7402 117.124 71.3883 117.407 71.0792 117.77C70.7807 118.122 70.5677 118.528 70.4399 118.987L70.4429 124.091L69.3549 124.091L69.3481 112.411L70.4361 112.411L70.4391 117.643C70.7694 117.024 71.2278 116.533 71.8143 116.17C72.4114 115.796 73.046 115.609 73.718 115.609C74.198 115.608 74.6033 115.693 74.9341 115.864C75.2755 116.034 75.5477 116.285 75.7505 116.615C75.9641 116.935 76.1189 117.314 76.2152 117.751C76.3114 118.178 76.3597 118.663 76.36 119.207L76.3629 124.087ZM85.691 124.082L84.603 124.082L84.6003 119.426C84.5997 118.445 84.4553 117.73 84.1671 117.283C83.8788 116.824 83.4253 116.595 82.8067 116.595C82.38 116.596 81.9587 116.702 81.5428 116.916C81.127 117.119 80.7591 117.402 80.4393 117.765C80.1302 118.117 79.9064 118.522 79.768 118.981L79.771 124.085L78.683 124.086L78.6782 115.75L79.6702 115.749L79.6713 117.637C79.895 117.232 80.1882 116.88 80.5506 116.581C80.9131 116.271 81.3237 116.031 81.7822 115.86C82.2408 115.689 82.7154 115.603 83.2061 115.603C83.6648 115.603 84.0541 115.688 84.3742 115.858C84.6943 116.029 84.9505 116.274 85.1427 116.594C85.3348 116.903 85.4737 117.282 85.5593 117.73C85.6449 118.167 85.6879 118.658 85.6882 119.202L85.691 124.082ZM88.0111 124.08L88.0063 115.744L89.0943 115.744L89.0991 124.08L88.0111 124.08ZM88.0053 114L88.0044 112.4L89.0924 112.4L89.0933 114L88.0053 114ZM95.1116 124.236C94.5036 124.237 93.9435 124.125 93.4314 123.901C92.9299 123.667 92.4871 123.347 92.1028 122.942C91.7293 122.537 91.4357 122.073 91.222 121.55C91.0191 121.028 90.9174 120.473 90.9171 119.887C90.9166 119.097 91.0922 118.377 91.4438 117.726C91.7954 117.075 92.2858 116.558 92.9149 116.173C93.544 115.789 94.2692 115.597 95.0906 115.596C95.8692 115.596 96.5574 115.777 97.1549 116.139C97.7524 116.491 98.1954 116.97 98.4837 117.578L97.4279 117.915C97.193 117.488 96.8622 117.158 96.4354 116.923C96.0192 116.678 95.5551 116.556 95.0431 116.556C94.4885 116.557 93.9819 116.701 93.5234 116.989C93.0649 117.277 92.6971 117.672 92.4201 118.174C92.1537 118.675 92.0207 119.246 92.0211 119.886C92.0214 120.515 92.1604 121.086 92.4381 121.598C92.7157 122.11 93.0839 122.52 93.5428 122.829C94.0016 123.128 94.5084 123.277 95.063 123.276C95.4257 123.276 95.7723 123.212 96.1029 123.084C96.4442 122.955 96.7374 122.785 96.9826 122.571C97.2385 122.347 97.409 122.107 97.4942 121.851L98.5664 122.17C98.4173 122.565 98.1668 122.922 97.815 123.243C97.4739 123.552 97.0687 123.798 96.5994 123.979C96.1409 124.15 95.6449 124.236 95.1116 124.236ZM99.6034 121.674C99.6031 121.151 99.7521 120.703 100.051 120.329C100.349 119.945 100.76 119.652 101.282 119.449C101.815 119.235 102.429 119.128 103.122 119.128C103.527 119.127 103.949 119.159 104.386 119.223C104.823 119.287 105.213 119.382 105.554 119.51L105.554 118.806C105.553 118.102 105.345 117.542 104.929 117.127C104.512 116.711 103.936 116.503 103.2 116.504C102.752 116.504 102.31 116.589 101.873 116.76C101.446 116.921 100.998 117.161 100.529 117.481L100.112 116.713C100.656 116.34 101.189 116.062 101.712 115.88C102.235 115.688 102.768 115.592 103.312 115.591C104.336 115.591 105.147 115.884 105.744 116.47C106.342 117.056 106.641 117.867 106.642 118.902L106.644 122.758C106.644 122.907 106.676 123.019 106.74 123.093C106.804 123.157 106.906 123.195 107.044 123.205L107.045 124.069C106.927 124.08 106.826 124.091 106.741 124.101C106.655 124.112 106.591 124.112 106.549 124.102C106.282 124.091 106.079 124.006 105.941 123.846C105.802 123.686 105.727 123.515 105.716 123.334L105.7 122.726C105.327 123.206 104.842 123.58 104.245 123.847C103.647 124.103 103.04 124.232 102.421 124.232C101.888 124.232 101.402 124.121 100.965 123.897C100.538 123.662 100.202 123.353 99.9561 122.969C99.7212 122.575 99.6036 122.143 99.6034 121.674ZM105.188 122.31C105.305 122.161 105.396 122.017 105.459 121.878C105.523 121.74 105.555 121.617 105.555 121.51L105.555 120.294C105.192 120.156 104.813 120.049 104.418 119.975C104.034 119.9 103.645 119.863 103.25 119.863C102.472 119.864 101.842 120.019 101.363 120.329C100.883 120.638 100.643 121.06 100.643 121.593C100.643 121.902 100.724 122.196 100.884 122.473C101.044 122.739 101.279 122.963 101.588 123.144C101.898 123.315 102.26 123.4 102.676 123.4C103.199 123.4 103.684 123.298 104.132 123.095C104.591 122.892 104.943 122.631 105.188 122.31ZM109.037 112.388L110.125 112.388L110.13 122.18C110.131 122.596 110.205 122.867 110.355 122.995C110.504 123.123 110.686 123.187 110.899 123.187C111.091 123.187 111.283 123.166 111.475 123.123C111.667 123.08 111.832 123.037 111.971 122.994L112.163 123.874C111.961 123.96 111.71 124.029 111.412 124.083C111.124 124.136 110.873 124.163 110.66 124.163C110.169 124.163 109.774 124.02 109.475 123.732C109.187 123.444 109.043 123.049 109.043 122.548L109.037 112.388ZM126.126 112.698L126.133 124.058L125.029 124.059L125.026 118.747L118.29 118.751L118.293 124.063L117.173 124.063L117.166 112.703L118.286 112.703L118.289 117.759L125.025 117.755L125.022 112.699L126.126 112.698ZM128.761 124.057L128.756 115.721L129.844 115.72L129.849 124.056L128.761 124.057ZM128.755 113.977L128.754 112.377L129.842 112.376L129.843 113.976L128.755 113.977ZM135.59 124.165C135.024 124.165 134.501 124.048 134.021 123.814C133.541 123.579 133.125 123.265 132.773 122.87C132.431 122.465 132.164 122.007 131.972 121.495C131.78 120.983 131.683 120.455 131.683 119.911C131.683 119.324 131.773 118.775 131.954 118.263C132.146 117.74 132.412 117.276 132.753 116.87C133.105 116.465 133.516 116.15 133.985 115.926C134.454 115.691 134.977 115.573 135.553 115.573C136.267 115.572 136.886 115.753 137.409 116.116C137.942 116.478 138.391 116.926 138.754 117.459L138.753 115.715L139.729 115.714L139.734 124.082C139.734 124.85 139.548 125.496 139.175 126.019C138.812 126.552 138.317 126.953 137.687 127.22C137.069 127.487 136.392 127.62 135.656 127.621C134.706 127.621 133.938 127.451 133.351 127.11C132.764 126.769 132.284 126.311 131.91 125.735L132.582 125.207C132.913 125.729 133.351 126.118 133.895 126.374C134.45 126.629 135.036 126.757 135.655 126.757C136.199 126.756 136.695 126.655 137.143 126.452C137.601 126.26 137.964 125.966 138.23 125.571C138.507 125.176 138.646 124.68 138.646 124.083L138.645 122.435C138.325 122.958 137.888 123.379 137.333 123.7C136.779 124.009 136.198 124.164 135.59 124.165ZM135.893 123.253C136.224 123.252 136.538 123.194 136.837 123.076C137.146 122.959 137.429 122.804 137.685 122.612C137.941 122.409 138.154 122.185 138.324 121.939C138.495 121.694 138.601 121.443 138.644 121.187L138.642 118.611C138.482 118.206 138.253 117.849 137.954 117.539C137.655 117.22 137.313 116.974 136.929 116.804C136.556 116.623 136.166 116.532 135.761 116.533C135.292 116.533 134.871 116.635 134.497 116.837C134.135 117.03 133.826 117.291 133.57 117.622C133.325 117.942 133.133 118.305 132.994 118.71C132.856 119.116 132.787 119.521 132.787 119.926C132.787 120.374 132.868 120.801 133.028 121.206C133.188 121.601 133.407 121.958 133.684 122.278C133.973 122.587 134.303 122.827 134.677 122.997C135.061 123.168 135.466 123.253 135.893 123.253ZM149.144 124.045L148.056 124.046L148.053 119.39C148.053 118.451 147.887 117.747 147.556 117.278C147.225 116.798 146.75 116.558 146.132 116.559C145.726 116.559 145.321 116.666 144.916 116.879C144.521 117.082 144.17 117.365 143.86 117.728C143.562 118.08 143.349 118.486 143.221 118.944L143.224 124.048L142.136 124.049L142.129 112.369L143.217 112.368L143.22 117.6C143.551 116.981 144.009 116.491 144.596 116.128C145.193 115.754 145.827 115.567 146.499 115.566C146.979 115.566 147.385 115.651 147.715 115.822C148.057 115.992 148.329 116.243 148.532 116.573C148.745 116.893 148.9 117.272 148.996 117.709C149.093 118.136 149.141 118.621 149.141 119.165L149.144 124.045ZM162.401 114.805C162.241 114.624 162.054 114.464 161.841 114.326C161.627 114.176 161.387 114.048 161.121 113.942C160.854 113.835 160.566 113.75 160.256 113.686C159.958 113.623 159.638 113.591 159.296 113.591C158.304 113.592 157.574 113.784 157.105 114.168C156.646 114.542 156.417 115.054 156.418 115.705C156.418 116.153 156.525 116.505 156.738 116.761C156.962 117.016 157.309 117.224 157.779 117.384C158.248 117.544 158.845 117.709 159.571 117.879C160.382 118.049 161.08 118.251 161.667 118.486C162.254 118.72 162.707 119.04 163.028 119.445C163.348 119.839 163.508 120.378 163.509 121.061C163.509 121.583 163.408 122.037 163.205 122.421C163.003 122.805 162.72 123.125 162.358 123.381C161.995 123.637 161.564 123.83 161.062 123.958C160.561 124.076 160.012 124.135 159.414 124.135C158.828 124.135 158.262 124.077 157.718 123.96C157.185 123.832 156.678 123.651 156.198 123.417C155.718 123.172 155.27 122.863 154.853 122.49L155.413 121.577C155.616 121.79 155.856 121.993 156.133 122.185C156.421 122.366 156.736 122.531 157.078 122.68C157.43 122.829 157.803 122.947 158.198 123.032C158.603 123.106 159.019 123.143 159.446 123.143C160.353 123.142 161.056 122.977 161.558 122.646C162.069 122.315 162.325 121.824 162.325 121.173C162.324 120.704 162.196 120.331 161.94 120.053C161.684 119.766 161.3 119.531 160.788 119.35C160.276 119.169 159.646 118.993 158.899 118.823C158.11 118.642 157.443 118.44 156.899 118.216C156.355 117.993 155.944 117.7 155.666 117.337C155.4 116.964 155.266 116.473 155.266 115.865C155.265 115.161 155.436 114.569 155.777 114.089C156.128 113.598 156.608 113.23 157.216 112.984C157.824 112.728 158.522 112.599 159.312 112.599C159.813 112.599 160.277 112.652 160.704 112.758C161.141 112.854 161.541 112.998 161.904 113.19C162.278 113.381 162.624 113.621 162.944 113.909L162.401 114.805ZM168.877 124.193C168.269 124.194 167.709 124.082 167.197 123.858C166.696 123.624 166.253 123.304 165.868 122.899C165.495 122.494 165.201 122.03 164.988 121.508C164.785 120.985 164.683 120.431 164.683 119.844C164.682 119.055 164.858 118.334 165.209 117.684C165.561 117.033 166.051 116.515 166.681 116.131C167.31 115.746 168.035 115.554 168.856 115.553C169.635 115.553 170.323 115.734 170.921 116.096C171.518 116.448 171.961 116.928 172.249 117.536L171.194 117.872C170.959 117.446 170.628 117.115 170.201 116.881C169.785 116.636 169.321 116.513 168.809 116.514C168.254 116.514 167.748 116.658 167.289 116.946C166.831 117.235 166.463 117.63 166.186 118.131C165.919 118.633 165.786 119.203 165.787 119.843C165.787 120.473 165.926 121.043 166.204 121.555C166.481 122.067 166.85 122.477 167.308 122.786C167.767 123.085 168.274 123.234 168.829 123.234C169.191 123.233 169.538 123.169 169.869 123.041C170.21 122.913 170.503 122.742 170.748 122.528C171.004 122.304 171.175 122.064 171.26 121.808L172.332 122.127C172.183 122.522 171.932 122.88 171.581 123.2C171.239 123.509 170.834 123.755 170.365 123.937C169.906 124.108 169.411 124.193 168.877 124.193ZM181.05 124.026L179.962 124.027L179.96 119.371C179.959 118.432 179.793 117.728 179.462 117.259C179.131 116.78 178.657 116.54 178.038 116.54C177.633 116.54 177.227 116.647 176.822 116.861C176.428 117.064 176.076 117.347 175.767 117.709C175.468 118.062 175.255 118.467 175.127 118.926L175.13 124.03L174.042 124.03L174.036 112.35L175.124 112.35L175.127 117.582C175.457 116.963 175.915 116.472 176.502 116.109C177.099 115.735 177.733 115.548 178.405 115.548C178.885 115.548 179.291 115.633 179.622 115.803C179.963 115.974 180.235 116.224 180.438 116.555C180.652 116.875 180.806 117.253 180.903 117.691C180.999 118.117 181.047 118.602 181.048 119.146L181.05 124.026ZM186.923 124.183C186.325 124.183 185.771 124.072 185.258 123.848C184.757 123.614 184.319 123.299 183.946 122.905C183.583 122.5 183.3 122.041 183.097 121.529C182.894 121.007 182.792 120.457 182.792 119.881C182.792 119.284 182.893 118.729 183.095 118.217C183.297 117.694 183.585 117.236 183.958 116.841C184.331 116.435 184.769 116.12 185.27 115.896C185.782 115.661 186.336 115.543 186.934 115.543C187.531 115.543 188.08 115.66 188.582 115.894C189.083 116.118 189.521 116.432 189.894 116.837C190.268 117.232 190.556 117.69 190.759 118.213C190.962 118.725 191.064 119.279 191.064 119.877C191.064 120.453 190.963 121.002 190.761 121.525C190.559 122.037 190.271 122.496 189.898 122.901C189.535 123.296 189.098 123.611 188.586 123.846C188.085 124.07 187.531 124.183 186.923 124.183ZM183.896 119.897C183.896 120.515 184.03 121.081 184.297 121.593C184.575 122.094 184.943 122.494 185.402 122.792C185.861 123.08 186.367 123.223 186.922 123.223C187.477 123.223 187.983 123.073 188.442 122.774C188.9 122.475 189.268 122.07 189.545 121.558C189.822 121.035 189.96 120.469 189.96 119.861C189.96 119.243 189.821 118.677 189.543 118.166C189.265 117.654 188.897 117.249 188.438 116.95C187.98 116.652 187.473 116.503 186.918 116.503C186.363 116.503 185.857 116.658 185.398 116.968C184.951 117.277 184.588 117.688 184.311 118.201C184.034 118.702 183.896 119.267 183.896 119.897ZM196.438 124.178C195.841 124.178 195.286 124.066 194.774 123.842C194.273 123.608 193.835 123.294 193.461 122.899C193.099 122.494 192.816 122.036 192.613 121.524C192.41 121.001 192.308 120.452 192.308 119.876C192.307 119.279 192.408 118.724 192.611 118.212C192.813 117.689 193.101 117.23 193.474 116.835C193.847 116.43 194.284 116.115 194.785 115.89C195.297 115.656 195.852 115.538 196.449 115.538C197.047 115.537 197.596 115.654 198.097 115.889C198.599 116.112 199.036 116.427 199.41 116.832C199.784 117.226 200.072 117.685 200.275 118.207C200.478 118.719 200.579 119.274 200.58 119.871C200.58 120.447 200.479 120.997 200.277 121.519C200.074 122.031 199.787 122.49 199.413 122.896C199.051 123.291 198.614 123.606 198.102 123.841C197.601 124.065 197.046 124.177 196.438 124.178ZM193.412 119.891C193.412 120.51 193.546 121.075 193.813 121.587C194.09 122.088 194.459 122.488 194.917 122.786C195.376 123.074 195.883 123.218 196.438 123.218C196.992 123.217 197.499 123.068 197.957 122.769C198.416 122.47 198.784 122.064 199.061 121.552C199.338 121.029 199.476 120.464 199.476 119.856C199.475 119.237 199.336 118.672 199.059 118.16C198.781 117.648 198.413 117.243 197.954 116.945C197.495 116.646 196.988 116.497 196.434 116.498C195.879 116.498 195.373 116.653 194.914 116.962C194.466 117.272 194.104 117.683 193.827 118.195C193.55 118.697 193.411 119.262 193.412 119.891ZM202.443 112.334L203.531 112.333L203.537 122.125C203.537 122.541 203.612 122.813 203.761 122.941C203.911 123.069 204.092 123.133 204.305 123.133C204.497 123.133 204.689 123.111 204.881 123.069C205.073 123.026 205.238 122.983 205.377 122.94L205.57 123.82C205.367 123.906 205.116 123.975 204.818 124.029C204.53 124.082 204.279 124.109 204.066 124.109C203.575 124.109 203.18 123.966 202.882 123.678C202.593 123.39 202.449 122.995 202.449 122.494L202.443 112.334Z" fill="#5F6380"/>
<path d="M56.285 141.018C56.2843 139.805 56.4983 138.619 56.927 137.462C57.3743 136.285 58.0177 135.221 58.8571 134.269C59.6966 133.297 60.7228 132.532 61.9358 131.971C63.1488 131.391 64.53 131.101 66.0793 131.1C67.9086 131.099 69.4862 131.5 70.812 132.302C72.1565 133.104 73.1557 134.148 73.8098 135.436L70.843 137.482C70.5066 136.735 70.0676 136.147 69.526 135.718C68.9844 135.271 68.4055 134.963 67.7894 134.795C67.1733 134.609 66.5666 134.516 65.9693 134.517C64.9986 134.517 64.1494 134.714 63.4216 135.106C62.7125 135.498 62.1155 136.012 61.6305 136.647C61.1455 137.282 60.782 137.992 60.5397 138.776C60.3162 139.56 60.2047 140.344 60.2051 141.128C60.2056 142.005 60.3461 142.854 60.6266 143.676C60.9071 144.478 61.2995 145.197 61.8038 145.831C62.3269 146.447 62.9431 146.941 63.6527 147.314C64.3809 147.668 65.1743 147.845 66.033 147.844C66.649 147.844 67.2743 147.741 67.9088 147.535C68.5434 147.33 69.1312 147.003 69.6723 146.554C70.2133 146.106 70.633 145.527 70.9312 144.818L74.0963 146.636C73.7049 147.625 73.0614 148.466 72.1658 149.157C71.2888 149.848 70.2998 150.371 69.1987 150.727C68.0975 151.082 67.0056 151.26 65.923 151.261C64.5043 151.261 63.2068 150.973 62.0305 150.395C60.8541 149.798 59.8363 149.015 58.9771 148.045C58.1365 147.056 57.4732 145.955 56.9872 144.742C56.5198 143.51 56.2858 142.269 56.285 141.018ZM83.0477 151.363C81.853 151.363 80.7796 151.168 79.8273 150.776C78.8751 150.366 78.0628 149.807 77.3904 149.098C76.7366 148.389 76.2321 147.577 75.8769 146.663C75.5217 145.748 75.3439 144.787 75.3433 143.779C75.3427 142.752 75.5194 141.782 75.8736 140.867C76.2277 139.952 76.7313 139.14 77.3842 138.43C78.0558 137.72 78.8674 137.169 79.8192 136.776C80.771 136.365 81.8442 136.159 83.0389 136.159C84.2335 136.158 85.2976 136.363 86.2312 136.773C87.1834 137.164 87.9958 137.714 88.6682 138.423C89.3406 139.132 89.8451 139.944 90.1816 140.858C90.5368 141.773 90.7147 142.744 90.7153 143.77C90.7159 144.778 90.5391 145.74 90.1849 146.654C89.8495 147.569 89.3459 148.382 88.6744 149.091C88.0214 149.801 87.2191 150.362 86.2673 150.773C85.3156 151.165 84.2423 151.362 83.0477 151.363ZM79.2073 143.777C79.2078 144.636 79.3762 145.401 79.7126 146.073C80.049 146.726 80.5066 147.239 81.0855 147.612C81.6644 147.985 82.3178 148.171 83.0458 148.171C83.7552 148.17 84.399 147.983 84.9775 147.609C85.5559 147.217 86.013 146.694 86.3486 146.041C86.7029 145.368 86.8798 144.603 86.8793 143.744C86.8788 142.904 86.701 142.148 86.3459 141.477C86.0096 140.805 85.5519 140.282 84.973 139.91C84.3942 139.537 83.75 139.35 83.0407 139.351C82.3127 139.351 81.6595 139.547 81.081 139.94C80.5026 140.313 80.0456 140.836 79.71 141.509C79.3743 142.162 79.2068 142.918 79.2073 143.777ZM116.044 151.064L112.292 151.066L112.287 142.834C112.287 141.676 112.081 140.827 111.67 140.286C111.277 139.726 110.727 139.447 110.017 139.447C109.289 139.447 108.589 139.737 107.918 140.316C107.265 140.877 106.798 141.614 106.519 142.529L106.524 151.069L102.772 151.071L102.767 142.839C102.767 141.663 102.561 140.805 102.15 140.264C101.757 139.722 101.207 139.452 100.497 139.453C99.7692 139.453 99.0694 139.733 98.3977 140.294C97.7447 140.854 97.2785 141.592 96.999 142.507L97.004 151.075L93.252 151.077L93.2435 136.405L96.6315 136.403L96.633 139.119C97.1925 138.166 97.9387 137.438 98.8718 136.933C99.8048 136.41 100.878 136.148 102.091 136.148C103.305 136.147 104.247 136.445 104.92 137.042C105.611 137.639 106.05 138.376 106.237 139.253C106.834 138.245 107.589 137.479 108.504 136.956C109.437 136.414 110.482 136.143 111.639 136.142C112.554 136.142 113.291 136.309 113.852 136.645C114.43 136.962 114.879 137.4 115.196 137.96C115.514 138.501 115.729 139.117 115.841 139.808C115.973 140.498 116.038 141.198 116.039 141.908L116.044 151.064ZM128.103 151.337C126.964 151.337 125.956 151.086 125.078 150.582C124.219 150.06 123.547 149.36 123.061 148.483L123.066 157.023L119.314 157.026L119.302 136.39L122.578 136.388L122.58 138.908C123.139 138.049 123.848 137.376 124.706 136.89C125.565 136.386 126.545 136.133 127.646 136.133C128.635 136.132 129.541 136.328 130.362 136.719C131.202 137.111 131.931 137.661 132.547 138.37C133.164 139.06 133.64 139.863 133.977 140.777C134.332 141.673 134.51 142.643 134.51 143.689C134.511 145.107 134.232 146.396 133.673 147.553C133.132 148.711 132.376 149.635 131.406 150.327C130.455 150.999 129.353 151.336 128.103 151.337ZM126.841 148.145C127.42 148.145 127.942 148.023 128.409 147.78C128.875 147.537 129.276 147.211 129.612 146.8C129.967 146.37 130.228 145.894 130.395 145.371C130.582 144.83 130.675 144.27 130.674 143.691C130.674 143.075 130.571 142.506 130.365 141.983C130.178 141.461 129.898 141.003 129.525 140.612C129.151 140.201 128.712 139.884 128.208 139.66C127.722 139.437 127.19 139.325 126.612 139.325C126.257 139.326 125.893 139.391 125.52 139.522C125.165 139.634 124.82 139.802 124.484 140.027C124.148 140.251 123.85 140.512 123.589 140.811C123.346 141.11 123.169 141.437 123.057 141.791L123.059 145.235C123.284 145.777 123.582 146.271 123.956 146.719C124.348 147.167 124.797 147.521 125.301 147.782C125.805 148.025 126.318 148.146 126.841 148.145ZM136.913 145.563L136.908 136.379L140.66 136.377L140.665 144.749C140.666 145.869 140.871 146.718 141.282 147.297C141.693 147.857 142.3 148.136 143.103 148.136C143.588 148.136 144.064 148.042 144.531 147.855C145.016 147.649 145.455 147.35 145.846 146.958C146.257 146.566 146.602 146.071 146.881 145.474L146.876 136.374L150.628 136.371L150.634 146.843C150.634 147.235 150.7 147.515 150.831 147.683C150.98 147.851 151.214 147.954 151.531 147.991L151.533 151.043C151.159 151.099 150.842 151.137 150.581 151.155C150.338 151.193 150.114 151.212 149.909 151.212C149.237 151.212 148.686 151.063 148.256 150.765C147.846 150.448 147.603 150.019 147.528 149.477L147.443 148.301C146.79 149.291 145.951 150.048 144.924 150.571C143.898 151.075 142.769 151.328 141.537 151.329C140.025 151.33 138.877 150.845 138.092 149.875C137.307 148.886 136.915 147.449 136.913 145.563ZM163.102 150.28C162.785 150.411 162.402 150.561 161.954 150.729C161.506 150.897 161.021 151.028 160.499 151.122C159.995 151.234 159.481 151.29 158.959 151.291C158.268 151.291 157.633 151.17 157.054 150.928C156.476 150.685 156.009 150.303 155.654 149.781C155.318 149.239 155.149 148.54 155.149 147.681L155.144 139.253L153.212 139.254L153.21 136.37L155.142 136.369L155.139 131.609L158.891 131.607L158.894 136.367L161.974 136.365L161.976 139.249L158.896 139.251L158.9 146.419C158.919 146.923 159.059 147.287 159.321 147.51C159.582 147.734 159.909 147.846 160.301 147.846C160.693 147.846 161.075 147.78 161.449 147.649C161.822 147.518 162.12 147.406 162.344 147.313L163.102 150.28ZM171.697 151.311C170.521 151.312 169.457 151.117 168.504 150.725C167.552 150.315 166.74 149.765 166.067 149.075C165.395 148.366 164.872 147.563 164.498 146.667C164.143 145.753 163.965 144.792 163.964 143.784C163.964 142.384 164.271 141.105 164.886 139.947C165.52 138.79 166.416 137.865 167.573 137.174C168.748 136.464 170.129 136.108 171.716 136.107C173.321 136.106 174.693 136.46 175.833 137.169C176.972 137.859 177.84 138.782 178.438 139.939C179.055 141.078 179.364 142.309 179.364 143.635C179.364 143.859 179.355 144.092 179.337 144.335C179.318 144.559 179.3 144.746 179.281 144.895L167.941 144.901C168.016 145.648 168.231 146.301 168.586 146.861C168.96 147.421 169.427 147.85 169.987 148.148C170.566 148.428 171.182 148.568 171.835 148.567C172.582 148.567 173.282 148.389 173.935 148.034C174.607 147.66 175.064 147.175 175.306 146.577L178.527 147.471C178.172 148.218 177.659 148.881 176.988 149.46C176.335 150.039 175.56 150.497 174.664 150.834C173.769 151.151 172.779 151.311 171.697 151.311ZM167.856 142.521L175.528 142.517C175.453 141.77 175.238 141.127 174.883 140.585C174.546 140.026 174.098 139.597 173.538 139.298C172.978 138.981 172.352 138.823 171.662 138.823C170.99 138.824 170.374 138.983 169.814 139.3C169.273 139.599 168.825 140.029 168.471 140.589C168.135 141.131 167.93 141.775 167.856 142.521ZM190.384 139.596C189.245 139.597 188.228 139.822 187.332 140.27C186.436 140.7 185.793 141.326 185.401 142.147L185.406 151.023L181.654 151.025L181.646 136.353L185.09 136.351L185.092 139.487C185.614 138.479 186.276 137.685 187.078 137.106C187.881 136.527 188.73 136.209 189.626 136.153C189.831 136.153 189.99 136.153 190.102 136.153C190.214 136.153 190.307 136.162 190.382 136.18L190.384 139.596ZM64.4331 171.325L64.4405 184.093L60.5765 184.096L60.565 164.216L63.645 164.214L73.9286 177.312L73.921 164.236L77.785 164.234L77.7965 184.086L74.5765 184.088L64.4331 171.325ZM88.126 184.36C86.95 184.36 85.8859 184.165 84.9337 183.774C83.9815 183.363 83.1691 182.813 82.4967 182.123C81.8243 181.414 81.3012 180.612 80.9273 179.716C80.5721 178.801 80.3943 177.84 80.3937 176.832C80.3929 175.432 80.7001 174.153 81.3154 172.996C81.9494 171.838 82.8449 170.913 84.0018 170.222C85.1774 169.512 86.5586 169.157 88.1452 169.156C89.7506 169.155 91.1228 169.509 92.2618 170.217C93.4009 170.907 94.2694 171.831 94.8674 172.988C95.4841 174.126 95.7928 175.358 95.7936 176.683C95.7937 176.907 95.7845 177.141 95.766 177.383C95.7475 177.607 95.7289 177.794 95.7103 177.943L84.3703 177.95C84.4454 178.696 84.6605 179.35 85.0155 179.909C85.3891 180.469 85.856 180.898 86.4162 181.197C86.995 181.476 87.6111 181.616 88.2644 181.616C89.0111 181.615 89.711 181.437 90.3641 181.082C91.0359 180.709 91.493 180.223 91.7353 179.626L94.9558 180.52C94.6016 181.267 94.0886 181.93 93.417 182.509C92.764 183.088 91.9896 183.545 91.0938 183.882C90.1979 184.2 89.2087 184.359 88.126 184.36ZM84.2849 175.57L91.9569 175.565C91.8818 174.819 91.6668 174.175 91.3118 173.634C90.9755 173.074 90.5272 172.645 89.9671 172.347C89.4069 172.03 88.7815 171.871 88.0908 171.872C87.4188 171.872 86.8029 172.031 86.2431 172.349C85.7019 172.648 85.2542 173.077 84.8998 173.638C84.5641 174.179 84.3592 174.823 84.2849 175.57ZM106.738 183.313C106.421 183.444 106.039 183.593 105.591 183.762C105.143 183.93 104.658 184.061 104.135 184.154C103.631 184.267 103.118 184.323 102.595 184.323C101.904 184.324 101.27 184.203 100.691 183.96C100.112 183.718 99.6451 183.336 99.2901 182.813C98.9538 182.272 98.7854 181.572 98.7849 180.714L98.78 172.286L96.848 172.287L96.8464 169.403L98.7784 169.402L98.7756 164.642L102.528 164.639L102.53 169.399L105.61 169.398L105.612 172.282L102.532 172.283L102.536 179.451C102.555 179.955 102.695 180.319 102.957 180.543C103.218 180.767 103.545 180.879 103.937 180.879C104.329 180.878 104.712 180.813 105.085 180.682C105.458 180.551 105.757 180.439 105.981 180.345L106.738 183.313ZM126.83 169.385L130.386 169.383L124.262 184.059L121.126 184.061L118.659 177.762L116.254 184.063L113.09 184.065L106.978 169.397L110.506 169.395L114.88 180.48L116.585 175.691L114.034 169.421L117.142 169.419L118.656 173.898L120.194 169.417L123.302 169.415L120.757 175.689L122.496 180.476L126.83 169.385ZM138.411 184.331C137.216 184.331 136.142 184.136 135.19 183.744C134.238 183.334 133.426 182.775 132.753 182.066C132.099 181.357 131.595 180.545 131.24 179.631C130.885 178.716 130.707 177.755 130.706 176.747C130.706 175.72 130.882 174.75 131.236 173.835C131.591 172.92 132.094 172.108 132.747 171.398C133.419 170.688 134.23 170.137 135.182 169.744C136.134 169.333 137.207 169.127 138.402 169.127C139.596 169.126 140.661 169.331 141.594 169.741C142.546 170.132 143.359 170.682 144.031 171.391C144.703 172.1 145.208 172.912 145.544 173.826C145.9 174.741 146.078 175.711 146.078 176.738C146.079 177.746 145.902 178.708 145.548 179.622C145.212 180.537 144.709 181.35 144.037 182.059C143.384 182.769 142.582 183.329 141.63 183.741C140.678 184.133 139.605 184.33 138.411 184.331ZM134.57 176.745C134.571 177.603 134.739 178.369 135.075 179.04C135.412 179.694 135.869 180.207 136.448 180.58C137.027 180.953 137.681 181.139 138.409 181.139C139.118 181.138 139.762 180.951 140.34 180.577C140.919 180.185 141.376 179.662 141.711 179.009C142.066 178.336 142.243 177.571 142.242 176.712C142.242 175.872 142.064 175.116 141.709 174.445C141.372 173.773 140.915 173.25 140.336 172.877C139.757 172.504 139.113 172.318 138.404 172.319C137.676 172.319 137.022 172.515 136.444 172.908C135.865 173.281 135.408 173.804 135.073 174.476C134.737 175.13 134.57 175.886 134.57 176.745ZM157.344 172.616C156.206 172.616 155.188 172.841 154.293 173.289C153.397 173.719 152.753 174.345 152.362 175.166L152.367 184.042L148.615 184.045L148.606 169.373L152.05 169.371L152.052 172.507C152.574 171.498 153.236 170.705 154.039 170.125C154.841 169.546 155.69 169.229 156.586 169.172C156.792 169.172 156.95 169.172 157.062 169.172C157.174 169.172 157.268 169.181 157.342 169.2L157.344 172.616ZM169.467 184.033L165.179 177.707L163.192 179.668L163.195 184.036L159.443 184.038L159.431 163.598L163.183 163.596L163.19 175.972L169.094 169.389L173.07 169.386L167.614 175.606L173.471 184.03L169.467 184.033ZM180.378 184.306C179.128 184.307 177.933 184.102 176.794 183.692C175.655 183.282 174.675 182.676 173.853 181.874L175.196 179.437C176.073 180.146 176.932 180.668 177.772 181.004C178.631 181.339 179.453 181.507 180.237 181.506C180.965 181.506 181.543 181.375 181.973 181.113C182.42 180.852 182.644 180.46 182.644 179.937C182.644 179.582 182.522 179.312 182.279 179.125C182.037 178.92 181.682 178.743 181.215 178.594C180.767 178.445 180.216 178.277 179.563 178.091C178.48 177.737 177.574 177.392 176.846 177.056C176.118 176.721 175.567 176.301 175.193 175.797C174.838 175.275 174.661 174.612 174.66 173.81C174.66 172.839 174.902 172.008 175.387 171.317C175.89 170.608 176.581 170.056 177.458 169.664C178.354 169.271 179.399 169.075 180.594 169.074C181.639 169.074 182.628 169.241 183.562 169.576C184.495 169.893 185.345 170.415 186.111 171.143L184.6 173.524C183.853 172.946 183.144 172.526 182.471 172.265C181.799 171.985 181.118 171.846 180.427 171.846C180.035 171.846 179.662 171.893 179.307 171.987C178.971 172.08 178.691 172.239 178.467 172.463C178.262 172.669 178.16 172.968 178.16 173.36C178.16 173.714 178.254 173.994 178.441 174.199C178.646 174.386 178.945 174.554 179.337 174.703C179.748 174.852 180.242 175.02 180.821 175.206C181.997 175.541 182.987 175.886 183.79 176.24C184.611 176.594 185.227 177.033 185.638 177.555C186.049 178.059 186.255 178.759 186.256 179.655C186.257 181.111 185.725 182.25 184.662 183.072C183.598 183.894 182.17 184.305 180.378 184.306Z" fill="#5F6380"/>
<path d="M99 56H121" stroke="#5F6380" stroke-linecap="round" stroke-linejoin="round"/>
<path d="M133 56H155" stroke="#5F6380" stroke-linecap="round" stroke-linejoin="round"/>
<path d="M127 62C130.314 62 133 59.3137 133 56C133 52.6863 130.314 50 127 50C123.686 50 121 52.6863 121 56C121 59.3137 123.686 62 127 62Z" stroke="#5F6380" stroke-linecap="round" stroke-linejoin="round"/>
<path d="M105 86C108.314 86 111 83.3137 111 80C111 76.6863 108.314 74 105 74C101.686 74 99 76.6863 99 80C99 83.3137 101.686 86 105 86Z" stroke="#5F6380" stroke-linecap="round" stroke-linejoin="round"/>
<path d="M149 86C152.314 86 155 83.3137 155 80C155 76.6863 152.314 74 149 74C145.686 74 143 76.6863 143 80C143 83.3137 145.686 86 149 86Z" stroke="#5F6380" stroke-linecap="round" stroke-linejoin="round"/>
<path d="M132.95 56.825C136.909 57.9365 140.479 60.1344 143.253 63.1698C146.028 66.2052 147.897 69.9569 148.65 74" stroke="#5F6380" stroke-linecap="round" stroke-linejoin="round"/>
<path d="M105.35 74C106.102 69.9569 107.972 66.2052 110.747 63.1698C113.521 60.1344 117.091 57.9365 121.05 56.825" stroke="#5F6380" stroke-linecap="round" stroke-linejoin="round"/>
<g filter="url(#filter0_d_28_599)">
<circle cx="107" cy="70" r="20" fill="#5F6380" fill-opacity="0.2" shape-rendering="crispEdges"/>
</g>
<defs>
<filter id="filter0_d_28_599" x="83" y="50" width="48" height="48" filterUnits="userSpaceOnUse" color-interpolation-filters="sRGB">
<feFlood flood-opacity="0" result="BackgroundImageFix"/>
<feColorMatrix in="SourceAlpha" type="matrix" values="0 0 0 0 0 0 0 0 0 0 0 0 0 0 0 0 0 0 127 0" result="hardAlpha"/>
<feOffset dy="4"/>
<feGaussianBlur stdDeviation="2"/>
<feComposite in2="hardAlpha" operator="out"/>
<feColorMatrix type="matrix" values="0 0 0 0 0 0 0 0 0 0 0 0 0 0 0 0 0 0 0.25 0"/>
<feBlend mode="normal" in2="BackgroundImageFix" result="effect1_dropShadow_28_599"/>
<feBlend mode="normal" in="SourceGraphic" in2="effect1_dropShadow_28_599" result="shape"/>
</filter>
</defs>
</svg>
