<svg width="246" height="200" viewBox="0 0 246 200" fill="none" xmlns="http://www.w3.org/2000/svg">
<rect x="0.5" y="0.5" width="245" height="199" rx="15.5" fill="#CECFD2" stroke="#CECFD2"/>
<path d="M98.6023 116.842C98.4422 116.661 98.2555 116.501 98.0421 116.362C97.8286 116.213 97.5886 116.085 97.3218 115.979C97.0551 115.872 96.7671 115.787 96.4577 115.723C96.159 115.659 95.839 115.628 95.4976 115.628C94.5056 115.628 93.7751 115.821 93.306 116.205C92.8475 116.579 92.6185 117.091 92.6189 117.741C92.6191 118.189 92.726 118.541 92.9395 118.797C93.1636 119.053 93.5104 119.261 93.9798 119.421C94.4493 119.58 95.0467 119.745 95.7721 119.916C96.5829 120.086 97.2817 120.288 97.8685 120.522C98.4553 120.757 98.9088 121.076 99.229 121.482C99.5493 121.876 99.7096 122.415 99.71 123.097C99.7103 123.62 99.6092 124.073 99.4068 124.458C99.2043 124.842 98.9218 125.162 98.5593 125.418C98.1968 125.674 97.7649 125.866 97.2636 125.995C96.7624 126.112 96.2131 126.171 95.6157 126.172C95.0291 126.172 94.4637 126.114 93.9196 125.997C93.3862 125.869 92.8795 125.688 92.3993 125.454C91.9192 125.209 91.471 124.899 91.0548 124.526L91.6143 123.614C91.8171 123.827 92.0572 124.03 92.3346 124.222C92.6227 124.403 92.9375 124.568 93.2789 124.717C93.631 124.866 94.0044 124.983 94.3991 125.068C94.8045 125.143 95.2205 125.18 95.6472 125.18C96.5538 125.179 97.2577 125.013 97.7589 124.682C98.2707 124.352 98.5264 123.861 98.526 123.21C98.5258 122.741 98.3975 122.367 98.1414 122.09C97.8852 121.802 97.5011 121.568 96.989 121.387C96.4769 121.206 95.8474 121.03 95.1007 120.86C94.3112 120.679 93.6445 120.477 93.1003 120.253C92.5562 120.029 92.1454 119.736 91.8678 119.374C91.6009 119.001 91.4673 118.51 91.467 117.902C91.4666 117.198 91.6369 116.606 91.9779 116.126C92.3296 115.635 92.8094 115.267 93.4173 115.021C94.0251 114.765 94.7237 114.636 95.5131 114.636C96.0144 114.635 96.4784 114.689 96.9052 114.795C97.3425 114.891 97.7426 115.034 98.1054 115.226C98.4789 115.418 98.8257 115.658 99.1458 115.946L98.6023 116.842ZM105.322 125.67C105.236 125.702 105.103 125.761 104.922 125.846C104.74 125.932 104.522 126.007 104.266 126.071C104.01 126.135 103.733 126.167 103.434 126.167C103.125 126.167 102.831 126.109 102.554 125.992C102.287 125.875 102.074 125.699 101.913 125.464C101.753 125.219 101.673 124.92 101.673 124.568L101.669 118.6L100.517 118.601L100.517 117.737L101.669 117.736L101.667 114.92L102.755 114.92L102.757 117.736L104.677 117.734L104.677 118.598L102.757 118.6L102.761 124.264C102.782 124.562 102.889 124.786 103.081 124.935C103.284 125.085 103.513 125.159 103.769 125.159C104.068 125.159 104.34 125.111 104.585 125.015C104.83 124.908 104.98 124.833 105.033 124.79L105.322 125.67ZM106.599 122.629L106.596 117.733L107.684 117.733L107.687 122.437C107.688 123.386 107.848 124.095 108.168 124.564C108.499 125.034 108.985 125.268 109.625 125.268C110.051 125.267 110.462 125.176 110.857 124.995C111.262 124.803 111.619 124.536 111.928 124.194C112.237 123.842 112.472 123.437 112.631 122.978L112.628 117.73L113.716 117.729L113.72 124.753C113.721 124.903 113.753 125.015 113.817 125.089C113.881 125.153 113.977 125.19 114.105 125.201L114.105 126.065C113.977 126.076 113.876 126.081 113.801 126.081C113.727 126.092 113.657 126.097 113.593 126.097C113.38 126.076 113.193 125.991 113.033 125.842C112.884 125.692 112.804 125.511 112.793 125.298L112.76 124.178C112.398 124.818 111.902 125.32 111.273 125.683C110.655 126.046 109.983 126.227 109.257 126.228C108.383 126.228 107.721 125.925 107.273 125.317C106.824 124.709 106.6 123.813 106.599 122.629ZM115.619 121.92C115.618 121.131 115.778 120.411 116.098 119.76C116.428 119.098 116.881 118.57 117.457 118.175C118.032 117.78 118.688 117.582 119.424 117.582C120.118 117.582 120.736 117.768 121.281 118.141C121.835 118.503 122.268 118.946 122.577 119.468L122.574 114.38L123.662 114.379L123.668 124.747C123.669 124.897 123.701 125.009 123.765 125.083C123.829 125.147 123.925 125.185 124.053 125.195L124.053 126.059C123.84 126.091 123.675 126.102 123.557 126.092C123.333 126.081 123.136 125.99 122.965 125.82C122.794 125.649 122.709 125.463 122.709 125.26L122.708 124.444C122.378 124.988 121.93 125.42 121.365 125.741C120.8 126.061 120.213 126.221 119.605 126.222C119.029 126.222 118.496 126.105 118.005 125.871C117.525 125.636 117.103 125.317 116.741 124.911C116.388 124.506 116.111 124.048 115.908 123.536C115.715 123.013 115.619 122.475 115.619 121.92ZM122.58 123.196L122.578 120.62C122.439 120.236 122.215 119.89 121.905 119.58C121.596 119.261 121.244 119.01 120.849 118.829C120.465 118.637 120.081 118.542 119.697 118.542C119.249 118.542 118.844 118.638 118.481 118.83C118.118 119.012 117.804 119.263 117.537 119.583C117.282 119.903 117.084 120.266 116.946 120.671C116.808 121.077 116.739 121.493 116.739 121.919C116.739 122.367 116.814 122.794 116.964 123.199C117.124 123.605 117.348 123.967 117.636 124.287C117.924 124.596 118.255 124.836 118.629 125.006C119.002 125.177 119.407 125.262 119.845 125.262C120.122 125.262 120.41 125.208 120.709 125.101C121.007 124.994 121.29 124.85 121.556 124.669C121.834 124.477 122.063 124.252 122.244 123.996C122.425 123.74 122.537 123.473 122.58 123.196ZM126.616 128.618C126.765 128.628 126.909 128.634 127.048 128.633C127.186 128.644 127.288 128.639 127.352 128.617C127.48 128.596 127.602 128.521 127.72 128.393C127.837 128.265 127.975 128.02 128.135 127.657C128.295 127.294 128.519 126.761 128.806 126.056L125.169 117.723L126.321 117.722L129.382 124.936L132.193 117.719L133.281 117.718L128.968 128.472C128.893 128.675 128.781 128.862 128.632 129.033C128.483 129.214 128.296 129.353 128.072 129.449C127.859 129.556 127.592 129.615 127.272 129.625C127.176 129.636 127.075 129.636 126.968 129.626C126.872 129.626 126.755 129.615 126.616 129.594L126.616 128.618ZM134.806 126.053L134.801 117.717L135.889 117.716L135.894 126.052L134.806 126.053ZM134.8 115.973L134.799 114.373L135.887 114.372L135.888 115.972L134.8 115.973ZM145.299 126.047L144.211 126.048L144.208 121.392C144.207 120.41 144.063 119.696 143.775 119.248C143.486 118.789 143.033 118.56 142.414 118.561C141.988 118.561 141.566 118.668 141.15 118.881C140.735 119.084 140.367 119.367 140.047 119.73C139.738 120.082 139.514 120.488 139.376 120.946L139.379 126.05L138.291 126.051L138.286 117.715L139.278 117.714L139.279 119.602C139.503 119.197 139.796 118.845 140.158 118.546C140.521 118.236 140.931 117.996 141.39 117.825C141.848 117.654 142.323 117.569 142.814 117.568C143.272 117.568 143.662 117.653 143.982 117.824C144.302 117.994 144.558 118.239 144.75 118.559C144.942 118.868 145.081 119.247 145.167 119.695C145.252 120.132 145.295 120.623 145.296 121.167L145.299 126.047ZM150.963 126.156C150.397 126.156 149.875 126.039 149.395 125.805C148.914 125.57 148.498 125.256 148.146 124.861C147.804 124.456 147.537 123.998 147.345 123.486C147.153 122.974 147.057 122.446 147.056 121.902C147.056 121.315 147.146 120.766 147.327 120.254C147.519 119.731 147.785 119.267 148.127 118.861C148.478 118.456 148.889 118.141 149.358 117.917C149.827 117.682 150.35 117.564 150.926 117.564C151.64 117.563 152.259 117.744 152.782 118.107C153.316 118.469 153.764 118.917 154.127 119.45L154.126 117.706L155.102 117.705L155.107 126.073C155.107 126.841 154.921 127.487 154.548 128.01C154.185 128.543 153.69 128.943 153.061 129.21C152.442 129.477 151.765 129.611 151.029 129.612C150.079 129.612 149.311 129.442 148.724 129.101C148.138 128.76 147.657 128.302 147.284 127.726L147.955 127.197C148.286 127.72 148.724 128.109 149.268 128.365C149.823 128.62 150.41 128.748 151.028 128.748C151.572 128.747 152.068 128.646 152.516 128.443C152.975 128.25 153.337 127.957 153.604 127.562C153.881 127.167 154.019 126.671 154.019 126.074L154.018 124.426C153.698 124.949 153.261 125.37 152.706 125.691C152.152 126 151.571 126.155 150.963 126.156ZM151.266 125.243C151.597 125.243 151.912 125.184 152.21 125.067C152.519 124.949 152.802 124.795 153.058 124.602C153.314 124.4 153.527 124.175 153.697 123.93C153.868 123.685 153.975 123.434 154.017 123.178L154.016 120.602C153.855 120.197 153.626 119.839 153.327 119.53C153.028 119.21 152.687 118.965 152.302 118.795C151.929 118.614 151.54 118.523 151.134 118.524C150.665 118.524 150.244 118.625 149.871 118.828C149.508 119.02 149.199 119.282 148.943 119.613C148.698 119.933 148.506 120.296 148.368 120.701C148.229 121.107 148.16 121.512 148.16 121.917C148.161 122.365 148.241 122.792 148.401 123.197C148.561 123.592 148.78 123.949 149.058 124.269C149.346 124.578 149.677 124.818 150.05 124.988C150.434 125.159 150.84 125.244 151.266 125.243Z" fill="#5F6380"/>
<path d="M56.2897 142.018C56.289 140.805 56.503 139.62 56.9316 138.462C57.3789 137.286 58.0223 136.221 58.8618 135.269C59.7012 134.298 60.7274 133.532 61.9404 132.971C63.1534 132.392 64.5346 132.102 66.0839 132.101C67.9133 132.1 69.4908 132.5 70.8166 133.302C72.1611 134.104 73.1604 135.149 73.8144 136.436L70.8476 138.482C70.5112 137.735 70.0722 137.148 69.5306 136.719C68.989 136.271 68.4102 135.963 67.7941 135.796C67.178 135.609 66.5712 135.516 65.9739 135.517C65.0032 135.517 64.154 135.714 63.4263 136.106C62.7172 136.499 62.1201 137.012 61.6351 137.647C61.1502 138.282 60.7866 138.992 60.5444 139.776C60.3208 140.56 60.2093 141.344 60.2097 142.128C60.2103 143.005 60.3507 143.855 60.6312 144.676C60.9117 145.478 61.3041 146.197 61.8085 146.831C62.3315 147.447 62.9478 147.941 63.6573 148.314C64.3855 148.668 65.179 148.845 66.0376 148.845C66.6536 148.844 67.2789 148.741 67.9135 148.536C68.548 148.33 69.1358 148.003 69.6769 147.555C70.218 147.106 70.6376 146.527 70.9359 145.818L74.1009 147.636C73.7095 148.626 73.066 149.466 72.1704 150.157C71.2935 150.848 70.3044 151.372 69.2033 151.727C68.1022 152.082 67.0103 152.26 65.9276 152.261C64.5089 152.262 63.2114 151.973 62.0351 151.395C60.8588 150.798 59.841 150.015 58.9818 149.045C58.1412 148.056 57.4779 146.955 56.9918 145.742C56.5245 144.51 56.2904 143.269 56.2897 142.018ZM83.0523 152.363C81.8576 152.364 80.7842 152.168 79.832 151.777C78.8797 151.367 78.0674 150.807 77.395 150.098C76.7412 149.389 76.2368 148.577 75.8816 147.663C75.5264 146.749 75.3485 145.787 75.3479 144.779C75.3473 143.753 75.5241 142.782 75.8782 141.867C76.2324 140.952 76.7359 140.14 77.3888 139.43C78.0604 138.72 78.8721 138.169 79.8239 137.777C80.7756 137.366 81.8488 137.16 83.0435 137.159C84.2382 137.158 85.3023 137.363 86.2359 137.773C87.1881 138.164 88.0004 138.715 88.6728 139.424C89.3452 140.133 89.8497 140.944 90.1862 141.859C90.5414 142.773 90.7193 143.744 90.7199 144.77C90.7205 145.778 90.5437 146.74 90.1896 147.655C89.8541 148.57 89.3506 149.382 88.679 150.092C88.0261 150.801 87.2237 151.362 86.272 151.773C85.3202 152.166 84.247 152.362 83.0523 152.363ZM79.2119 144.777C79.2124 145.636 79.3808 146.401 79.7172 147.073C80.0536 147.726 80.5112 148.239 81.0901 148.612C81.669 148.985 82.3225 149.171 83.0505 149.171C83.7598 149.17 84.4037 148.983 84.9821 148.61C85.5606 148.217 86.0176 147.694 86.3532 147.041C86.7075 146.369 86.8844 145.603 86.8839 144.745C86.8834 143.905 86.7056 143.149 86.3506 142.477C86.0142 141.805 85.5566 141.283 84.9777 140.91C84.3988 140.537 83.7547 140.35 83.0453 140.351C82.3173 140.351 81.6641 140.548 81.0857 140.94C80.5072 141.314 80.0502 141.837 79.7146 142.509C79.379 143.162 79.2114 143.918 79.2119 144.777ZM116.049 152.064L112.297 152.066L112.292 143.834C112.291 142.677 112.085 141.827 111.674 141.286C111.282 140.727 110.731 140.447 110.022 140.447C109.294 140.448 108.594 140.737 107.922 141.316C107.269 141.877 106.803 142.614 106.524 143.529L106.529 152.069L102.777 152.071L102.772 143.839C102.771 142.663 102.565 141.805 102.154 141.264C101.762 140.723 101.211 140.452 100.502 140.453C99.7739 140.453 99.074 140.734 98.4024 141.294C97.7494 141.854 97.2831 142.592 97.0036 143.507L97.0086 152.075L93.2566 152.077L93.2481 137.405L96.6361 137.403L96.6377 140.119C97.1971 139.167 97.9434 138.438 98.8764 137.934C99.8094 137.41 100.883 137.149 102.096 137.148C103.309 137.147 104.252 137.445 104.924 138.042C105.615 138.639 106.055 139.376 106.242 140.253C106.839 139.245 107.594 138.479 108.508 137.956C109.441 137.414 110.487 137.143 111.644 137.142C112.559 137.142 113.296 137.309 113.856 137.645C114.435 137.962 114.883 138.4 115.201 138.96C115.519 139.501 115.734 140.117 115.846 140.808C115.977 141.498 116.043 142.198 116.043 142.908L116.049 152.064ZM128.107 152.337C126.969 152.337 125.961 152.086 125.083 151.583C124.224 151.06 123.552 150.361 123.066 149.484L123.071 158.024L119.319 158.026L119.307 137.39L122.583 137.388L122.584 139.908C123.144 139.049 123.853 138.377 124.711 137.891C125.569 137.386 126.549 137.134 127.651 137.133C128.64 137.132 129.545 137.328 130.367 137.719C131.207 138.111 131.935 138.661 132.552 139.37C133.168 140.06 133.645 140.863 133.981 141.777C134.336 142.673 134.514 143.644 134.515 144.689C134.516 146.108 134.236 147.396 133.677 148.554C133.137 149.711 132.381 150.636 131.411 151.327C130.459 151.999 129.358 152.336 128.107 152.337ZM126.846 149.145C127.424 149.145 127.947 149.024 128.413 148.781C128.88 148.538 129.281 148.211 129.617 147.8C129.971 147.37 130.232 146.894 130.4 146.371C130.586 145.83 130.679 145.27 130.679 144.691C130.679 144.075 130.576 143.506 130.37 142.983C130.183 142.461 129.903 142.004 129.529 141.612C129.156 141.201 128.717 140.884 128.213 140.661C127.727 140.437 127.195 140.325 126.616 140.326C126.262 140.326 125.898 140.391 125.525 140.522C125.17 140.634 124.825 140.803 124.489 141.027C124.153 141.251 123.854 141.513 123.593 141.811C123.351 142.11 123.174 142.437 123.062 142.792L123.064 146.236C123.288 146.777 123.587 147.271 123.961 147.719C124.353 148.167 124.801 148.521 125.305 148.782C125.809 149.025 126.323 149.146 126.846 149.145ZM136.918 146.564L136.913 137.38L140.665 137.377L140.67 145.749C140.67 146.869 140.876 147.719 141.287 148.297C141.698 148.857 142.305 149.137 143.108 149.136C143.593 149.136 144.069 149.042 144.535 148.855C145.021 148.65 145.459 148.351 145.851 147.958C146.261 147.566 146.606 147.071 146.886 146.474L146.881 137.374L150.633 137.372L150.639 147.844C150.639 148.236 150.705 148.516 150.835 148.684C150.985 148.852 151.218 148.954 151.536 148.991L151.537 152.043C151.164 152.099 150.847 152.137 150.585 152.156C150.343 152.193 150.119 152.212 149.913 152.212C149.241 152.213 148.691 152.064 148.261 151.765C147.85 151.448 147.607 151.019 147.532 150.478L147.448 149.302C146.795 150.291 145.955 151.048 144.929 151.571C143.903 152.076 142.773 152.328 141.541 152.329C140.029 152.33 138.881 151.845 138.097 150.875C137.312 149.886 136.919 148.449 136.918 146.564ZM163.107 151.28C162.789 151.411 162.407 151.561 161.959 151.729C161.511 151.897 161.026 152.028 160.503 152.122C159.999 152.234 159.486 152.291 158.963 152.291C158.273 152.291 157.638 152.17 157.059 151.928C156.48 151.686 156.013 151.303 155.658 150.781C155.322 150.24 155.154 149.54 155.153 148.681L155.148 140.253L153.216 140.254L153.215 137.37L155.147 137.369L155.144 132.609L158.896 132.607L158.899 137.367L161.979 137.365L161.98 140.249L158.9 140.251L158.905 147.419C158.923 147.923 159.064 148.287 159.325 148.511C159.587 148.735 159.913 148.846 160.305 148.846C160.697 148.846 161.08 148.78 161.453 148.649C161.826 148.519 162.125 148.406 162.349 148.313L163.107 151.28ZM171.701 152.312C170.525 152.312 169.461 152.117 168.509 151.725C167.557 151.315 166.744 150.765 166.072 150.075C165.4 149.366 164.877 148.563 164.503 147.668C164.147 146.753 163.97 145.792 163.969 144.784C163.968 143.384 164.275 142.105 164.891 140.947C165.525 139.79 166.42 138.865 167.577 138.174C168.753 137.464 170.134 137.108 171.721 137.107C173.326 137.107 174.698 137.46 175.837 138.169C176.976 138.859 177.845 139.783 178.443 140.94C179.059 142.078 179.368 143.31 179.369 144.635C179.369 144.859 179.36 145.092 179.341 145.335C179.323 145.559 179.304 145.746 179.286 145.895L167.946 145.902C168.021 146.648 168.236 147.302 168.591 147.861C168.964 148.421 169.431 148.85 169.992 149.148C170.57 149.428 171.186 149.568 171.84 149.567C172.586 149.567 173.286 149.389 173.939 149.034C174.611 148.66 175.068 148.175 175.311 147.577L178.531 148.472C178.177 149.218 177.664 149.881 176.992 150.46C176.339 151.039 175.565 151.497 174.669 151.834C173.773 152.152 172.784 152.311 171.701 152.312ZM167.86 143.522L175.532 143.517C175.457 142.771 175.242 142.127 174.887 141.586C174.551 141.026 174.103 140.597 173.542 140.298C172.982 139.981 172.357 139.823 171.666 139.824C170.994 139.824 170.378 139.983 169.818 140.301C169.277 140.6 168.83 141.029 168.475 141.589C168.139 142.131 167.935 142.775 167.86 143.522ZM190.388 140.597C189.25 140.597 188.232 140.822 187.337 141.27C186.441 141.7 185.797 142.326 185.406 143.148L185.411 152.024L181.659 152.026L181.65 137.354L185.094 137.352L185.096 140.488C185.618 139.479 186.281 138.686 187.083 138.107C187.885 137.527 188.734 137.21 189.63 137.153C189.836 137.153 189.994 137.153 190.106 137.153C190.218 137.153 190.312 137.162 190.386 137.181L190.388 140.597ZM83.6139 170.411C83.4832 170.28 83.2404 170.103 82.8856 169.879C82.5495 169.655 82.1293 169.441 81.6252 169.236C81.1398 169.031 80.6077 168.854 80.0289 168.705C79.4501 168.537 78.8621 168.453 78.2648 168.454C77.2194 168.454 76.4262 168.651 75.8851 169.043C75.3627 169.435 75.1017 169.986 75.1021 170.695C75.1024 171.237 75.2706 171.666 75.6068 171.983C75.943 172.3 76.4471 172.571 77.1193 172.794C77.7914 173.018 78.6315 173.26 79.6397 173.521C80.9465 173.837 82.0761 174.229 83.0284 174.695C83.9993 175.142 84.737 175.739 85.2414 176.486C85.7645 177.213 86.0264 178.184 86.0271 179.397C86.0277 180.461 85.8323 181.376 85.4407 182.141C85.0491 182.888 84.5081 183.495 83.8177 183.962C83.1274 184.429 82.3436 184.775 81.4663 185C80.5891 185.206 79.6559 185.309 78.6665 185.309C77.6772 185.31 76.6878 185.208 75.6984 185.003C74.7089 184.798 73.7567 184.51 72.8418 184.137C71.927 183.745 71.0867 183.279 70.321 182.738L72.0271 179.405C72.1952 179.573 72.494 179.797 72.9235 180.077C73.353 180.338 73.8758 180.608 74.492 180.888C75.1081 181.149 75.7802 181.372 76.5084 181.559C77.2365 181.745 77.9739 181.838 78.7205 181.837C79.7659 181.837 80.5591 181.659 81.1002 181.304C81.6413 180.949 81.9117 180.445 81.9113 179.792C81.911 179.194 81.696 178.728 81.2665 178.392C80.837 178.056 80.2395 177.767 79.474 177.525C78.7085 177.264 77.803 176.985 76.7575 176.687C75.5067 176.333 74.4611 175.941 73.6209 175.512C72.7806 175.065 72.1549 174.505 71.7439 173.833C71.3328 173.162 71.127 172.322 71.1264 171.314C71.1256 169.951 71.4423 168.812 72.0764 167.897C72.7292 166.964 73.6062 166.263 74.7072 165.796C75.8083 165.31 77.0308 165.066 78.3748 165.066C79.3081 165.065 80.1855 165.167 81.007 165.372C81.8471 165.577 82.6313 165.847 83.3594 166.183C84.0876 166.518 84.7412 166.882 85.3201 167.274L83.6139 170.411ZM95.4184 185.356C94.2238 185.356 93.1503 185.161 92.1981 184.77C91.2459 184.359 90.4335 183.8 89.7611 183.091C89.0887 182.363 88.5656 181.542 88.1917 180.628C87.8365 179.713 87.6586 178.752 87.658 177.744C87.6572 176.363 87.9645 175.103 88.5798 173.964C89.2138 172.806 90.1093 171.881 91.2662 171.19C92.4232 170.499 93.795 170.153 95.3816 170.152C96.9683 170.151 98.3312 170.495 99.4702 171.185C100.609 171.875 101.459 172.78 102.02 173.9L98.3524 175.022C98.0348 174.481 97.6146 174.07 97.0917 173.791C96.5689 173.492 95.9901 173.343 95.3555 173.344C94.6461 173.344 93.9929 173.531 93.3958 173.905C92.8173 174.26 92.3603 174.773 92.0247 175.446C91.6891 176.099 91.5215 176.865 91.522 177.742C91.5225 178.601 91.691 179.366 92.0274 180.038C92.3824 180.691 92.8494 181.213 93.4283 181.605C94.0071 181.978 94.6513 182.164 95.3606 182.164C95.8086 182.163 96.2285 182.089 96.6205 181.939C97.031 181.789 97.3949 181.584 97.7121 181.322C98.0293 181.061 98.2624 180.762 98.4116 180.426L102.08 181.544C101.745 182.272 101.25 182.926 100.597 183.505C99.963 184.084 99.2073 184.542 98.3302 184.878C97.4717 185.196 96.5011 185.355 95.4184 185.356ZM104.391 185.071L104.382 170.399L108.134 170.396L108.143 185.068L104.391 185.071ZM104.381 168.355L104.379 164.631L108.131 164.628L108.133 168.352L104.381 168.355ZM118.332 185.342C117.156 185.343 116.092 185.148 115.139 184.756C114.187 184.346 113.375 183.796 112.703 183.106C112.03 182.397 111.507 181.594 111.133 180.699C110.778 179.784 110.6 178.823 110.599 177.815C110.599 176.415 110.906 175.136 111.521 173.978C112.155 172.821 113.051 171.896 114.208 171.205C115.383 170.495 116.764 170.139 118.351 170.138C119.956 170.137 121.329 170.491 122.468 171.2C123.607 171.89 124.475 172.814 125.073 173.971C125.69 175.109 125.999 176.341 125.999 177.666C126 177.89 125.99 178.123 125.972 178.366C125.953 178.59 125.935 178.777 125.916 178.926L114.576 178.933C114.651 179.679 114.866 180.332 115.221 180.892C115.595 181.452 116.062 181.881 116.622 182.179C117.201 182.459 117.817 182.599 118.47 182.598C119.217 182.598 119.917 182.42 120.57 182.065C121.242 181.691 121.699 181.206 121.941 180.608L125.162 181.502C124.807 182.249 124.294 182.912 123.623 183.491C122.97 184.07 122.195 184.528 121.3 184.865C120.404 185.183 119.415 185.342 118.332 185.342ZM114.491 176.553L122.163 176.548C122.088 175.802 121.873 175.158 121.518 174.617C121.181 174.057 120.733 173.628 120.173 173.329C119.613 173.012 118.987 172.854 118.297 172.854C117.625 172.855 117.009 173.014 116.449 173.332C115.908 173.63 115.46 174.06 115.106 174.62C114.77 175.162 114.565 175.806 114.491 176.553ZM141.925 185.049L138.173 185.051L138.169 176.819C138.168 175.643 137.962 174.784 137.551 174.243C137.14 173.702 136.571 173.432 135.843 173.432C135.339 173.433 134.825 173.564 134.303 173.825C133.799 174.087 133.342 174.451 132.932 174.918C132.521 175.366 132.223 175.889 132.036 176.486L132.041 185.054L128.289 185.057L128.281 170.385L131.669 170.383L131.67 173.099C132.043 172.464 132.519 171.932 133.098 171.502C133.676 171.054 134.338 170.717 135.085 170.493C135.85 170.25 136.653 170.128 137.493 170.127C138.407 170.127 139.154 170.294 139.733 170.63C140.331 170.947 140.779 171.385 141.078 171.945C141.395 172.486 141.61 173.102 141.723 173.793C141.854 174.483 141.92 175.183 141.92 175.893L141.925 185.049ZM152.02 185.323C150.825 185.324 149.752 185.128 148.8 184.737C147.847 184.327 147.035 183.767 146.363 183.058C145.69 182.331 145.167 181.51 144.793 180.595C144.438 179.681 144.26 178.719 144.26 177.711C144.259 176.33 144.566 175.07 145.181 173.931C145.815 172.773 146.711 171.849 147.868 171.157C149.025 170.466 150.397 170.12 151.983 170.119C153.57 170.118 154.933 170.463 156.072 171.153C157.211 171.843 158.061 172.747 158.621 173.867L154.954 174.989C154.636 174.448 154.216 174.038 153.693 173.758C153.17 173.46 152.592 173.311 151.957 173.311C151.248 173.311 150.594 173.498 149.997 173.872C149.419 174.227 148.962 174.741 148.626 175.413C148.291 176.066 148.123 176.832 148.124 177.709C148.124 178.568 148.293 179.333 148.629 180.005C148.984 180.658 149.451 181.18 150.03 181.572C150.609 181.945 151.253 182.131 151.962 182.131C152.41 182.131 152.83 182.056 153.222 181.906C153.633 181.757 153.996 181.551 154.314 181.29C154.631 181.028 154.864 180.729 155.013 180.393L158.682 181.511C158.346 182.239 157.852 182.893 157.199 183.472C156.565 184.051 155.809 184.509 154.932 184.845C154.073 185.163 153.103 185.322 152.02 185.323ZM167.66 185.314C166.484 185.315 165.42 185.119 164.468 184.728C163.515 184.318 162.703 183.767 162.031 183.077C161.358 182.368 160.835 181.566 160.461 180.67C160.106 179.756 159.928 178.794 159.928 177.786C159.927 176.386 160.234 175.107 160.849 173.95C161.483 172.792 162.379 171.868 163.536 171.176C164.711 170.466 166.092 170.111 167.679 170.11C169.284 170.109 170.657 170.463 171.796 171.171C172.935 171.861 173.803 172.785 174.401 173.942C175.018 175.08 175.327 176.312 175.328 177.637C175.328 177.861 175.318 178.095 175.3 178.337C175.281 178.561 175.263 178.748 175.244 178.897L163.904 178.904C163.979 179.651 164.194 180.304 164.549 180.864C164.923 181.423 165.39 181.852 165.95 182.151C166.529 182.431 167.145 182.57 167.798 182.57C168.545 182.569 169.245 182.392 169.898 182.037C170.57 181.663 171.027 181.177 171.269 180.58L174.49 181.474C174.135 182.221 173.623 182.884 172.951 183.463C172.298 184.042 171.523 184.5 170.628 184.836C169.732 185.154 168.743 185.313 167.66 185.314ZM163.819 176.524L171.491 176.52C171.416 175.773 171.201 175.129 170.846 174.588C170.509 174.028 170.061 173.599 169.501 173.301C168.941 172.984 168.315 172.825 167.625 172.826C166.953 172.826 166.337 172.985 165.777 173.303C165.236 173.602 164.788 174.032 164.434 174.592C164.098 175.133 163.893 175.777 163.819 176.524Z" fill="#5F6380"/>
<path d="M107 64L95 74L107 84" stroke="#5F6380" stroke-linecap="round" stroke-linejoin="round"/>
<path d="M139 64L151 74L139 84" stroke="#5F6380" stroke-linecap="round" stroke-linejoin="round"/>
<path d="M131 52L115 96" stroke="#5F6380" stroke-linecap="round" stroke-linejoin="round"/>
<g filter="url(#filter0_d_28_573)">
<circle cx="143" cy="76" r="20" fill="#5F6380" fill-opacity="0.2" shape-rendering="crispEdges"/>
</g>
<defs>
<filter id="filter0_d_28_573" x="119" y="56" width="48" height="48" filterUnits="userSpaceOnUse" color-interpolation-filters="sRGB">
<feFlood flood-opacity="0" result="BackgroundImageFix"/>
<feColorMatrix in="SourceAlpha" type="matrix" values="0 0 0 0 0 0 0 0 0 0 0 0 0 0 0 0 0 0 127 0" result="hardAlpha"/>
<feOffset dy="4"/>
<feGaussianBlur stdDeviation="2"/>
<feComposite in2="hardAlpha" operator="out"/>
<feColorMatrix type="matrix" values="0 0 0 0 0 0 0 0 0 0 0 0 0 0 0 0 0 0 0.25 0"/>
<feBlend mode="normal" in2="BackgroundImageFix" result="effect1_dropShadow_28_573"/>
<feBlend mode="normal" in="SourceGraphic" in2="effect1_dropShadow_28_573" result="shape"/>
</filter>
</defs>
</svg>
