<svg width="246" height="200" viewBox="0 0 246 200" fill="none" xmlns="http://www.w3.org/2000/svg">
<rect width="246" height="200" rx="16" fill="#5F6380" fill-opacity="0.1"/>
<path d="M93.6549 134.109L93.6533 131.261L88.3253 131.264L88.3247 130.304L94.0005 122.941L94.7365 122.94L94.7407 130.268L96.1487 130.267L96.1493 131.259L94.7413 131.26L94.7429 134.108L93.6549 134.109ZM89.4767 130.271L93.7647 130.269L93.7615 124.653L89.4767 130.271ZM102.014 134.632C102.164 134.643 102.308 134.648 102.446 134.648C102.585 134.658 102.686 134.653 102.75 134.632C102.878 134.61 103.001 134.535 103.118 134.407C103.235 134.279 103.374 134.034 103.534 133.671C103.693 133.308 103.917 132.775 104.205 132.071L100.568 123.737L101.72 123.736L104.78 130.95L107.592 123.733L108.68 123.732L104.366 134.487C104.292 134.689 104.18 134.876 104.03 135.047C103.881 135.228 103.695 135.367 103.471 135.463C103.257 135.57 102.991 135.629 102.671 135.64C102.575 135.65 102.473 135.65 102.367 135.64C102.271 135.64 102.153 135.629 102.015 135.608L102.014 134.632ZM113.508 132.225C112.911 132.226 112.356 132.114 111.844 131.89C111.332 131.656 110.889 131.342 110.515 130.947C110.142 130.542 109.848 130.078 109.634 129.556C109.431 129.033 109.33 128.473 109.329 127.876C109.329 127.097 109.504 126.382 109.856 125.731C110.218 125.081 110.714 124.563 111.343 124.179C111.972 123.784 112.687 123.586 113.487 123.585C114.308 123.585 115.023 123.782 115.631 124.176C116.25 124.57 116.736 125.093 117.088 125.743C117.44 126.383 117.617 127.087 117.617 127.855C117.617 127.94 117.617 128.026 117.617 128.111C117.618 128.186 117.612 128.244 117.602 128.287L110.466 128.291C110.519 128.888 110.685 129.422 110.962 129.891C111.251 130.349 111.619 130.717 112.067 130.994C112.526 131.261 113.022 131.394 113.555 131.393C114.099 131.393 114.611 131.254 115.091 130.976C115.582 130.699 115.923 130.336 116.114 129.888L117.059 130.143C116.888 130.538 116.627 130.896 116.275 131.216C115.923 131.536 115.508 131.787 115.028 131.968C114.558 132.139 114.052 132.225 113.508 132.225ZM110.433 127.507L116.593 127.504C116.55 126.896 116.384 126.362 116.096 125.904C115.819 125.445 115.45 125.088 114.992 124.832C114.543 124.566 114.047 124.433 113.503 124.433C112.959 124.434 112.463 124.567 112.016 124.834C111.568 125.09 111.2 125.453 110.912 125.923C110.635 126.382 110.475 126.91 110.433 127.507ZM118.625 129.662C118.625 129.14 118.774 128.692 119.072 128.318C119.371 127.934 119.781 127.64 120.304 127.437C120.837 127.224 121.45 127.117 122.144 127.116C122.549 127.116 122.97 127.148 123.408 127.212C123.845 127.275 124.234 127.371 124.576 127.499L124.575 126.795C124.575 126.091 124.367 125.531 123.95 125.115C123.534 124.7 122.958 124.492 122.222 124.492C121.774 124.493 121.331 124.578 120.894 124.749C120.468 124.909 120.02 125.15 119.551 125.47L119.134 124.702C119.678 124.328 120.211 124.051 120.734 123.869C121.256 123.677 121.789 123.581 122.333 123.58C123.357 123.58 124.168 123.872 124.766 124.459C125.364 125.045 125.663 125.856 125.663 126.89L125.666 130.746C125.666 130.896 125.698 131.008 125.762 131.082C125.826 131.146 125.927 131.183 126.066 131.194L126.066 132.058C125.949 132.069 125.848 132.08 125.762 132.09C125.677 132.101 125.613 132.101 125.57 132.09C125.304 132.08 125.101 131.995 124.962 131.835C124.823 131.675 124.749 131.504 124.738 131.323L124.722 130.715C124.349 131.195 123.863 131.569 123.266 131.836C122.669 132.092 122.061 132.22 121.442 132.221C120.909 132.221 120.424 132.109 119.986 131.886C119.559 131.651 119.223 131.342 118.978 130.958C118.743 130.564 118.625 130.132 118.625 129.662ZM124.209 130.299C124.327 130.15 124.417 130.006 124.481 129.867C124.545 129.728 124.577 129.606 124.577 129.499L124.576 128.283C124.213 128.144 123.835 128.038 123.44 127.964C123.056 127.889 122.667 127.852 122.272 127.852C121.493 127.853 120.864 128.008 120.384 128.317C119.904 128.627 119.665 129.048 119.665 129.582C119.665 129.891 119.745 130.184 119.905 130.462C120.066 130.728 120.3 130.952 120.61 131.133C120.919 131.304 121.282 131.389 121.698 131.389C122.221 131.388 122.706 131.287 123.154 131.084C123.612 130.881 123.964 130.619 124.209 130.299ZM132.173 124.679C131.448 124.7 130.808 124.903 130.253 125.288C129.709 125.672 129.326 126.2 129.102 126.872L129.105 132.056L128.017 132.057L128.012 123.721L129.036 123.72L129.037 125.72C129.325 125.134 129.704 124.659 130.173 124.296C130.652 123.933 131.159 123.73 131.692 123.687C131.799 123.676 131.89 123.671 131.964 123.671C132.05 123.671 132.119 123.676 132.172 123.687L132.173 124.679ZM136.363 132.212C135.68 132.212 135.045 132.101 134.458 131.877C133.872 131.654 133.365 131.313 132.938 130.854L133.385 130.086C133.855 130.523 134.324 130.843 134.794 131.045C135.274 131.237 135.781 131.332 136.314 131.332C136.965 131.332 137.493 131.203 137.898 130.947C138.303 130.68 138.505 130.302 138.505 129.811C138.505 129.48 138.404 129.23 138.201 129.059C138.009 128.878 137.726 128.734 137.353 128.628C136.99 128.51 136.552 128.388 136.04 128.26C135.464 128.101 134.979 127.936 134.584 127.765C134.2 127.584 133.906 127.36 133.704 127.094C133.511 126.816 133.415 126.459 133.415 126.022C133.415 125.478 133.548 125.03 133.814 124.678C134.091 124.315 134.465 124.043 134.934 123.861C135.414 123.669 135.947 123.572 136.534 123.572C137.174 123.572 137.739 123.673 138.23 123.875C138.721 124.077 139.121 124.36 139.43 124.722L138.903 125.459C138.604 125.117 138.246 124.867 137.83 124.707C137.425 124.537 136.971 124.452 136.47 124.452C136.129 124.452 135.803 124.5 135.494 124.597C135.185 124.682 134.929 124.832 134.726 125.045C134.535 125.248 134.439 125.531 134.439 125.893C134.439 126.192 134.514 126.427 134.663 126.597C134.813 126.757 135.037 126.896 135.336 127.013C135.634 127.119 136.002 127.236 136.44 127.364C137.069 127.534 137.619 127.71 138.088 127.891C138.558 128.061 138.92 128.285 139.176 128.562C139.433 128.84 139.561 129.229 139.561 129.73C139.562 130.509 139.269 131.117 138.682 131.555C138.096 131.992 137.323 132.212 136.363 132.212ZM148.991 132.205C148.394 132.205 147.839 132.093 147.327 131.87C146.825 131.635 146.388 131.321 146.014 130.927C145.651 130.521 145.369 130.063 145.166 129.551C144.963 129.028 144.861 128.479 144.861 127.903C144.86 127.306 144.961 126.751 145.164 126.239C145.366 125.716 145.654 125.257 146.027 124.863C146.4 124.457 146.837 124.142 147.338 123.918C147.85 123.683 148.405 123.565 149.002 123.565C149.599 123.564 150.149 123.681 150.65 123.916C151.152 124.14 151.589 124.454 151.963 124.859C152.336 125.254 152.625 125.712 152.828 126.235C153.031 126.746 153.132 127.301 153.133 127.898C153.133 128.474 153.032 129.024 152.83 129.547C152.627 130.059 152.339 130.518 151.966 130.923C151.604 131.318 151.167 131.633 150.655 131.868C150.154 132.092 149.599 132.204 148.991 132.205ZM145.965 127.919C145.965 128.537 146.099 129.102 146.366 129.614C146.643 130.115 147.011 130.515 147.47 130.814C147.929 131.101 148.436 131.245 148.991 131.245C149.545 131.244 150.052 131.095 150.51 130.796C150.969 130.497 151.337 130.091 151.614 129.579C151.891 129.056 152.029 128.491 152.029 127.883C152.028 127.264 151.889 126.699 151.612 126.187C151.334 125.675 150.966 125.27 150.507 124.972C150.048 124.674 149.541 124.524 148.987 124.525C148.432 124.525 147.925 124.68 147.467 124.99C147.019 125.299 146.657 125.71 146.38 126.222C146.103 126.724 145.964 127.289 145.965 127.919ZM155.214 132.041L155.21 124.569L154.058 124.57L154.057 123.706L155.209 123.705L155.209 123.481C155.209 122.799 155.304 122.212 155.496 121.721C155.698 121.23 155.981 120.857 156.343 120.601C156.717 120.334 157.154 120.2 157.655 120.2C157.986 120.2 158.306 120.247 158.615 120.343C158.925 120.439 159.191 120.567 159.415 120.727L159.08 121.511C158.941 121.394 158.76 121.303 158.536 121.239C158.312 121.175 158.088 121.144 157.864 121.144C157.362 121.144 156.973 121.341 156.696 121.736C156.43 122.131 156.297 122.702 156.297 123.449L156.297 123.705L158.601 123.703L158.602 124.567L156.298 124.569L156.302 132.041L155.214 132.041Z" fill="#5F6380"/>
<path d="M93.9545 145.308C93.8051 145.159 93.5277 144.956 93.1222 144.701C92.738 144.445 92.2579 144.2 91.6818 143.965C91.127 143.731 90.5188 143.529 89.8574 143.358C89.196 143.167 88.5239 143.071 87.8412 143.072C86.6466 143.072 85.74 143.297 85.1216 143.745C84.5246 144.194 84.2263 144.823 84.2267 145.634C84.2271 146.252 84.4194 146.743 84.8036 147.105C85.1878 147.468 85.764 147.777 86.5321 148.032C87.3003 148.288 88.2604 148.565 89.4126 148.863C90.9061 149.224 92.1971 149.672 93.2854 150.204C94.395 150.716 95.2381 151.398 95.8146 152.251C96.4124 153.083 96.7117 154.192 96.7125 155.578C96.7132 156.794 96.4898 157.84 96.0423 158.715C95.5948 159.568 94.9765 160.262 94.1875 160.796C93.3985 161.33 92.5027 161.725 91.5002 161.981C90.4977 162.217 89.4311 162.335 88.3004 162.335C87.1697 162.336 86.039 162.219 84.9082 161.985C83.7774 161.751 82.6892 161.421 81.6436 160.995C80.598 160.548 79.6377 160.015 78.7627 159.397L80.7125 155.588C80.9046 155.78 81.2461 156.035 81.7369 156.355C82.2278 156.654 82.8253 156.963 83.5295 157.282C84.2337 157.58 85.0018 157.836 85.8339 158.049C86.666 158.262 87.5088 158.368 88.3621 158.367C89.5568 158.367 90.4633 158.163 91.0818 157.758C91.7002 157.352 92.0092 156.776 92.0088 156.029C92.0084 155.347 91.7627 154.813 91.2718 154.43C90.7809 154.046 90.0981 153.716 89.2233 153.439C88.3484 153.141 87.3136 152.821 86.1187 152.481C84.6891 152.076 83.4942 151.629 82.5339 151.139C81.5736 150.627 80.8586 149.988 80.3888 149.22C79.919 148.452 79.6838 147.492 79.6831 146.34C79.6822 144.783 80.0442 143.481 80.7689 142.436C81.5149 141.369 82.5171 140.568 83.7755 140.034C85.0338 139.479 86.431 139.2 87.967 139.2C89.0337 139.199 90.0364 139.316 90.9752 139.55C91.9353 139.784 92.8315 140.093 93.6637 140.476C94.496 140.86 95.2429 141.275 95.9045 141.723L93.9545 145.308ZM109.31 161.203C108.947 161.353 108.51 161.524 107.998 161.716C107.486 161.908 106.932 162.058 106.334 162.165C105.758 162.293 105.172 162.358 104.574 162.358C103.785 162.358 103.06 162.22 102.398 161.943C101.737 161.666 101.203 161.229 100.797 160.632C100.413 160.014 100.221 159.214 100.22 158.232L100.214 148.6L98.0065 148.602L98.0045 145.306L100.213 145.304L100.209 139.864L104.497 139.862L104.501 145.302L108.021 145.3L108.022 148.596L104.502 148.598L104.507 156.79C104.529 157.366 104.689 157.782 104.988 158.038C105.287 158.293 105.66 158.421 106.108 158.421C106.556 158.421 106.993 158.346 107.42 158.196C107.847 158.047 108.188 157.918 108.444 157.812L109.31 161.203ZM111.38 155.794L111.374 145.298L115.662 145.295L115.667 154.863C115.668 156.143 115.903 157.114 116.373 157.775C116.843 158.415 117.536 158.734 118.454 158.734C119.008 158.734 119.552 158.627 120.085 158.413C120.64 158.178 121.141 157.836 121.589 157.388C122.058 156.94 122.452 156.374 122.772 155.691L122.766 145.291L127.054 145.289L127.061 157.257C127.061 157.705 127.136 158.025 127.285 158.217C127.456 158.409 127.723 158.526 128.085 158.568L128.088 162.056C127.661 162.121 127.298 162.163 127 162.185C126.722 162.228 126.466 162.249 126.232 162.249C125.464 162.25 124.834 162.08 124.343 161.738C123.874 161.376 123.596 160.886 123.51 160.267L123.414 158.923C122.668 160.054 121.708 160.919 120.535 161.517C119.362 162.093 118.072 162.382 116.664 162.383C114.936 162.384 113.623 161.83 112.727 160.721C111.83 159.591 111.381 157.949 111.38 155.794ZM130.296 153.671C130.295 152.05 130.614 150.588 131.253 149.286C131.893 147.963 132.777 146.918 133.908 146.149C135.038 145.38 136.328 144.996 137.779 144.995C139.016 144.994 140.126 145.303 141.107 145.921C142.11 146.517 142.89 147.285 143.445 148.223L143.439 138.687L147.727 138.685L147.738 157.245C147.738 157.693 147.813 158.013 147.963 158.205C148.112 158.397 148.368 158.514 148.731 158.556L148.733 162.044C147.986 162.194 147.378 162.269 146.909 162.269C146.141 162.27 145.501 162.078 144.989 161.694C144.498 161.311 144.22 160.81 144.156 160.191L144.091 159.135C143.473 160.181 142.631 160.981 141.564 161.536C140.519 162.092 139.421 162.37 138.269 162.37C137.117 162.371 136.05 162.148 135.069 161.7C134.108 161.253 133.265 160.635 132.539 159.846C131.835 159.057 131.28 158.14 130.874 157.095C130.489 156.028 130.297 154.887 130.296 153.671ZM143.449 155.903L143.447 151.903C143.233 151.285 142.892 150.73 142.422 150.24C141.952 149.75 141.429 149.366 140.853 149.089C140.277 148.791 139.701 148.642 139.125 148.642C138.464 148.642 137.866 148.781 137.333 149.059C136.8 149.337 136.331 149.71 135.926 150.18C135.542 150.649 135.244 151.193 135.031 151.812C134.839 152.431 134.744 153.082 134.744 153.764C134.744 154.447 134.851 155.098 135.065 155.716C135.3 156.313 135.631 156.836 136.058 157.284C136.485 157.731 136.976 158.083 137.531 158.339C138.107 158.594 138.725 158.722 139.387 158.722C139.792 158.722 140.197 158.657 140.603 158.529C141.029 158.379 141.424 158.187 141.786 157.952C142.17 157.696 142.501 157.397 142.778 157.056C143.076 156.693 143.3 156.309 143.449 155.903ZM152.241 165.306C152.625 165.391 152.977 165.466 153.297 165.53C153.639 165.593 153.927 165.625 154.161 165.625C154.567 165.625 154.897 165.518 155.153 165.305C155.43 165.112 155.697 164.75 155.953 164.216C156.208 163.704 156.474 162.979 156.751 162.04L150.118 145.276L154.566 145.273L159.085 157.654L163.046 145.268L167.142 145.266L160.113 165.366C159.858 166.113 159.463 166.785 158.93 167.382C158.419 168.001 157.768 168.482 156.979 168.824C156.211 169.187 155.347 169.368 154.387 169.369C154.046 169.369 153.705 169.337 153.363 169.274C153.022 169.231 152.649 169.146 152.243 169.018L152.241 165.306Z" fill="#5F6380"/>
<path d="M101 56H145V86C145 86.5304 144.789 87.0391 144.414 87.4142C144.039 87.7893 143.53 88 143 88H133C132.47 88 131.961 87.7893 131.586 87.4142C131.211 87.0391 131 86.5304 131 86V80H115V94C115 94.5304 114.789 95.0391 114.414 95.4142C114.039 95.7893 113.53 96 113 96H103C102.47 96 101.961 95.7893 101.586 95.4142C101.211 95.0391 101 94.5304 101 94V56Z" stroke="#5F6380" stroke-linecap="round" stroke-linejoin="round"/>
<path d="M115 72H101" stroke="#5F6380" stroke-linecap="round" stroke-linejoin="round"/>
<path d="M115 56V80" stroke="#5F6380" stroke-linecap="round" stroke-linejoin="round"/>
<path d="M131 72H145" stroke="#5F6380" stroke-linecap="round" stroke-linejoin="round"/>
<path d="M131 56V80" stroke="#5F6380" stroke-linecap="round" stroke-linejoin="round"/>
<g filter="url(#filter0_d_28_585)">
<circle cx="123" cy="76" r="20" fill="#5F6380" fill-opacity="0.2" shape-rendering="crispEdges"/>
</g>
<defs>
<filter id="filter0_d_28_585" x="99" y="56" width="48" height="48" filterUnits="userSpaceOnUse" color-interpolation-filters="sRGB">
<feFlood flood-opacity="0" result="BackgroundImageFix"/>
<feColorMatrix in="SourceAlpha" type="matrix" values="0 0 0 0 0 0 0 0 0 0 0 0 0 0 0 0 0 0 127 0" result="hardAlpha"/>
<feOffset dy="4"/>
<feGaussianBlur stdDeviation="2"/>
<feComposite in2="hardAlpha" operator="out"/>
<feColorMatrix type="matrix" values="0 0 0 0 0 0 0 0 0 0 0 0 0 0 0 0 0 0 0.25 0"/>
<feBlend mode="normal" in2="BackgroundImageFix" result="effect1_dropShadow_28_585"/>
<feBlend mode="normal" in="SourceGraphic" in2="effect1_dropShadow_28_585" result="shape"/>
</filter>
</defs>
</svg>
