<svg width="32" height="32" viewBox="0 0 32 32" fill="none" xmlns="http://www.w3.org/2000/svg">
<path d="M16 21.3334C17.4145 21.3334 18.771 20.7715 19.7712 19.7713C20.7714 18.7711 21.3333 17.4146 21.3333 16.0001C21.3333 14.5856 20.7714 13.229 19.7712 12.2288C18.771 11.2287 17.4145 10.6667 16 10.6667V21.3334Z" fill="#5F6380"/>
<path fill-rule="evenodd" clip-rule="evenodd" d="M16 2.66675C8.63596 2.66675 2.66663 8.63608 2.66663 16.0001C2.66663 23.3641 8.63596 29.3334 16 29.3334C23.364 29.3334 29.3333 23.3641 29.3333 16.0001C29.3333 8.63608 23.364 2.66675 16 2.66675ZM16 5.33341V10.6667C14.5855 10.6667 13.2289 11.2287 12.2287 12.2288C11.2285 13.229 10.6666 14.5856 10.6666 16.0001C10.6666 17.4146 11.2285 18.7711 12.2287 19.7713C13.2289 20.7715 14.5855 21.3334 16 21.3334V26.6667C18.8289 26.6667 21.542 25.5429 23.5424 23.5426C25.5428 21.5422 26.6666 18.8291 26.6666 16.0001C26.6666 13.1711 25.5428 10.458 23.5424 8.45761C21.542 6.45722 18.8289 5.33341 16 5.33341Z" fill="#5F6380"/>
</svg>
