<svg width="246" height="200" viewBox="0 0 246 200" fill="none" xmlns="http://www.w3.org/2000/svg">
<rect width="246" height="200" rx="16" fill="#5F6380" fill-opacity="0.1"/>
<path d="M53.4994 123.108L53.4999 124.1L45.8679 124.105L45.8614 112.745L53.3494 112.74L53.3499 113.732L46.9819 113.736L46.9843 117.832L52.5363 117.829L52.5369 118.773L46.9849 118.776L46.9874 123.112L53.4994 123.108ZM62.3238 124.095L61.2358 124.096L61.2331 119.44C61.2325 118.459 61.0881 117.744 60.7999 117.296C60.5116 116.838 60.0581 116.609 59.4395 116.609C59.0128 116.609 58.5915 116.716 58.1757 116.93C57.7598 117.133 57.3919 117.415 57.0722 117.778C56.763 118.13 56.5393 118.536 56.4009 118.995L56.4038 124.099L55.3158 124.099L55.311 115.763L56.303 115.763L56.3041 117.651C56.5278 117.245 56.821 116.893 57.1835 116.594C57.546 116.285 57.9565 116.044 58.415 115.873C58.8736 115.703 59.3482 115.617 59.8389 115.617C60.2976 115.616 60.687 115.701 61.007 115.872C61.3271 116.042 61.5833 116.288 61.7755 116.608C61.9677 116.917 62.1065 117.295 62.1921 117.743C62.2777 118.181 62.3207 118.671 62.321 119.215L62.3238 124.095ZM67.38 124.252C66.6974 124.253 66.0626 124.141 65.4758 123.917C64.889 123.694 64.3822 123.353 63.9552 122.894L64.4028 122.126C64.8724 122.563 65.3419 122.883 65.8114 123.085C66.2915 123.277 66.7982 123.373 67.3315 123.372C67.9822 123.372 68.5101 123.244 68.9153 122.987C69.3205 122.72 69.5229 122.342 69.5226 121.851C69.5224 121.52 69.421 121.27 69.2182 121.099C69.0261 120.918 68.7433 120.774 68.37 120.668C68.0072 120.551 67.5698 120.428 67.0577 120.3C66.4816 120.141 65.9962 119.976 65.6015 119.805C65.2173 119.624 64.9239 119.4 64.7211 119.134C64.5289 118.857 64.4327 118.499 64.4324 118.062C64.4321 117.518 64.5652 117.07 64.8317 116.718C65.1088 116.355 65.482 116.083 65.9512 115.901C66.4311 115.709 66.9644 115.613 67.551 115.612C68.191 115.612 68.7564 115.713 69.2472 115.915C69.738 116.118 70.1381 116.4 70.4477 116.762L69.9201 117.499C69.6213 117.158 69.2638 116.907 68.8477 116.747C68.4423 116.577 67.9889 116.492 67.4875 116.492C67.1462 116.492 66.8209 116.541 66.5116 116.637C66.2023 116.722 65.9464 116.872 65.7439 117.085C65.552 117.288 65.4562 117.571 65.4564 117.933C65.4565 118.232 65.5313 118.467 65.6808 118.637C65.8302 118.797 66.0543 118.936 66.353 119.053C66.6517 119.159 67.0198 119.276 67.4572 119.404C68.0867 119.575 68.6361 119.75 69.1055 119.931C69.575 120.102 69.9378 120.325 70.1939 120.603C70.4501 120.88 70.5783 121.269 70.5786 121.77C70.579 122.549 70.2861 123.157 69.6996 123.595C69.1132 124.033 68.34 124.252 67.38 124.252ZM72.3783 124.089L72.3735 115.753L73.4615 115.753L73.4663 124.089L72.3783 124.089ZM72.3725 114.009L72.3715 112.409L73.4595 112.409L73.4605 114.009L72.3725 114.009ZM82.8707 124.083L81.7827 124.084L81.78 119.428C81.7794 118.447 81.635 117.732 81.3467 117.284C81.0585 116.826 80.605 116.597 79.9863 116.597C79.5597 116.597 79.1384 116.704 78.7225 116.918C78.3066 117.121 77.9388 117.403 77.619 117.766C77.3099 118.119 77.0861 118.524 76.9477 118.983L76.9507 124.087L75.8627 124.087L75.8579 115.751L76.8499 115.751L76.8509 117.639C77.0747 117.233 77.3678 116.881 77.7303 116.582C78.0928 116.273 78.5034 116.032 78.9619 115.862C79.4205 115.691 79.8951 115.605 80.3858 115.605C80.8444 115.604 81.2338 115.69 81.5539 115.86C81.874 116.031 82.1302 116.276 82.3223 116.596C82.5145 116.905 82.6534 117.283 82.739 117.731C82.8246 118.169 82.8675 118.659 82.8679 119.203L82.8707 124.083ZM88.7429 124.24C88.1456 124.24 87.5908 124.129 87.0787 123.905C86.5772 123.67 86.1397 123.356 85.7662 122.962C85.4033 122.556 85.1203 122.098 84.9174 121.586C84.7144 121.064 84.6127 120.514 84.6124 119.938C84.6121 119.341 84.7131 118.786 84.9154 118.274C85.1178 117.751 85.4055 117.292 85.7786 116.898C86.1517 116.492 86.5889 116.177 87.0901 115.953C87.602 115.718 88.1566 115.6 88.7539 115.6C89.3512 115.6 89.9006 115.717 90.4021 115.951C90.9036 116.175 91.3411 116.489 91.7146 116.894C92.0882 117.289 92.3765 117.747 92.5794 118.27C92.7824 118.782 92.8841 119.336 92.8844 119.933C92.8847 120.509 92.7837 121.059 92.5814 121.582C92.379 122.094 92.0913 122.553 91.7182 122.958C91.3557 123.353 90.9186 123.668 90.4067 123.903C89.9055 124.127 89.3509 124.24 88.7429 124.24ZM85.7164 119.954C85.7168 120.572 85.8504 121.138 86.1174 121.649C86.395 122.151 86.7633 122.55 87.2221 122.849C87.6809 123.137 88.1877 123.28 88.7423 123.28C89.297 123.28 89.8036 123.13 90.2621 122.831C90.7206 122.532 91.0883 122.127 91.3654 121.614C91.6424 121.092 91.7808 120.526 91.7804 119.918C91.78 119.299 91.641 118.734 91.3634 118.222C91.0858 117.711 90.7176 117.305 90.2587 117.007C89.7999 116.709 89.2931 116.56 88.7385 116.56C88.1838 116.56 87.6772 116.715 87.2187 117.025C86.7709 117.334 86.4085 117.745 86.1314 118.257C85.8544 118.759 85.7161 119.324 85.7164 119.954ZM111.185 124.067L110.097 124.068L110.094 119.412C110.093 118.441 109.938 117.726 109.629 117.268C109.319 116.809 108.86 116.58 108.252 116.581C107.623 116.581 107.058 116.805 106.557 117.254C106.066 117.702 105.72 118.278 105.518 118.982L105.521 124.07L104.433 124.071L104.43 119.415C104.429 118.433 104.28 117.719 103.981 117.271C103.682 116.813 103.223 116.584 102.604 116.584C101.986 116.584 101.426 116.803 100.925 117.241C100.424 117.678 100.072 118.255 99.8696 118.969L99.8726 124.073L98.7846 124.074L98.7797 115.738L99.7717 115.738L99.7728 117.626C100.124 116.975 100.572 116.473 101.116 116.121C101.67 115.768 102.284 115.592 102.956 115.592C103.649 115.591 104.209 115.788 104.636 116.183C105.063 116.577 105.325 117.094 105.421 117.734C105.804 117.03 106.263 116.496 106.796 116.133C107.34 115.77 107.953 115.589 108.636 115.588C109.105 115.588 109.5 115.673 109.82 115.844C110.151 116.014 110.412 116.259 110.604 116.579C110.807 116.888 110.951 117.267 111.037 117.715C111.133 118.152 111.181 118.643 111.182 119.187L111.185 124.067ZM117.088 124.223C116.49 124.224 115.936 124.112 115.424 123.888C114.911 123.654 114.469 123.34 114.095 122.945C113.721 122.54 113.428 122.076 113.214 121.554C113.011 121.031 112.91 120.471 112.909 119.874C112.909 119.095 113.084 118.38 113.436 117.73C113.798 117.079 114.294 116.561 114.923 116.177C115.552 115.782 116.267 115.584 117.067 115.583C117.888 115.583 118.603 115.78 119.211 116.174C119.83 116.569 120.316 117.091 120.668 117.741C121.02 118.381 121.197 119.085 121.197 119.853C121.197 119.938 121.197 120.024 121.197 120.109C121.197 120.184 121.192 120.242 121.181 120.285L114.045 120.289C114.099 120.887 114.265 121.42 114.542 121.889C114.831 122.347 115.199 122.715 115.647 122.992C116.106 123.259 116.602 123.392 117.135 123.391C117.679 123.391 118.191 123.252 118.671 122.975C119.162 122.697 119.503 122.334 119.694 121.886L120.639 122.141C120.468 122.536 120.207 122.894 119.855 123.214C119.503 123.534 119.088 123.785 118.608 123.967C118.138 124.138 117.632 124.223 117.088 124.223ZM114.013 119.505L120.173 119.502C120.13 118.894 119.964 118.36 119.676 117.902C119.399 117.443 119.03 117.086 118.571 116.831C118.123 116.564 117.627 116.431 117.083 116.431C116.539 116.432 116.043 116.565 115.595 116.832C115.148 117.089 114.78 117.451 114.492 117.921C114.215 118.38 114.055 118.908 114.013 119.505ZM117.402 114.143L116.682 113.872L117.625 112.383L118.777 112.382L117.402 114.143ZM122.316 119.916C122.315 119.127 122.475 118.407 122.795 117.756C123.125 117.095 123.578 116.566 124.154 116.171C124.73 115.776 125.385 115.579 126.121 115.578C126.815 115.578 127.433 115.764 127.978 116.137C128.533 116.5 128.965 116.942 129.274 117.464L129.272 112.376L130.36 112.376L130.366 122.744C130.366 122.893 130.398 123.005 130.462 123.08C130.526 123.144 130.622 123.181 130.75 123.192L130.75 124.056C130.537 124.088 130.372 124.098 130.254 124.088C130.03 124.077 129.833 123.987 129.662 123.816C129.491 123.646 129.406 123.459 129.406 123.256L129.405 122.44C129.075 122.985 128.627 123.417 128.062 123.737C127.497 124.057 126.91 124.218 126.302 124.218C125.726 124.218 125.193 124.101 124.702 123.867C124.222 123.633 123.801 123.313 123.438 122.908C123.085 122.503 122.808 122.044 122.605 121.532C122.413 121.01 122.316 120.471 122.316 119.916ZM129.277 121.192L129.275 118.616C129.136 118.232 128.912 117.886 128.603 117.577C128.293 117.257 127.941 117.007 127.546 116.825C127.162 116.634 126.778 116.538 126.394 116.538C125.946 116.538 125.541 116.635 125.178 116.827C124.816 117.008 124.501 117.259 124.235 117.579C123.979 117.899 123.782 118.262 123.643 118.668C123.505 119.073 123.436 119.489 123.436 119.916C123.436 120.364 123.511 120.79 123.661 121.196C123.821 121.601 124.045 121.963 124.333 122.283C124.621 122.592 124.952 122.832 125.326 123.003C125.699 123.173 126.105 123.258 126.542 123.258C126.819 123.258 127.107 123.204 127.406 123.098C127.704 122.991 127.987 122.846 128.253 122.665C128.531 122.473 128.76 122.249 128.941 121.993C129.122 121.737 129.234 121.47 129.277 121.192ZM132.831 124.054L132.827 115.718L133.915 115.718L133.919 124.054L132.831 124.054ZM132.826 113.974L132.825 112.374L133.913 112.374L133.914 113.974L132.826 113.974ZM139.868 124.21C139.271 124.211 138.716 124.099 138.204 123.875C137.702 123.641 137.265 123.326 136.891 122.932C136.528 122.527 136.245 122.068 136.042 121.556C135.839 121.034 135.738 120.485 135.737 119.909C135.737 119.311 135.838 118.757 136.04 118.244C136.243 117.722 136.531 117.263 136.904 116.868C137.277 116.462 137.714 116.148 138.215 115.923C138.727 115.688 139.282 115.571 139.879 115.57C140.476 115.57 141.026 115.687 141.527 115.921C142.029 116.145 142.466 116.459 142.84 116.865C143.213 117.259 143.501 117.718 143.704 118.24C143.907 118.752 144.009 119.307 144.009 119.904C144.01 120.48 143.909 121.029 143.706 121.552C143.504 122.064 143.216 122.523 142.843 122.929C142.481 123.323 142.044 123.638 141.532 123.873C141.03 124.098 140.476 124.21 139.868 124.21ZM136.841 119.924C136.842 120.543 136.975 121.108 137.242 121.62C137.52 122.121 137.888 122.521 138.347 122.819C138.806 123.107 139.313 123.251 139.867 123.25C140.422 123.25 140.929 123.1 141.387 122.801C141.846 122.502 142.213 122.097 142.49 121.585C142.767 121.062 142.906 120.497 142.905 119.889C142.905 119.27 142.766 118.705 142.488 118.193C142.211 117.681 141.843 117.276 141.384 116.977C140.925 116.679 140.418 116.53 139.863 116.53C139.309 116.531 138.802 116.686 138.344 116.995C137.896 117.305 137.533 117.716 137.256 118.228C136.979 118.729 136.841 119.295 136.841 119.924ZM153.909 123.642C153.824 123.674 153.691 123.733 153.509 123.818C153.328 123.904 153.11 123.979 152.854 124.043C152.598 124.107 152.32 124.139 152.022 124.139C151.712 124.139 151.419 124.081 151.142 123.964C150.875 123.847 150.661 123.671 150.501 123.436C150.341 123.191 150.261 122.892 150.261 122.54L150.257 116.572L149.105 116.573L149.105 115.709L150.257 115.708L150.255 112.892L151.343 112.892L151.345 115.708L153.265 115.707L153.265 116.571L151.345 116.572L151.348 122.236C151.37 122.534 151.477 122.758 151.669 122.907C151.872 123.057 152.101 123.131 152.357 123.131C152.656 123.131 152.928 123.083 153.173 122.987C153.418 122.88 153.567 122.805 153.621 122.762L153.909 123.642ZM158.728 124.199C158.131 124.2 157.576 124.088 157.064 123.864C156.552 123.63 156.109 123.316 155.736 122.921C155.362 122.516 155.068 122.052 154.855 121.53C154.652 121.007 154.55 120.447 154.55 119.85C154.549 119.071 154.725 118.356 155.077 117.705C155.439 117.055 155.935 116.537 156.564 116.153C157.193 115.758 157.907 115.56 158.707 115.559C159.529 115.559 160.243 115.756 160.852 116.15C161.471 116.544 161.956 117.067 162.309 117.717C162.661 118.357 162.837 119.061 162.838 119.829C162.838 119.914 162.838 120 162.838 120.085C162.838 120.16 162.833 120.218 162.822 120.261L155.686 120.265C155.74 120.862 155.905 121.396 156.183 121.865C156.471 122.323 156.84 122.691 157.288 122.968C157.746 123.235 158.243 123.368 158.776 123.367C159.32 123.367 159.832 123.228 160.312 122.95C160.802 122.673 161.143 122.31 161.335 121.862L162.279 122.117C162.109 122.512 161.848 122.87 161.496 123.19C161.144 123.51 160.728 123.761 160.248 123.942C159.779 124.113 159.272 124.199 158.728 124.199ZM155.654 119.481L161.814 119.478C161.771 118.87 161.605 118.336 161.317 117.878C161.039 117.419 160.671 117.062 160.212 116.806C159.764 116.54 159.268 116.407 158.724 116.407C158.18 116.408 157.684 116.541 157.236 116.808C156.788 117.064 156.42 117.427 156.133 117.897C155.856 118.356 155.696 118.884 155.654 119.481ZM159.043 114.119L158.322 113.848L159.266 112.359L160.418 112.358L159.043 114.119ZM168.135 124.194C167.527 124.194 166.967 124.083 166.455 123.859C165.953 123.625 165.51 123.305 165.126 122.9C164.753 122.495 164.459 122.031 164.245 121.508C164.042 120.986 163.941 120.431 163.94 119.844C163.94 119.055 164.116 118.335 164.467 117.684C164.819 117.033 165.309 116.516 165.938 116.131C166.567 115.747 167.293 115.554 168.114 115.554C168.893 115.553 169.581 115.734 170.178 116.097C170.776 116.448 171.219 116.928 171.507 117.536L170.451 117.873C170.216 117.446 169.886 117.116 169.459 116.881C169.043 116.636 168.579 116.514 168.067 116.514C167.512 116.514 167.005 116.659 166.547 116.947C166.088 117.235 165.721 117.63 165.443 118.131C165.177 118.633 165.044 119.204 165.044 119.844C165.045 120.473 165.184 121.044 165.461 121.555C165.739 122.067 166.107 122.478 166.566 122.787C167.025 123.085 167.532 123.234 168.086 123.234C168.449 123.234 168.796 123.17 169.126 123.041C169.468 122.913 169.761 122.742 170.006 122.529C170.262 122.305 170.432 122.065 170.518 121.809L171.59 122.128C171.441 122.523 171.19 122.88 170.838 123.2C170.497 123.51 170.092 123.755 169.623 123.937C169.164 124.108 168.668 124.194 168.135 124.194ZM180.308 124.027L179.22 124.027L179.217 119.371C179.217 118.39 179.072 117.676 178.784 117.228C178.496 116.769 178.042 116.54 177.424 116.541C176.997 116.541 176.576 116.648 176.16 116.861C175.744 117.064 175.376 117.347 175.057 117.71C174.747 118.062 174.524 118.468 174.385 118.926L174.388 124.03L173.3 124.031L173.295 115.695L174.287 115.694L174.288 117.582C174.512 117.177 174.805 116.825 175.168 116.526C175.53 116.216 175.941 115.976 176.399 115.805C176.858 115.634 177.333 115.549 177.823 115.548C178.282 115.548 178.671 115.633 178.991 115.804C179.312 115.974 179.568 116.219 179.76 116.539C179.952 116.848 180.091 117.227 180.176 117.675C180.262 118.112 180.305 118.603 180.305 119.147L180.308 124.027ZM182.628 124.026L182.623 115.69L183.711 115.689L183.716 124.025L182.628 124.026ZM182.622 113.946L182.622 112.346L183.71 112.345L183.71 113.945L182.622 113.946ZM189.729 124.181C189.121 124.182 188.561 124.07 188.049 123.846C187.547 123.612 187.104 123.292 186.72 122.887C186.346 122.482 186.053 122.018 185.839 121.496C185.636 120.973 185.535 120.418 185.534 119.832C185.534 119.042 185.709 118.322 186.061 117.672C186.413 117.021 186.903 116.503 187.532 116.119C188.161 115.734 188.886 115.542 189.708 115.541C190.486 115.541 191.175 115.722 191.772 116.084C192.37 116.436 192.813 116.916 193.101 117.523L192.045 117.86C191.81 117.434 191.479 117.103 191.053 116.869C190.636 116.624 190.172 116.501 189.66 116.501C189.106 116.502 188.599 116.646 188.141 116.934C187.682 117.223 187.314 117.617 187.037 118.119C186.771 118.62 186.638 119.191 186.638 119.831C186.639 120.461 186.778 121.031 187.055 121.543C187.333 122.055 187.701 122.465 188.16 122.774C188.619 123.073 189.126 123.222 189.68 123.221C190.043 123.221 190.389 123.157 190.72 123.029C191.061 122.901 191.355 122.73 191.6 122.516C191.856 122.292 192.026 122.052 192.111 121.796L193.184 122.115C193.034 122.51 192.784 122.868 192.432 123.188C192.091 123.497 191.686 123.743 191.217 123.925C190.758 124.095 190.262 124.181 189.729 124.181ZM198.368 124.176C197.771 124.177 197.216 124.065 196.704 123.841C196.202 123.607 195.765 123.293 195.391 122.898C195.028 122.493 194.745 122.034 194.542 121.523C194.339 121 194.238 120.451 194.237 119.875C194.237 119.277 194.338 118.723 194.54 118.211C194.743 117.688 195.031 117.229 195.404 116.834C195.777 116.429 196.214 116.114 196.715 115.889C197.227 115.654 197.782 115.537 198.379 115.536C198.976 115.536 199.526 115.653 200.027 115.887C200.529 116.111 200.966 116.426 201.34 116.831C201.713 117.225 202.001 117.684 202.204 118.206C202.407 118.718 202.509 119.273 202.509 119.87C202.51 120.446 202.409 120.995 202.206 121.518C202.004 122.03 201.716 122.489 201.343 122.895C200.981 123.29 200.544 123.604 200.032 123.839C199.53 124.064 198.976 124.176 198.368 124.176ZM195.341 119.89C195.342 120.509 195.475 121.074 195.742 121.586C196.02 122.087 196.388 122.487 196.847 122.785C197.306 123.073 197.813 123.217 198.367 123.216C198.922 123.216 199.429 123.066 199.887 122.768C200.346 122.469 200.713 122.063 200.99 121.551C201.267 121.028 201.406 120.463 201.405 119.855C201.405 119.236 201.266 118.671 200.988 118.159C200.711 117.647 200.343 117.242 199.884 116.944C199.425 116.645 198.918 116.496 198.363 116.496C197.809 116.497 197.302 116.652 196.844 116.961C196.396 117.271 196.033 117.682 195.756 118.194C195.479 118.695 195.341 119.261 195.341 119.89Z" fill="#5F6380"/>
<path d="M70.9592 152.09L70.9494 135.05L78.4854 135.045C79.2694 135.045 79.9894 135.204 80.6456 135.524C81.3178 135.844 81.8941 136.275 82.3744 136.819C82.8707 137.363 83.247 137.97 83.5034 138.642C83.7758 139.314 83.9122 140.002 83.9126 140.706C83.9131 141.426 83.7855 142.122 83.5298 142.794C83.2902 143.45 82.9386 144.027 82.4748 144.523C82.0111 145.019 81.4674 145.404 80.8435 145.676L84.7352 152.082L81.0872 152.084L77.5799 146.374L74.2679 146.376L74.2712 152.088L70.9592 152.09ZM74.2662 143.472L78.4182 143.469C78.8342 143.469 79.2022 143.349 79.522 143.109C79.8419 142.852 80.0977 142.516 80.2894 142.1C80.4812 141.684 80.5769 141.22 80.5766 140.708C80.5763 140.164 80.464 139.692 80.2398 139.292C80.0156 138.876 79.7274 138.549 79.3752 138.309C79.0391 138.069 78.671 137.949 78.271 137.949L74.263 137.952L74.2662 143.472ZM92.0184 152.317C91.0104 152.318 90.0983 152.151 89.2821 151.815C88.4659 151.463 87.7697 150.992 87.1933 150.4C86.617 149.793 86.1686 149.105 85.8481 148.337C85.5437 147.553 85.3912 146.729 85.3907 145.865C85.39 144.665 85.6534 143.569 86.1808 142.577C86.7242 141.584 87.4917 140.792 88.4834 140.199C89.4911 139.591 90.6749 139.286 92.0349 139.285C93.4109 139.285 94.5871 139.588 95.5634 140.195C96.5397 140.787 97.2842 141.578 97.7968 142.57C98.3253 143.546 98.59 144.602 98.5906 145.738C98.5907 145.93 98.5828 146.13 98.567 146.338C98.5511 146.53 98.5352 146.69 98.5192 146.818L88.7992 146.823C88.8636 147.463 89.0479 148.023 89.3522 148.503C89.6725 148.983 90.0727 149.351 90.5529 149.606C91.049 149.846 91.5771 149.966 92.1371 149.965C92.7771 149.965 93.377 149.813 93.9368 149.508C94.5126 149.188 94.9044 148.772 95.1121 148.26L97.8725 149.026C97.5689 149.666 97.1292 150.234 96.5535 150.731C95.9938 151.227 95.33 151.62 94.5622 151.908C93.7943 152.18 92.9464 152.317 92.0184 152.317ZM88.7261 144.783L95.3021 144.78C95.2377 144.14 95.0534 143.588 94.7491 143.124C94.4608 142.644 94.0766 142.276 93.5965 142.021C93.1163 141.749 92.5802 141.613 91.9882 141.613C91.4122 141.614 90.8843 141.75 90.4045 142.022C89.9406 142.279 89.5568 142.647 89.2531 143.127C88.9654 143.591 88.7897 144.143 88.7261 144.783ZM99.7818 145.785C99.7811 144.569 100.02 143.473 100.5 142.497C100.979 141.504 101.643 140.72 102.491 140.143C103.338 139.567 104.306 139.278 105.394 139.278C106.322 139.277 107.154 139.509 107.89 139.972C108.643 140.42 109.227 140.995 109.643 141.699L109.639 134.547L112.855 134.545L112.863 148.465C112.864 148.801 112.92 149.041 113.032 149.185C113.144 149.329 113.336 149.417 113.608 149.449L113.609 152.065C113.05 152.177 112.594 152.234 112.242 152.234C111.666 152.234 111.185 152.09 110.801 151.803C110.433 151.515 110.225 151.139 110.177 150.675L110.128 149.883C109.665 150.667 109.033 151.268 108.233 151.684C107.449 152.1 106.626 152.309 105.762 152.309C104.898 152.31 104.098 152.142 103.361 151.807C102.641 151.471 102.009 151.008 101.465 150.416C100.936 149.824 100.52 149.136 100.215 148.353C99.9269 147.553 99.7824 146.697 99.7818 145.785ZM109.647 147.459L109.645 144.459C109.485 143.995 109.229 143.579 108.876 143.212C108.524 142.844 108.132 142.556 107.7 142.348C107.268 142.125 106.836 142.013 106.404 142.013C105.908 142.013 105.46 142.118 105.06 142.326C104.66 142.534 104.308 142.814 104.004 143.166C103.717 143.519 103.493 143.927 103.333 144.391C103.189 144.855 103.118 145.343 103.118 145.855C103.118 146.367 103.198 146.855 103.359 147.319C103.535 147.767 103.783 148.159 104.103 148.494C104.424 148.83 104.792 149.094 105.208 149.286C105.64 149.478 106.104 149.573 106.6 149.573C106.904 149.573 107.208 149.525 107.512 149.428C107.832 149.316 108.128 149.172 108.4 148.996C108.688 148.804 108.935 148.58 109.143 148.323C109.367 148.051 109.535 147.763 109.647 147.459ZM121.854 152.3C120.846 152.301 119.934 152.133 119.118 151.798C118.302 151.446 117.606 150.975 117.029 150.383C116.453 149.775 116.004 149.088 115.684 148.32C115.38 147.536 115.227 146.712 115.227 145.848C115.226 144.648 115.489 143.552 116.017 142.56C116.56 141.567 117.328 140.775 118.319 140.182C119.327 139.574 120.511 139.269 121.871 139.268C123.247 139.267 124.423 139.571 125.399 140.178C126.376 140.77 127.12 141.561 127.633 142.553C128.161 143.528 128.426 144.584 128.427 145.72C128.427 145.912 128.419 146.112 128.403 146.32C128.387 146.512 128.371 146.672 128.355 146.8L118.635 146.806C118.7 147.446 118.884 148.006 119.188 148.486C119.508 148.965 119.909 149.333 120.389 149.589C120.885 149.829 121.413 149.948 121.973 149.948C122.613 149.948 123.213 149.795 123.773 149.491C124.349 149.171 124.74 148.754 124.948 148.242L127.708 149.009C127.405 149.649 126.965 150.217 126.389 150.714C125.83 151.21 125.166 151.602 124.398 151.891C123.63 152.163 122.782 152.3 121.854 152.3ZM118.562 144.766L125.138 144.762C125.074 144.122 124.889 143.57 124.585 143.107C124.297 142.627 123.913 142.259 123.432 142.003C122.952 141.731 122.416 141.596 121.824 141.596C121.248 141.596 120.72 141.733 120.24 142.005C119.777 142.261 119.393 142.63 119.089 143.11C118.801 143.574 118.626 144.126 118.562 144.766ZM135.022 152.293C133.95 152.293 132.925 152.118 131.949 151.766C130.973 151.415 130.133 150.895 129.428 150.208L130.579 148.119C131.331 148.727 132.068 149.174 132.788 149.462C133.524 149.749 134.228 149.893 134.9 149.893C135.524 149.892 136.02 149.78 136.388 149.556C136.772 149.331 136.964 148.995 136.963 148.547C136.963 148.243 136.859 148.011 136.651 147.852C136.443 147.676 136.139 147.524 135.739 147.396C135.355 147.268 134.883 147.125 134.322 146.965C133.394 146.661 132.618 146.366 131.994 146.078C131.37 145.791 130.898 145.431 130.577 144.999C130.273 144.551 130.121 143.983 130.12 143.295C130.12 142.463 130.327 141.751 130.743 141.159C131.175 140.551 131.766 140.078 132.518 139.742C133.286 139.406 134.182 139.237 135.206 139.236C136.102 139.236 136.95 139.379 137.75 139.667C138.55 139.938 139.279 140.386 139.935 141.01L138.64 143.05C138 142.555 137.392 142.195 136.816 141.971C136.239 141.732 135.655 141.612 135.063 141.612C134.727 141.613 134.407 141.653 134.103 141.733C133.815 141.813 133.576 141.949 133.384 142.141C133.208 142.318 133.12 142.574 133.12 142.91C133.12 143.214 133.2 143.454 133.361 143.629C133.537 143.789 133.793 143.933 134.129 144.061C134.481 144.189 134.905 144.333 135.401 144.492C136.409 144.78 137.257 145.075 137.946 145.379C138.65 145.682 139.178 146.058 139.53 146.506C139.882 146.938 140.059 147.538 140.059 148.306C140.06 149.554 139.605 150.53 138.693 151.234C137.781 151.939 136.558 152.292 135.022 152.293ZM147.243 145.757C147.242 144.541 147.481 143.445 147.961 142.469C148.44 141.477 149.104 140.692 149.951 140.116C150.799 139.539 151.767 139.251 152.855 139.25C153.783 139.25 154.615 139.481 155.351 139.945C156.104 140.392 156.688 140.968 157.104 141.672L157.1 134.52L160.316 134.518L160.324 148.438C160.325 148.774 160.381 149.014 160.493 149.158C160.605 149.302 160.797 149.39 161.069 149.421L161.07 152.037C160.51 152.15 160.054 152.206 159.702 152.206C159.126 152.207 158.646 152.063 158.262 151.775C157.894 151.487 157.686 151.111 157.638 150.647L157.589 149.855C157.126 150.64 156.494 151.24 155.694 151.657C154.91 152.073 154.087 152.281 153.223 152.282C152.359 152.282 151.558 152.115 150.822 151.779C150.102 151.444 149.47 150.98 148.925 150.388C148.397 149.797 147.981 149.109 147.676 148.325C147.388 147.525 147.243 146.669 147.243 145.757ZM157.108 147.432L157.106 144.432C156.946 143.968 156.689 143.552 156.337 143.184C155.985 142.816 155.593 142.529 155.161 142.321C154.729 142.097 154.297 141.985 153.865 141.986C153.369 141.986 152.921 142.09 152.521 142.298C152.121 142.507 151.769 142.787 151.465 143.139C151.177 143.491 150.954 143.899 150.794 144.363C150.65 144.827 150.579 145.315 150.579 145.827C150.579 146.339 150.659 146.827 150.82 147.291C150.996 147.739 151.244 148.131 151.564 148.467C151.885 148.803 152.253 149.067 152.669 149.258C153.101 149.45 153.565 149.546 154.061 149.545C154.365 149.545 154.669 149.497 154.973 149.401C155.293 149.289 155.589 149.145 155.861 148.968C156.149 148.776 156.396 148.552 156.604 148.296C156.828 148.024 156.996 147.736 157.108 147.432ZM169.315 152.273C168.307 152.273 167.395 152.106 166.579 151.77C165.763 151.419 165.067 150.947 164.49 150.355C163.914 149.748 163.465 149.06 163.145 148.292C162.841 147.508 162.688 146.684 162.688 145.82C162.687 144.62 162.95 143.524 163.478 142.532C164.021 141.54 164.789 140.747 165.78 140.155C166.788 139.546 167.972 139.241 169.332 139.241C170.708 139.24 171.884 139.543 172.86 140.151C173.837 140.742 174.581 141.534 175.094 142.525C175.622 143.501 175.887 144.557 175.887 145.693C175.888 145.885 175.88 146.085 175.864 146.293C175.848 146.485 175.832 146.645 175.816 146.773L166.096 146.779C166.16 147.418 166.345 147.978 166.649 148.458C166.969 148.938 167.37 149.306 167.85 149.561C168.346 149.801 168.874 149.921 169.434 149.921C170.074 149.92 170.674 149.768 171.234 149.464C171.809 149.143 172.201 148.727 172.409 148.215L175.169 148.981C174.866 149.621 174.426 150.19 173.85 150.686C173.291 151.182 172.627 151.575 171.859 151.863C171.091 152.136 170.243 152.272 169.315 152.273ZM166.023 144.739L172.599 144.735C172.535 144.095 172.35 143.543 172.046 143.079C171.758 142.599 171.373 142.231 170.893 141.976C170.413 141.704 169.877 141.568 169.285 141.569C168.709 141.569 168.181 141.705 167.701 141.978C167.237 142.234 166.854 142.602 166.55 143.082C166.262 143.546 166.087 144.099 166.023 144.739ZM37.7119 171.469C37.7113 170.429 37.8947 169.413 38.2621 168.421C38.6455 167.412 39.197 166.5 39.9165 165.684C40.6361 164.851 41.5157 164.195 42.5554 163.714C43.5951 163.217 44.779 162.969 46.107 162.968C47.675 162.967 49.0272 163.31 50.1636 163.998C51.316 164.685 52.1725 165.581 52.7331 166.684L50.1901 168.438C49.9018 167.798 49.5255 167.294 49.0613 166.926C48.597 166.543 48.1009 166.279 47.5728 166.135C47.0447 165.975 46.5247 165.896 46.0127 165.896C45.1807 165.897 44.4528 166.065 43.829 166.401C43.2211 166.738 42.7094 167.178 42.2937 167.722C41.878 168.266 41.5664 168.875 41.3588 169.547C41.1672 170.219 41.0716 170.891 41.0719 171.563C41.0724 172.315 41.1928 173.043 41.4332 173.747C41.6736 174.435 42.01 175.05 42.4423 175.594C42.8906 176.122 43.4188 176.546 44.027 176.865C44.6512 177.169 45.3313 177.32 46.0673 177.32C46.5953 177.32 47.1312 177.231 47.6751 177.055C48.219 176.879 48.7229 176.599 49.1866 176.214C49.6504 175.83 50.0101 175.334 50.2658 174.726L52.9787 176.284C52.6432 177.132 52.0916 177.853 51.3239 178.445C50.5723 179.037 49.7245 179.486 48.7807 179.79C47.8369 180.095 46.901 180.248 45.973 180.248C44.757 180.249 43.6448 180.001 42.6365 179.506C41.6282 178.995 40.7559 178.323 40.0194 177.492C39.2989 176.644 38.7303 175.7 38.3137 174.661C37.9131 173.605 37.7125 172.541 37.7119 171.469ZM60.6513 180.336C59.6273 180.336 58.7072 180.169 57.891 179.833C57.0748 179.482 56.3785 179.002 55.8022 178.394C55.2418 177.787 54.8094 177.091 54.5049 176.307C54.2005 175.523 54.048 174.699 54.0475 173.835C54.047 172.955 54.1985 172.123 54.5021 171.339C54.8056 170.555 55.2372 169.859 55.7969 169.25C56.3725 168.642 57.0682 168.17 57.884 167.833C58.6998 167.481 59.6197 167.304 60.6437 167.304C61.6677 167.303 62.5798 167.478 63.38 167.83C64.1962 168.166 64.8925 168.637 65.4689 169.245C66.0452 169.852 66.4776 170.548 66.7661 171.332C67.0705 172.116 67.223 172.948 67.2235 173.828C67.224 174.692 67.0725 175.516 66.7689 176.3C66.4814 177.084 66.0498 177.78 65.4741 178.389C64.9145 178.997 64.2268 179.478 63.411 179.83C62.5952 180.166 61.6753 180.335 60.6513 180.336ZM57.3595 173.834C57.3599 174.57 57.5043 175.225 57.7926 175.801C58.081 176.361 58.4732 176.801 58.9694 177.121C59.4656 177.44 60.0257 177.6 60.6497 177.6C61.2577 177.599 61.8096 177.439 62.3054 177.119C62.8012 176.782 63.193 176.334 63.4806 175.774C63.7843 175.198 63.9359 174.542 63.9355 173.806C63.9351 173.086 63.7827 172.438 63.4784 171.862C63.19 171.286 62.7978 170.838 62.3016 170.519C61.8054 170.199 61.2533 170.039 60.6453 170.04C60.0213 170.04 59.4614 170.208 58.9656 170.545C58.4698 170.865 58.078 171.313 57.7904 171.889C57.5027 172.449 57.3591 173.098 57.3595 173.834ZM88.9338 180.079L85.7178 180.081L85.7137 173.025C85.7132 172.033 85.5367 171.305 85.1845 170.841C84.8482 170.362 84.3761 170.122 83.7681 170.122C83.1441 170.123 82.5442 170.371 81.9685 170.867C81.4088 171.348 81.0091 171.98 80.7696 172.764L80.7738 180.084L77.5578 180.086L77.5537 173.03C77.5532 172.022 77.3767 171.286 77.0245 170.822C76.6882 170.358 76.2161 170.127 75.6081 170.127C74.9841 170.127 74.3842 170.368 73.8085 170.848C73.2487 171.328 72.8491 171.961 72.6096 172.745L72.6138 180.089L69.3978 180.091L69.3905 167.515L72.2945 167.513L72.2959 169.841C72.7754 169.025 73.4151 168.4 74.2148 167.968C75.0145 167.519 75.9344 167.295 76.9744 167.294C78.0144 167.294 78.8226 167.549 79.3989 168.061C79.9912 168.572 80.3675 169.204 80.528 169.956C81.0395 169.092 81.6871 168.435 82.4708 167.987C83.2705 167.522 84.1664 167.29 85.1584 167.289C85.9424 167.289 86.5745 167.433 87.0547 167.72C87.5508 167.992 87.935 168.368 88.2073 168.848C88.4796 169.311 88.6639 169.839 88.7602 170.431C88.8726 171.023 88.9289 171.623 88.9293 172.231L88.9338 180.079ZM99.2699 180.313C98.2939 180.314 97.4298 180.098 96.6775 179.667C95.9413 179.219 95.3649 178.619 94.9485 177.868L94.9527 185.188L91.7367 185.19L91.7265 167.502L94.5345 167.5L94.5357 169.66C95.0153 168.924 95.623 168.347 96.3587 167.931C97.0945 167.498 97.9343 167.282 98.8783 167.281C99.7263 167.281 100.502 167.449 101.207 167.784C101.927 168.12 102.551 168.591 103.079 169.199C103.608 169.791 104.016 170.478 104.305 171.262C104.609 172.03 104.762 172.862 104.762 173.758C104.763 174.974 104.523 176.078 104.044 177.07C103.581 178.063 102.933 178.855 102.101 179.448C101.286 180.024 100.342 180.313 99.2699 180.313ZM98.1883 177.578C98.6843 177.578 99.1322 177.473 99.5321 177.265C99.932 177.057 100.276 176.777 100.564 176.424C100.867 176.056 101.091 175.648 101.235 175.2C101.395 174.736 101.474 174.256 101.474 173.76C101.474 173.232 101.386 172.744 101.209 172.296C101.049 171.848 100.809 171.456 100.489 171.121C100.168 170.769 99.7922 170.497 99.3601 170.305C98.944 170.113 98.4879 170.018 97.9919 170.018C97.6879 170.018 97.376 170.074 97.056 170.187C96.7521 170.283 96.4562 170.427 96.1683 170.619C95.8804 170.811 95.6245 171.035 95.4007 171.291C95.1928 171.548 95.041 171.828 94.9452 172.132L94.9469 175.084C95.1391 175.548 95.3954 175.971 95.7156 176.355C96.0518 176.739 96.436 177.043 96.8681 177.267C97.3002 177.474 97.7403 177.578 98.1883 177.578ZM106.822 175.365L106.817 167.493L110.033 167.491L110.038 174.667C110.038 175.627 110.215 176.355 110.567 176.851C110.919 177.33 111.439 177.57 112.127 177.57C112.543 177.57 112.951 177.489 113.351 177.329C113.767 177.153 114.143 176.897 114.479 176.56C114.83 176.224 115.126 175.8 115.366 175.288L115.361 167.488L118.577 167.486L118.583 176.462C118.583 176.798 118.639 177.038 118.751 177.182C118.879 177.326 119.079 177.414 119.351 177.446L119.353 180.062C119.033 180.11 118.761 180.142 118.537 180.158C118.329 180.19 118.137 180.206 117.961 180.206C117.385 180.207 116.913 180.079 116.545 179.823C116.192 179.551 115.984 179.184 115.92 178.72L115.847 177.712C115.288 178.56 114.568 179.208 113.688 179.657C112.809 180.089 111.841 180.306 110.785 180.307C109.489 180.307 108.505 179.892 107.832 179.06C107.16 178.213 106.823 176.981 106.822 175.365ZM129.269 179.408C128.997 179.52 128.67 179.648 128.286 179.792C127.902 179.937 127.486 180.049 127.038 180.129C126.606 180.225 126.166 180.274 125.718 180.274C125.126 180.274 124.582 180.171 124.086 179.963C123.59 179.755 123.189 179.427 122.885 178.98C122.597 178.516 122.453 177.916 122.452 177.18L122.448 169.956L120.792 169.957L120.79 167.485L122.446 167.484L122.444 163.404L125.66 163.402L125.662 167.482L128.302 167.48L128.304 169.952L125.664 169.954L125.667 176.098C125.684 176.53 125.804 176.842 126.028 177.034C126.252 177.226 126.532 177.321 126.868 177.321C127.204 177.321 127.532 177.265 127.852 177.153C128.172 177.04 128.428 176.944 128.62 176.864L129.269 179.408ZM130.079 176.335C130.078 175.519 130.302 174.807 130.749 174.199C131.213 173.575 131.853 173.094 132.668 172.758C133.484 172.421 134.42 172.253 135.476 172.252C136.004 172.252 136.54 172.292 137.084 172.371C137.628 172.451 138.1 172.579 138.5 172.754L138.5 172.082C138.5 171.282 138.259 170.667 137.779 170.235C137.315 169.803 136.619 169.588 135.691 169.588C135.003 169.589 134.347 169.709 133.723 169.949C133.099 170.19 132.443 170.542 131.755 171.006L130.722 168.895C131.554 168.351 132.402 167.942 133.266 167.67C134.145 167.397 135.065 167.26 136.025 167.26C137.817 167.259 139.21 167.706 140.202 168.602C141.211 169.497 141.715 170.777 141.716 172.441L141.719 176.449C141.719 176.785 141.775 177.025 141.887 177.169C142.015 177.312 142.215 177.4 142.487 177.432L142.489 180.048C142.201 180.096 141.937 180.137 141.697 180.169C141.473 180.201 141.281 180.217 141.121 180.217C140.481 180.217 139.993 180.074 139.657 179.786C139.336 179.498 139.136 179.146 139.056 178.73L138.984 178.082C138.44 178.787 137.76 179.331 136.944 179.715C136.129 180.1 135.297 180.292 134.449 180.293C133.617 180.293 132.865 180.126 132.193 179.79C131.536 179.439 131.016 178.967 130.632 178.375C130.263 177.767 130.079 177.087 130.079 176.335ZM137.903 176.979C138.079 176.787 138.223 176.595 138.335 176.403C138.446 176.211 138.502 176.034 138.502 175.874L138.502 174.602C138.117 174.443 137.701 174.323 137.253 174.243C136.805 174.147 136.381 174.1 135.981 174.1C135.149 174.1 134.461 174.285 133.918 174.653C133.39 175.005 133.126 175.478 133.126 176.07C133.127 176.39 133.215 176.694 133.391 176.981C133.567 177.269 133.823 177.501 134.159 177.677C134.495 177.853 134.895 177.941 135.359 177.94C135.839 177.94 136.311 177.852 136.775 177.675C137.239 177.483 137.615 177.251 137.903 176.979ZM143.954 173.759C143.954 172.543 144.193 171.447 144.672 170.471C145.152 169.479 145.815 168.694 146.663 168.118C147.511 167.541 148.479 167.253 149.567 167.252C150.495 167.252 151.327 167.483 152.063 167.947C152.815 168.394 153.4 168.97 153.816 169.674L153.812 162.522L157.028 162.52L157.036 176.44C157.036 176.776 157.092 177.016 157.204 177.16C157.316 177.304 157.508 177.391 157.78 177.423L157.782 180.039C157.222 180.152 156.766 180.208 156.414 180.208C155.838 180.208 155.358 180.065 154.974 179.777C154.606 179.489 154.397 179.113 154.349 178.649L154.301 177.857C153.837 178.642 153.205 179.242 152.406 179.658C151.622 180.075 150.798 180.283 149.934 180.284C149.07 180.284 148.27 180.117 147.534 179.781C146.814 179.446 146.181 178.982 145.637 178.39C145.109 177.799 144.692 177.111 144.388 176.327C144.099 175.527 143.955 174.671 143.954 173.759ZM153.819 175.434L153.818 172.434C153.657 171.97 153.401 171.554 153.049 171.186C152.697 170.818 152.304 170.53 151.872 170.323C151.44 170.099 151.008 169.987 150.576 169.987C150.08 169.988 149.632 170.092 149.232 170.3C148.832 170.509 148.481 170.789 148.177 171.141C147.889 171.493 147.665 171.901 147.505 172.365C147.362 172.829 147.29 173.317 147.29 173.829C147.291 174.341 147.371 174.829 147.531 175.293C147.707 175.741 147.956 176.133 148.276 176.469C148.596 176.805 148.964 177.068 149.38 177.26C149.812 177.452 150.276 177.548 150.772 177.547C151.076 177.547 151.38 177.499 151.684 177.403C152.004 177.291 152.3 177.147 152.572 176.97C152.86 176.778 153.108 176.554 153.316 176.298C153.54 176.026 153.707 175.738 153.819 175.434ZM166.003 180.275C164.979 180.275 164.059 180.108 163.243 179.772C162.426 179.421 161.73 178.941 161.154 178.333C160.593 177.726 160.161 177.03 159.856 176.246C159.552 175.462 159.4 174.638 159.399 173.774C159.399 172.894 159.55 172.062 159.854 171.278C160.157 170.494 160.589 169.798 161.148 169.189C161.724 168.581 162.42 168.109 163.236 167.772C164.051 167.42 164.971 167.243 165.995 167.243C167.019 167.242 167.931 167.417 168.732 167.769C169.548 168.105 170.244 168.576 170.82 169.184C171.397 169.791 171.829 170.487 172.118 171.271C172.422 172.055 172.575 172.887 172.575 173.767C172.576 174.631 172.424 175.455 172.12 176.239C171.833 177.023 171.401 177.719 170.826 178.328C170.266 178.936 169.578 179.416 168.763 179.769C167.947 180.105 167.027 180.274 166.003 180.275ZM162.711 173.772C162.711 174.508 162.856 175.164 163.144 175.74C163.433 176.3 163.825 176.74 164.321 177.06C164.817 177.379 165.377 177.539 166.001 177.539C166.609 177.538 167.161 177.378 167.657 177.058C168.153 176.721 168.545 176.273 168.832 175.713C169.136 175.137 169.287 174.481 169.287 173.745C169.287 173.025 169.134 172.377 168.83 171.801C168.542 171.225 168.149 170.777 167.653 170.458C167.157 170.138 166.605 169.978 165.997 169.979C165.373 169.979 164.813 170.147 164.317 170.484C163.821 170.804 163.43 171.252 163.142 171.828C162.854 172.388 162.711 173.036 162.711 173.772ZM182.232 170.233C181.256 170.234 180.384 170.426 179.616 170.811C178.848 171.179 178.297 171.715 177.961 172.42L177.965 180.028L174.749 180.029L174.742 167.453L177.694 167.452L177.696 170.14C178.143 169.276 178.711 168.595 179.398 168.099C180.086 167.602 180.814 167.33 181.582 167.282C181.758 167.281 181.894 167.281 181.99 167.281C182.086 167.281 182.166 167.289 182.23 167.305L182.232 170.233ZM189.699 180.261C188.691 180.261 187.779 180.094 186.962 179.758C186.146 179.407 185.45 178.935 184.874 178.344C184.297 177.736 183.849 177.048 183.528 176.28C183.224 175.497 183.071 174.673 183.071 173.809C183.07 172.609 183.334 171.513 183.861 170.52C184.404 169.528 185.172 168.735 186.164 168.143C187.171 167.534 188.355 167.23 189.715 167.229C191.091 167.228 192.267 167.531 193.244 168.139C194.22 168.73 194.964 169.522 195.477 170.513C196.006 171.489 196.27 172.545 196.271 173.681C196.271 173.873 196.263 174.073 196.247 174.281C196.231 174.473 196.215 174.633 196.2 174.761L186.48 174.767C186.544 175.407 186.728 175.967 187.032 176.446C187.353 176.926 187.753 177.294 188.233 177.55C188.729 177.789 189.257 177.909 189.817 177.909C190.457 177.908 191.057 177.756 191.617 177.452C192.193 177.131 192.585 176.715 192.792 176.203L195.553 176.969C195.249 177.61 194.809 178.178 194.234 178.674C193.674 179.171 193.01 179.563 192.242 179.851C191.475 180.124 190.627 180.26 189.699 180.261ZM186.406 172.727L192.982 172.723C192.918 172.083 192.734 171.531 192.429 171.067C192.141 170.587 191.757 170.22 191.277 169.964C190.797 169.692 190.26 169.557 189.668 169.557C189.092 169.557 188.565 169.693 188.085 169.966C187.621 170.222 187.237 170.59 186.933 171.07C186.646 171.535 186.47 172.087 186.406 172.727ZM202.866 180.253C201.794 180.254 200.77 180.078 199.794 179.727C198.817 179.376 197.977 178.856 197.273 178.168L198.423 176.08C199.176 176.687 199.912 177.135 200.632 177.423C201.368 177.71 202.072 177.854 202.744 177.853C203.368 177.853 203.864 177.741 204.232 177.516C204.616 177.292 204.808 176.956 204.808 176.508C204.808 176.204 204.703 175.972 204.495 175.812C204.287 175.636 203.983 175.485 203.583 175.357C203.199 175.229 202.727 175.085 202.167 174.926C201.239 174.622 200.462 174.327 199.838 174.039C199.214 173.751 198.742 173.392 198.422 172.96C198.117 172.512 197.965 171.944 197.965 171.256C197.964 170.424 198.172 169.712 198.587 169.12C199.019 168.511 199.611 168.039 200.363 167.703C201.13 167.366 202.026 167.198 203.05 167.197C203.946 167.197 204.794 167.34 205.595 167.628C206.395 167.899 207.123 168.347 207.779 168.97L206.485 171.011C205.844 170.515 205.236 170.156 204.66 169.932C204.084 169.693 203.5 169.573 202.908 169.573C202.572 169.573 202.252 169.614 201.948 169.694C201.66 169.774 201.42 169.91 201.228 170.102C201.052 170.278 200.964 170.534 200.964 170.87C200.965 171.174 201.045 171.414 201.205 171.59C201.381 171.75 201.637 171.894 201.973 172.022C202.325 172.15 202.749 172.293 203.245 172.453C204.254 172.74 205.102 173.036 205.79 173.34C206.494 173.643 207.022 174.019 207.375 174.467C207.727 174.898 207.903 175.498 207.904 176.266C207.904 177.514 207.449 178.491 206.537 179.195C205.626 179.9 204.402 180.252 202.866 180.253Z" fill="#5F6380"/>
<path d="M99 56H121" stroke="#5F6380" stroke-linecap="round" stroke-linejoin="round"/>
<path d="M133 56H155" stroke="#5F6380" stroke-linecap="round" stroke-linejoin="round"/>
<path d="M127 62C130.314 62 133 59.3137 133 56C133 52.6863 130.314 50 127 50C123.686 50 121 52.6863 121 56C121 59.3137 123.686 62 127 62Z" stroke="#5F6380" stroke-linecap="round" stroke-linejoin="round"/>
<path d="M105 86C108.314 86 111 83.3137 111 80C111 76.6863 108.314 74 105 74C101.686 74 99 76.6863 99 80C99 83.3137 101.686 86 105 86Z" stroke="#5F6380" stroke-linecap="round" stroke-linejoin="round"/>
<path d="M149 86C152.314 86 155 83.3137 155 80C155 76.6863 152.314 74 149 74C145.686 74 143 76.6863 143 80C143 83.3137 145.686 86 149 86Z" stroke="#5F6380" stroke-linecap="round" stroke-linejoin="round"/>
<path d="M132.95 56.825C136.909 57.9365 140.479 60.1344 143.253 63.1698C146.028 66.2052 147.897 69.9569 148.65 74" stroke="#5F6380" stroke-linecap="round" stroke-linejoin="round"/>
<path d="M105.35 74C106.102 69.9569 107.972 66.2052 110.747 63.1698C113.521 60.1344 117.091 57.9365 121.05 56.825" stroke="#5F6380" stroke-linecap="round" stroke-linejoin="round"/>
<g filter="url(#filter0_d_30_1195)">
<circle cx="107" cy="70" r="20" fill="#5F6380" fill-opacity="0.2" shape-rendering="crispEdges"/>
</g>
<defs>
<filter id="filter0_d_30_1195" x="83" y="50" width="48" height="48" filterUnits="userSpaceOnUse" color-interpolation-filters="sRGB">
<feFlood flood-opacity="0" result="BackgroundImageFix"/>
<feColorMatrix in="SourceAlpha" type="matrix" values="0 0 0 0 0 0 0 0 0 0 0 0 0 0 0 0 0 0 127 0" result="hardAlpha"/>
<feOffset dy="4"/>
<feGaussianBlur stdDeviation="2"/>
<feComposite in2="hardAlpha" operator="out"/>
<feColorMatrix type="matrix" values="0 0 0 0 0 0 0 0 0 0 0 0 0 0 0 0 0 0 0.25 0"/>
<feBlend mode="normal" in2="BackgroundImageFix" result="effect1_dropShadow_30_1195"/>
<feBlend mode="normal" in="SourceGraphic" in2="effect1_dropShadow_30_1195" result="shape"/>
</filter>
</defs>
</svg>
