<svg width="246" height="200" viewBox="0 0 246 200" fill="none" xmlns="http://www.w3.org/2000/svg">
<rect width="246" height="200" rx="16" fill="#5F6380" fill-opacity="0.1"/>
<path d="M92.5914 131.085L92.592 132.077L84.96 132.082L84.9534 120.722L92.4414 120.718L92.442 121.71L86.074 121.713L86.0763 125.809L91.6283 125.806L91.6289 126.75L86.0769 126.753L86.0794 131.089L92.5914 131.085ZM97.1908 132.235C96.5081 132.235 95.8734 132.124 95.2866 131.9C94.6998 131.676 94.193 131.335 93.766 130.877L94.2136 130.109C94.6832 130.546 95.1527 130.865 95.6221 131.068C96.1023 131.259 96.609 131.355 97.1423 131.355C97.793 131.354 98.3209 131.226 98.7261 130.97C99.1313 130.703 99.3337 130.324 99.3334 129.834C99.3332 129.503 99.2318 129.252 99.029 129.082C98.8369 128.901 98.5541 128.757 98.1807 128.65C97.818 128.533 97.3806 128.411 96.8685 128.283C96.2924 128.123 95.807 127.958 95.4122 127.788C95.0281 127.607 94.7347 127.383 94.5318 127.116C94.3397 126.839 94.2435 126.482 94.2432 126.045C94.2429 125.501 94.376 125.052 94.6424 124.7C94.9196 124.337 95.2927 124.065 95.762 123.884C96.2419 123.691 96.7751 123.595 97.3618 123.595C98.0018 123.594 98.5672 123.695 99.058 123.898C99.5488 124.1 99.9489 124.383 100.258 124.745L99.7309 125.481C99.432 125.14 99.0746 124.89 98.6585 124.73C98.253 124.56 97.7997 124.474 97.2983 124.475C96.957 124.475 96.6317 124.523 96.3224 124.619C96.0131 124.705 95.7572 124.854 95.5547 125.068C95.3628 125.271 95.2669 125.553 95.2672 125.916C95.2673 126.215 95.3421 126.449 95.4916 126.62C95.641 126.78 95.8651 126.918 96.1638 127.035C96.4625 127.142 96.8306 127.259 97.268 127.387C97.8974 127.557 98.4469 127.733 98.9163 127.914C99.3857 128.084 99.7485 128.308 100.005 128.585C100.261 128.862 100.389 129.252 100.389 129.753C100.39 130.532 100.097 131.14 99.5104 131.577C98.924 132.015 98.1508 132.234 97.1908 132.235ZM106.189 131.67C106.104 131.702 105.97 131.76 105.789 131.846C105.608 131.931 105.389 132.006 105.133 132.07C104.877 132.134 104.6 132.167 104.301 132.167C103.992 132.167 103.698 132.108 103.421 131.991C103.154 131.874 102.941 131.698 102.781 131.464C102.621 131.218 102.54 130.92 102.54 130.568L102.537 124.6L101.385 124.6L101.384 123.736L102.536 123.736L102.535 120.92L103.623 120.919L103.624 123.735L105.544 123.734L105.545 124.598L103.625 124.599L103.628 130.263C103.65 130.562 103.756 130.786 103.948 130.935C104.151 131.084 104.381 131.159 104.637 131.158C104.935 131.158 105.207 131.11 105.452 131.014C105.698 130.907 105.847 130.832 105.9 130.79L106.189 131.67ZM107.466 128.629L107.464 123.733L108.552 123.732L108.554 128.436C108.555 129.386 108.715 130.095 109.036 130.564C109.367 131.033 109.852 131.267 110.492 131.267C110.919 131.267 111.329 131.176 111.724 130.994C112.129 130.802 112.486 130.535 112.795 130.194C113.105 129.842 113.339 129.436 113.499 128.977L113.496 123.729L114.584 123.729L114.588 130.753C114.588 130.902 114.62 131.014 114.684 131.089C114.748 131.153 114.844 131.19 114.972 131.2L114.972 132.064C114.844 132.075 114.743 132.081 114.668 132.081C114.594 132.091 114.524 132.097 114.46 132.097C114.247 132.076 114.06 131.99 113.9 131.841C113.751 131.692 113.671 131.511 113.66 131.297L113.627 130.177C113.265 130.817 112.769 131.319 112.14 131.682C111.522 132.045 110.85 132.227 110.125 132.227C109.25 132.228 108.588 131.924 108.14 131.316C107.692 130.709 107.467 129.813 107.466 128.629ZM116.486 127.92C116.486 127.13 116.645 126.41 116.965 125.759C117.295 125.098 117.748 124.57 118.324 124.175C118.9 123.78 119.556 123.582 120.292 123.581C120.985 123.581 121.604 123.767 122.148 124.14C122.703 124.503 123.135 124.945 123.445 125.468L123.442 120.38L124.53 120.379L124.536 130.747C124.536 130.896 124.568 131.008 124.632 131.083C124.696 131.147 124.792 131.184 124.92 131.195L124.92 132.059C124.707 132.091 124.542 132.102 124.424 132.091C124.2 132.08 124.003 131.99 123.832 131.819C123.662 131.649 123.576 131.462 123.576 131.26L123.576 130.444C123.245 130.988 122.797 131.42 122.232 131.74C121.667 132.061 121.081 132.221 120.473 132.221C119.897 132.222 119.363 132.105 118.872 131.87C118.392 131.636 117.971 131.316 117.608 130.911C117.256 130.506 116.978 130.047 116.775 129.535C116.583 129.013 116.486 128.474 116.486 127.92ZM123.447 129.196L123.445 126.62C123.306 126.236 123.082 125.889 122.773 125.58C122.463 125.26 122.111 125.01 121.716 124.829C121.332 124.637 120.948 124.541 120.564 124.541C120.116 124.542 119.711 124.638 119.348 124.83C118.986 125.012 118.671 125.262 118.405 125.583C118.149 125.903 117.952 126.265 117.813 126.671C117.675 127.076 117.606 127.492 117.606 127.919C117.606 128.367 117.681 128.794 117.831 129.199C117.991 129.604 118.215 129.967 118.503 130.286C118.792 130.596 119.122 130.835 119.496 131.006C119.869 131.176 120.275 131.261 120.712 131.261C120.989 131.261 121.277 131.208 121.576 131.101C121.875 130.994 122.157 130.85 122.424 130.668C122.701 130.476 122.93 130.252 123.111 129.996C123.292 129.74 123.404 129.473 123.447 129.196ZM126.328 129.658C126.328 129.135 126.477 128.687 126.775 128.314C127.074 127.929 127.484 127.636 128.007 127.433C128.54 127.219 129.153 127.112 129.847 127.112C130.252 127.112 130.673 127.143 131.111 127.207C131.548 127.271 131.938 127.367 132.279 127.494L132.279 126.79C132.278 126.086 132.07 125.527 131.654 125.111C131.237 124.695 130.661 124.487 129.925 124.488C129.477 124.488 129.035 124.574 128.597 124.745C128.171 124.905 127.723 125.145 127.254 125.465L126.837 124.698C127.381 124.324 127.914 124.046 128.437 123.865C128.959 123.672 129.493 123.576 130.037 123.576C131.061 123.575 131.872 123.868 132.469 124.454C133.067 125.041 133.366 125.851 133.367 126.886L133.369 130.742C133.369 130.891 133.401 131.003 133.465 131.078C133.529 131.142 133.63 131.179 133.769 131.19L133.77 132.054C133.652 132.064 133.551 132.075 133.466 132.086C133.38 132.096 133.316 132.097 133.274 132.086C133.007 132.075 132.804 131.99 132.665 131.83C132.527 131.67 132.452 131.5 132.441 131.318L132.425 130.71C132.052 131.191 131.567 131.564 130.969 131.831C130.372 132.088 129.764 132.216 129.146 132.216C128.612 132.217 128.127 132.105 127.689 131.881C127.263 131.647 126.927 131.338 126.681 130.954C126.446 130.559 126.328 130.127 126.328 129.658ZM131.913 130.295C132.03 130.145 132.12 130.001 132.184 129.863C132.248 129.724 132.28 129.601 132.28 129.494L132.279 128.278C131.917 128.14 131.538 128.034 131.143 127.959C130.759 127.885 130.37 127.848 129.975 127.848C129.196 127.848 128.567 128.003 128.087 128.313C127.608 128.623 127.368 129.044 127.368 129.577C127.368 129.887 127.449 130.18 127.609 130.457C127.769 130.724 128.004 130.948 128.313 131.129C128.622 131.299 128.985 131.384 129.401 131.384C129.924 131.384 130.409 131.282 130.857 131.079C131.316 130.876 131.667 130.615 131.913 130.295ZM142.728 132.048L141.64 132.049L141.638 127.393C141.637 126.412 141.493 125.697 141.204 125.249C140.916 124.791 140.463 124.562 139.844 124.562C139.417 124.562 138.996 124.669 138.58 124.883C138.164 125.086 137.796 125.369 137.477 125.731C137.168 126.084 136.944 126.489 136.805 126.948L136.808 132.052L135.72 132.052L135.716 123.716L136.708 123.716L136.709 125.604C136.932 125.198 137.225 124.846 137.588 124.547C137.95 124.238 138.361 123.998 138.82 123.827C139.278 123.656 139.753 123.57 140.243 123.57C140.702 123.57 141.091 123.655 141.412 123.825C141.732 123.996 141.988 124.241 142.18 124.561C142.372 124.87 142.511 125.249 142.597 125.696C142.682 126.134 142.725 126.624 142.726 127.168L142.728 132.048ZM144.486 127.903C144.486 127.114 144.645 126.394 144.965 125.743C145.295 125.082 145.748 124.553 146.324 124.158C146.9 123.763 147.556 123.566 148.292 123.565C148.985 123.565 149.604 123.751 150.148 124.124C150.703 124.486 151.135 124.929 151.445 125.451L151.442 120.363L152.53 120.363L152.536 130.731C152.536 130.88 152.568 130.992 152.632 131.067C152.696 131.131 152.792 131.168 152.92 131.179L152.92 132.043C152.707 132.075 152.542 132.085 152.424 132.075C152.2 132.064 152.003 131.974 151.832 131.803C151.662 131.633 151.576 131.446 151.576 131.243L151.576 130.427C151.245 130.971 150.797 131.404 150.232 131.724C149.667 132.044 149.081 132.205 148.473 132.205C147.897 132.205 147.363 132.088 146.872 131.854C146.392 131.62 145.971 131.3 145.608 130.895C145.256 130.49 144.978 130.031 144.775 129.519C144.583 128.997 144.486 128.458 144.486 127.903ZM151.447 129.179L151.445 126.603C151.306 126.219 151.082 125.873 150.773 125.564C150.463 125.244 150.111 124.993 149.716 124.812C149.332 124.621 148.948 124.525 148.564 124.525C148.116 124.525 147.711 124.622 147.348 124.814C146.986 124.995 146.671 125.246 146.405 125.566C146.149 125.886 145.952 126.249 145.813 126.655C145.675 127.06 145.606 127.476 145.606 127.903C145.606 128.351 145.681 128.777 145.831 129.183C145.991 129.588 146.215 129.95 146.503 130.27C146.792 130.579 147.122 130.819 147.496 130.99C147.869 131.16 148.275 131.245 148.712 131.245C148.989 131.245 149.277 131.191 149.576 131.084C149.875 130.978 150.157 130.833 150.424 130.652C150.701 130.46 150.93 130.236 151.111 129.98C151.292 129.723 151.404 129.457 151.447 129.179ZM158.554 132.199C157.956 132.2 157.402 132.088 156.889 131.864C156.388 131.63 155.951 131.315 155.577 130.921C155.214 130.516 154.931 130.057 154.728 129.545C154.525 129.023 154.424 128.474 154.423 127.898C154.423 127.3 154.524 126.746 154.726 126.233C154.929 125.711 155.216 125.252 155.589 124.857C155.963 124.451 156.4 124.136 156.901 123.912C157.413 123.677 157.967 123.56 158.565 123.559C159.162 123.559 159.711 123.676 160.213 123.91C160.714 124.134 161.152 124.448 161.525 124.854C161.899 125.248 162.187 125.706 162.39 126.229C162.593 126.741 162.695 127.296 162.695 127.893C162.696 128.469 162.595 129.018 162.392 129.541C162.19 130.053 161.902 130.512 161.529 130.918C161.166 131.312 160.729 131.627 160.217 131.862C159.716 132.087 159.162 132.199 158.554 132.199ZM155.527 127.913C155.528 128.532 155.661 129.097 155.928 129.609C156.206 130.11 156.574 130.51 157.033 130.808C157.492 131.096 157.998 131.24 158.553 131.239C159.108 131.239 159.614 131.089 160.073 130.79C160.531 130.491 160.899 130.086 161.176 129.574C161.453 129.051 161.592 128.485 161.591 127.877C161.591 127.259 161.452 126.694 161.174 126.182C160.897 125.67 160.528 125.265 160.069 124.966C159.611 124.668 159.104 124.519 158.549 124.519C157.995 124.52 157.488 124.675 157.029 124.984C156.582 125.294 156.219 125.705 155.942 126.217C155.665 126.718 155.527 127.284 155.527 127.913Z" fill="#5F6380"/>
<path d="M31.1104 150.312C31.1096 149.012 31.3389 147.742 31.7982 146.502C32.2774 145.242 32.9668 144.101 33.8662 143.081C34.7656 142.04 35.8651 141.22 37.1648 140.619C38.4644 139.998 39.9442 139.687 41.6042 139.686C43.5642 139.685 45.2545 140.114 46.675 140.973C48.1155 141.833 49.1861 142.952 49.8869 144.332L46.7082 146.523C46.3477 145.724 45.8774 145.094 45.2971 144.634C44.7168 144.155 44.0966 143.825 43.4365 143.645C42.7764 143.446 42.1264 143.346 41.4864 143.346C40.4464 143.347 39.5365 143.558 38.7567 143.978C37.997 144.398 37.3573 144.949 36.8377 145.629C36.3181 146.309 35.9285 147.07 35.669 147.91C35.4295 148.75 35.31 149.59 35.3105 150.43C35.311 151.37 35.4615 152.28 35.762 153.16C36.0625 154.02 36.483 154.789 37.0234 155.469C37.5838 156.129 38.2441 156.658 39.0043 157.058C39.7845 157.437 40.6346 157.627 41.5546 157.626C42.2146 157.626 42.8846 157.516 43.5644 157.295C44.2443 157.075 44.8741 156.724 45.4538 156.244C46.0335 155.764 46.4832 155.144 46.8027 154.383L50.1939 156.331C49.7745 157.392 49.085 158.292 48.1254 159.033C47.1859 159.773 46.1262 160.334 44.9464 160.714C43.7666 161.095 42.5967 161.286 41.4367 161.286C39.9167 161.287 38.5266 160.978 37.2662 160.359C36.0058 159.72 34.9154 158.88 33.9947 157.841C33.0941 156.781 32.3835 155.602 31.8627 154.302C31.3619 152.982 31.1112 151.652 31.1104 150.312ZM59.7846 161.396C58.5046 161.397 57.3545 161.187 56.3343 160.768C55.314 160.328 54.4437 159.729 53.7232 158.969C53.0228 158.21 52.4823 157.34 52.1017 156.36C51.7211 155.381 51.5305 154.351 51.5299 153.271C51.5293 152.171 51.7187 151.131 52.0981 150.15C52.4775 149.17 53.017 148.3 53.7166 147.539C54.4362 146.779 55.3058 146.188 56.3256 145.768C57.3453 145.327 58.4952 145.107 59.7752 145.106C61.0552 145.105 62.1953 145.324 63.1956 145.764C64.2158 146.183 65.0862 146.773 65.8066 147.532C66.527 148.292 67.0675 149.162 67.4281 150.141C67.8087 151.121 67.9993 152.161 67.9999 153.261C68.0005 154.341 67.8111 155.371 67.4317 156.351C67.0723 157.332 66.5328 158.202 65.8132 158.962C65.1137 159.723 64.254 160.323 63.2343 160.764C62.2145 161.184 61.0646 161.395 59.7846 161.396ZM55.6699 153.268C55.6704 154.188 55.8509 155.008 56.2113 155.728C56.5717 156.428 57.0621 156.977 57.6823 157.377C58.3025 157.777 59.0026 157.976 59.7826 157.976C60.5426 157.975 61.2325 157.775 61.8523 157.375C62.4721 156.954 62.9617 156.394 63.3213 155.694C63.7009 154.974 63.8904 154.153 63.8899 153.233C63.8894 152.333 63.6989 151.524 63.3185 150.804C62.9581 150.084 62.4677 149.524 61.8475 149.125C61.2273 148.725 60.5372 148.525 59.7772 148.526C58.9972 148.526 58.2973 148.737 57.6775 149.157C57.0578 149.557 56.5681 150.118 56.2085 150.838C55.8489 151.538 55.6694 152.348 55.6699 153.268ZM95.1378 161.075L91.1178 161.078L91.1127 152.258C91.112 151.018 90.8915 150.108 90.4511 149.528C90.0308 148.928 89.4406 148.629 88.6806 148.629C87.9006 148.63 87.1508 148.94 86.4311 149.56C85.7315 150.161 85.2319 150.951 84.9325 151.931L84.9378 161.081L80.9178 161.084L80.9127 152.264C80.912 151.004 80.6914 150.084 80.2511 149.504C79.8308 148.924 79.2406 148.635 78.4806 148.635C77.7006 148.635 76.9508 148.936 76.2311 149.536C75.5315 150.137 75.0319 150.927 74.7325 151.907L74.7378 161.087L70.7178 161.09L70.7087 145.37L74.3387 145.367L74.3404 148.277C74.9398 147.257 75.7393 146.477 76.739 145.936C77.7387 145.375 78.8885 145.095 80.1885 145.094C81.4885 145.093 82.4987 145.413 83.2191 146.052C83.9595 146.692 84.4299 147.482 84.6305 148.421C85.2698 147.341 86.0794 146.521 87.059 145.96C88.0587 145.379 89.1785 145.089 90.4185 145.088C91.3985 145.088 92.1886 145.267 92.7889 145.627C93.4091 145.966 93.8893 146.436 94.2297 147.036C94.57 147.616 94.8004 148.276 94.9208 149.015C95.0612 149.755 95.1317 150.505 95.1321 151.265L95.1378 161.075ZM108.058 161.368C106.838 161.369 105.758 161.099 104.817 160.56C103.897 160 103.177 159.251 102.656 158.311L102.661 167.461L98.6414 167.463L98.6286 145.353L102.139 145.351L102.14 148.051C102.74 147.131 103.499 146.411 104.419 145.89C105.339 145.349 106.388 145.079 107.568 145.078C108.628 145.078 109.599 145.287 110.479 145.706C111.379 146.126 112.159 146.716 112.82 147.475C113.48 148.215 113.991 149.074 114.351 150.054C114.732 151.014 114.923 152.054 114.923 153.174C114.924 154.694 114.625 156.074 114.026 157.314C113.446 158.555 112.637 159.545 111.597 160.286C110.578 161.006 109.398 161.367 108.058 161.368ZM106.706 157.949C107.326 157.948 107.886 157.818 108.386 157.558C108.886 157.297 109.315 156.947 109.675 156.507C110.055 156.047 110.335 155.537 110.514 154.976C110.714 154.396 110.814 153.796 110.813 153.176C110.813 152.516 110.702 151.906 110.482 151.346C110.282 150.787 109.981 150.297 109.581 149.877C109.181 149.437 108.711 149.098 108.171 148.858C107.651 148.618 107.08 148.498 106.46 148.499C106.08 148.499 105.69 148.569 105.291 148.709C104.911 148.83 104.541 149.01 104.181 149.25C103.821 149.49 103.501 149.771 103.221 150.091C102.962 150.411 102.772 150.761 102.652 151.141L102.654 154.831C102.894 155.411 103.215 155.941 103.615 156.42C104.035 156.9 104.516 157.28 105.056 157.56C105.596 157.819 106.146 157.949 106.706 157.949ZM117.498 155.182L117.492 145.342L121.512 145.34L121.517 154.31C121.518 155.51 121.739 156.42 122.179 157.04C122.619 157.639 123.27 157.939 124.13 157.939C124.65 157.938 125.16 157.838 125.659 157.638C126.179 157.417 126.649 157.097 127.069 156.677C127.509 156.257 127.878 155.726 128.178 155.086L128.172 145.336L132.192 145.334L132.199 156.554C132.199 156.974 132.269 157.274 132.409 157.454C132.569 157.634 132.819 157.744 133.159 157.783L133.161 161.053C132.761 161.114 132.421 161.154 132.141 161.174C131.881 161.214 131.641 161.234 131.421 161.234C130.701 161.235 130.111 161.075 129.651 160.755C129.211 160.416 128.951 159.956 128.87 159.376L128.78 158.116C128.08 159.176 127.181 159.987 126.081 160.547C124.981 161.088 123.772 161.359 122.452 161.36C120.832 161.36 119.601 160.841 118.761 159.802C117.92 158.742 117.499 157.202 117.498 155.182ZM145.557 160.236C145.217 160.376 144.807 160.537 144.328 160.717C143.848 160.897 143.328 161.037 142.768 161.138C142.228 161.258 141.678 161.318 141.118 161.319C140.378 161.319 139.698 161.19 139.078 160.93C138.457 160.67 137.957 160.261 137.577 159.701C137.217 159.121 137.036 158.371 137.036 157.451L137.03 148.421L134.96 148.422L134.959 145.332L137.029 145.331L137.026 140.231L141.046 140.229L141.049 145.329L144.349 145.327L144.35 148.417L141.05 148.419L141.055 156.099C141.075 156.639 141.225 157.029 141.506 157.269C141.786 157.508 142.136 157.628 142.556 157.628C142.976 157.628 143.386 157.557 143.786 157.417C144.186 157.277 144.505 157.157 144.745 157.057L145.557 160.236ZM146.569 156.396C146.568 155.376 146.848 154.485 147.407 153.725C147.987 152.945 148.786 152.344 149.806 151.924C150.826 151.503 151.996 151.292 153.316 151.292C153.976 151.291 154.646 151.341 155.326 151.441C156.006 151.54 156.596 151.7 157.096 151.919L157.096 151.079C157.095 150.079 156.795 149.31 156.194 148.77C155.614 148.23 154.744 147.961 153.584 147.962C152.724 147.962 151.904 148.112 151.124 148.413C150.344 148.713 149.525 149.154 148.665 149.734L147.373 147.095C148.413 146.415 149.473 145.904 150.552 145.563C151.652 145.223 152.802 145.052 154.002 145.051C156.242 145.05 157.982 145.609 159.223 146.728C160.484 147.848 161.115 149.447 161.116 151.527L161.119 156.537C161.119 156.957 161.189 157.257 161.329 157.437C161.489 157.617 161.739 157.727 162.079 157.767L162.081 161.037C161.721 161.097 161.391 161.147 161.091 161.187C160.811 161.227 160.572 161.247 160.372 161.248C159.572 161.248 158.961 161.068 158.541 160.709C158.141 160.349 157.891 159.909 157.79 159.389L157.7 158.579C157.02 159.46 156.171 160.14 155.151 160.621C154.131 161.101 153.092 161.342 152.032 161.342C150.992 161.343 150.051 161.134 149.211 160.714C148.391 160.275 147.741 159.685 147.26 158.945C146.8 158.185 146.569 157.336 146.569 156.396ZM156.349 157.2C156.569 156.96 156.749 156.72 156.889 156.48C157.029 156.24 157.098 156.019 157.098 155.819L157.097 154.229C156.617 154.03 156.097 153.88 155.537 153.78C154.977 153.661 154.447 153.601 153.947 153.601C152.907 153.602 152.047 153.832 151.367 154.293C150.708 154.733 150.378 155.323 150.379 156.063C150.379 156.463 150.489 156.843 150.709 157.203C150.929 157.563 151.25 157.853 151.67 158.073C152.09 158.292 152.59 158.402 153.17 158.402C153.77 158.401 154.36 158.291 154.94 158.071C155.52 157.83 155.989 157.54 156.349 157.2ZM172.198 161.331C170.918 161.331 169.768 161.122 168.748 160.703C167.728 160.263 166.857 159.664 166.137 158.904C165.416 158.125 164.856 157.245 164.455 156.265C164.075 155.285 163.884 154.256 163.883 153.176C163.883 151.696 164.212 150.345 164.871 149.125C165.55 147.885 166.51 146.894 167.749 146.153C168.989 145.413 170.459 145.042 172.159 145.041C173.859 145.04 175.319 145.409 176.539 146.148C177.76 146.888 178.67 147.857 179.271 149.057L175.342 150.259C175.001 149.679 174.551 149.239 173.991 148.94C173.431 148.62 172.811 148.46 172.131 148.461C171.371 148.461 170.671 148.662 170.031 149.062C169.411 149.442 168.922 149.993 168.562 150.713C168.202 151.413 168.023 152.233 168.023 153.173C168.024 154.093 168.204 154.913 168.565 155.633C168.945 156.333 169.446 156.892 170.066 157.312C170.686 157.712 171.376 157.911 172.136 157.911C172.616 157.91 173.066 157.83 173.486 157.67C173.926 157.51 174.316 157.29 174.656 157.009C174.995 156.729 175.245 156.409 175.405 156.049L179.336 157.247C178.976 158.027 178.447 158.727 177.747 159.348C177.067 159.968 176.258 160.458 175.318 160.819C174.398 161.159 173.358 161.33 172.198 161.331ZM171.781 167.061C171.241 167.061 170.661 166.982 170.041 166.822C169.421 166.682 168.801 166.463 168.181 166.163L169.2 164.032C169.5 164.232 169.8 164.382 170.1 164.482C170.42 164.602 170.75 164.662 171.09 164.661C171.61 164.661 172.01 164.541 172.29 164.301C172.59 164.081 172.74 163.75 172.739 163.31C172.739 162.89 172.589 162.491 172.289 162.111C172.008 161.751 171.598 161.391 171.058 161.031L172.407 160.161C173.208 160.68 173.868 161.24 174.388 161.839C174.909 162.459 175.169 163.209 175.17 164.089C175.17 164.929 174.881 165.629 174.301 166.19C173.741 166.77 172.901 167.06 171.781 167.061ZM180.729 156.376C180.728 155.356 181.008 154.466 181.567 153.705C182.147 152.925 182.946 152.325 183.966 151.904C184.986 151.483 186.156 151.273 187.476 151.272C188.136 151.271 188.806 151.321 189.486 151.421C190.166 151.52 190.756 151.68 191.256 151.9L191.256 151.06C191.255 150.06 190.955 149.29 190.354 148.75C189.774 148.211 188.904 147.941 187.744 147.942C186.884 147.942 186.064 148.093 185.284 148.393C184.504 148.694 183.685 149.134 182.825 149.715L181.533 147.075C182.573 146.395 183.633 145.884 184.713 145.543C185.812 145.203 186.962 145.032 188.162 145.031C190.402 145.03 192.143 145.589 193.383 146.708C194.644 147.828 195.275 149.427 195.276 151.507L195.279 156.517C195.279 156.937 195.349 157.237 195.489 157.417C195.65 157.597 195.9 157.707 196.24 157.747L196.242 161.017C195.882 161.077 195.552 161.127 195.252 161.167C194.972 161.208 194.732 161.228 194.532 161.228C193.732 161.228 193.122 161.049 192.701 160.689C192.301 160.329 192.051 159.889 191.951 159.369L191.86 158.559C191.181 159.44 190.331 160.12 189.311 160.601C188.292 161.081 187.252 161.322 186.192 161.323C185.152 161.323 184.212 161.114 183.371 160.694C182.551 160.255 181.901 159.665 181.42 158.925C180.96 158.166 180.729 157.316 180.729 156.376ZM190.509 157.18C190.729 156.94 190.909 156.7 191.049 156.46C191.189 156.22 191.259 156 191.259 155.8L191.258 154.21C190.777 154.01 190.257 153.86 189.697 153.761C189.137 153.641 188.607 153.581 188.107 153.582C187.067 153.582 186.207 153.813 185.528 154.273C184.868 154.713 184.538 155.304 184.539 156.044C184.539 156.444 184.649 156.824 184.869 157.183C185.09 157.543 185.41 157.833 185.83 158.053C186.25 158.273 186.75 158.382 187.33 158.382C187.93 158.382 188.52 158.271 189.1 158.051C189.68 157.811 190.15 157.52 190.509 157.18ZM190.081 142.96C189.481 142.961 188.961 142.851 188.521 142.631C188.101 142.392 187.711 142.162 187.35 141.942C186.99 141.722 186.59 141.612 186.15 141.613C185.71 141.613 185.38 141.733 185.161 141.973C184.961 142.193 184.831 142.423 184.771 142.663C184.731 142.903 184.711 143.033 184.711 143.053L182.491 143.055C182.491 142.875 182.551 142.575 182.671 142.155C182.79 141.735 182.98 141.304 183.24 140.864C183.52 140.404 183.879 140.014 184.319 139.694C184.779 139.373 185.339 139.213 185.999 139.213C186.619 139.212 187.129 139.332 187.529 139.572C187.929 139.812 188.309 140.051 188.67 140.291C189.05 140.511 189.48 140.621 189.96 140.62C190.44 140.62 190.79 140.5 191.01 140.26C191.229 140.02 191.369 139.78 191.429 139.54C191.509 139.3 191.549 139.16 191.549 139.12L193.769 139.118C193.769 139.258 193.709 139.528 193.589 139.928C193.47 140.328 193.26 140.769 192.96 141.249C192.68 141.709 192.301 142.109 191.821 142.449C191.361 142.79 190.781 142.96 190.081 142.96ZM206.298 161.311C205.018 161.312 203.868 161.102 202.848 160.683C201.828 160.244 200.957 159.644 200.237 158.884C199.536 158.125 198.996 157.255 198.615 156.275C198.235 155.296 198.044 154.266 198.044 153.186C198.043 152.086 198.232 151.046 198.612 150.065C198.991 149.085 199.531 148.215 200.23 147.454C200.95 146.694 201.819 146.104 202.839 145.683C203.859 145.242 205.009 145.022 206.289 145.021C207.569 145.02 208.709 145.24 209.709 145.679C210.729 146.098 211.6 146.688 212.32 147.447C213.041 148.207 213.581 149.077 213.942 150.057C214.322 151.036 214.513 152.076 214.514 153.176C214.514 154.256 214.325 155.286 213.945 156.267C213.586 157.247 213.046 158.117 212.327 158.877C211.627 159.638 210.768 160.238 209.748 160.679C208.728 161.1 207.578 161.31 206.298 161.311ZM202.184 153.183C202.184 154.103 202.365 154.923 202.725 155.643C203.085 156.343 203.576 156.893 204.196 157.292C204.816 157.692 205.516 157.891 206.296 157.891C207.056 157.891 207.746 157.69 208.366 157.29C208.986 156.869 209.475 156.309 209.835 155.609C210.215 154.889 210.404 154.069 210.404 153.149C210.403 152.249 210.213 151.439 209.832 150.719C209.472 149.999 208.981 149.439 208.361 149.04C207.741 148.64 207.051 148.441 206.291 148.441C205.511 148.441 204.811 148.652 204.191 149.072C203.571 149.473 203.082 150.033 202.722 150.753C202.363 151.453 202.183 152.263 202.184 153.183Z" fill="#5F6380"/>
<path d="M107 64L95 74L107 84" stroke="#5F6380" stroke-linecap="round" stroke-linejoin="round"/>
<path d="M139 64L151 74L139 84" stroke="#5F6380" stroke-linecap="round" stroke-linejoin="round"/>
<path d="M131 52L115 96" stroke="#5F6380" stroke-linecap="round" stroke-linejoin="round"/>
<g filter="url(#filter0_d_30_1169)">
<circle cx="143" cy="76" r="20" fill="#5F6380" fill-opacity="0.2" shape-rendering="crispEdges"/>
</g>
<defs>
<filter id="filter0_d_30_1169" x="119" y="56" width="48" height="48" filterUnits="userSpaceOnUse" color-interpolation-filters="sRGB">
<feFlood flood-opacity="0" result="BackgroundImageFix"/>
<feColorMatrix in="SourceAlpha" type="matrix" values="0 0 0 0 0 0 0 0 0 0 0 0 0 0 0 0 0 0 127 0" result="hardAlpha"/>
<feOffset dy="4"/>
<feGaussianBlur stdDeviation="2"/>
<feComposite in2="hardAlpha" operator="out"/>
<feColorMatrix type="matrix" values="0 0 0 0 0 0 0 0 0 0 0 0 0 0 0 0 0 0 0.25 0"/>
<feBlend mode="normal" in2="BackgroundImageFix" result="effect1_dropShadow_30_1169"/>
<feBlend mode="normal" in="SourceGraphic" in2="effect1_dropShadow_30_1169" result="shape"/>
</filter>
</defs>
</svg>
