<svg width="38" height="38" viewBox="0 0 38 38" fill="none" xmlns="http://www.w3.org/2000/svg">
<path fill-rule="evenodd" clip-rule="evenodd" d="M19 0C8.5025 0 0 8.71756 0 19.4806C0 28.1007 5.43875 35.3816 12.9912 37.9628C13.9412 38.1332 14.2975 37.5488 14.2975 37.0375C14.2975 36.5748 14.2737 35.0407 14.2737 33.4092C9.5 34.3102 8.265 32.216 7.885 31.1202C7.67125 30.5602 6.745 28.8313 5.9375 28.3686C5.2725 28.0033 4.3225 27.1024 5.91375 27.078C7.41 27.0537 8.47875 28.4904 8.835 29.0748C10.545 32.0212 13.2762 31.1933 14.3687 30.6819C14.535 29.4157 15.0337 28.5634 15.58 28.0764C11.3525 27.5894 6.935 25.9092 6.935 18.4579C6.935 16.3393 7.67125 14.5861 8.8825 13.2224C8.6925 12.7354 8.0275 10.7387 9.0725 8.06009C9.0725 8.06009 10.6637 7.54873 14.2975 10.0569C15.8175 9.61854 17.4325 9.39938 19.0475 9.39938C20.6625 9.39938 22.2775 9.61854 23.7975 10.0569C27.4312 7.52437 29.0225 8.06009 29.0225 8.06009C30.0675 10.7387 29.4025 12.7354 29.2125 13.2224C30.4237 14.5861 31.16 16.315 31.16 18.4579C31.16 25.9335 26.7187 27.5894 22.4912 28.0764C23.18 28.6852 23.7737 29.854 23.7737 31.6803C23.7737 34.2858 23.75 36.38 23.75 37.0375C23.75 37.5488 24.1062 38.1576 25.0562 37.9628C32.5612 35.3816 38 28.0764 38 19.4806C38 8.71756 29.4975 0 19 0Z" fill="#5F6380" fill-opacity="0.5"/>
</svg>
