<svg width="38" height="38" viewBox="0 0 38 38" fill="none" xmlns="http://www.w3.org/2000/svg">
<g clip-path="url(#clip0_30_1345)">
<path d="M24.9375 19C24.9375 20.5747 24.3119 22.0849 23.1984 23.1984C22.0849 24.3119 20.5747 24.9375 19 24.9375C17.4253 24.9375 15.9151 24.3119 14.8016 23.1984C13.6881 22.0849 13.0625 20.5747 13.0625 19C13.0638 18.6609 13.0961 18.331 13.1595 18.0104H11.0833V25.9211C11.0833 26.4714 11.5286 26.9167 12.0789 26.9167H25.9231C26.1868 26.9161 26.4395 26.811 26.6258 26.6244C26.8121 26.4377 26.9167 26.1848 26.9167 25.9211V18.0104H24.8405C24.9039 18.331 24.9362 18.6609 24.9375 19ZM19 22.9583C19.5199 22.9582 20.0348 22.8557 20.5151 22.6566C20.9954 22.4575 21.4318 22.1657 21.7994 21.798C22.1669 21.4302 22.4585 20.9937 22.6573 20.5133C22.8562 20.0328 22.9585 19.518 22.9583 18.998C22.9582 18.4781 22.8557 17.9632 22.6566 17.4829C22.4575 17.0026 22.1657 16.5662 21.798 16.1986C21.4302 15.8311 20.9937 15.5395 20.5133 15.3407C20.0328 15.1418 19.518 15.0396 18.998 15.0397C17.9479 15.0399 16.941 15.4573 16.1986 16.2C15.4563 16.9427 15.0394 17.9499 15.0397 19C15.0399 20.0501 15.4573 21.057 16.2 21.7994C16.9427 22.5417 17.9499 22.9586 19 22.9583ZM23.75 14.8438H26.123C26.2012 14.844 26.2786 14.8288 26.3508 14.7991C26.4231 14.7694 26.4888 14.7257 26.5441 14.6705C26.5995 14.6154 26.6434 14.5498 26.6734 14.4777C26.7033 14.4055 26.7188 14.3281 26.7188 14.25V11.877C26.719 11.7987 26.7038 11.7211 26.6739 11.6487C26.6441 11.5763 26.6002 11.5105 26.5448 11.4552C26.4895 11.3998 26.4237 11.3559 26.3513 11.3261C26.2789 11.2962 26.2013 11.281 26.123 11.2812H23.75C23.6717 11.281 23.5941 11.2962 23.5217 11.3261C23.4493 11.3559 23.3835 11.3998 23.3282 11.4552C23.2728 11.5105 23.2289 11.5763 23.1991 11.6487C23.1692 11.7211 23.154 11.7987 23.1543 11.877V14.25C23.1562 14.5766 23.4234 14.8438 23.75 14.8438ZM19 0C13.9609 0 9.12816 2.00178 5.56497 5.56497C2.00178 9.12816 0 13.9609 0 19C0 24.0391 2.00178 28.8718 5.56497 32.435C9.12816 35.9982 13.9609 38 19 38C21.4951 38 23.9658 37.5086 26.271 36.5537C28.5762 35.5989 30.6707 34.1993 32.435 32.435C34.1993 30.6707 35.5989 28.5762 36.5537 26.271C37.5086 23.9658 38 21.4951 38 19C38 16.5049 37.5086 14.0342 36.5537 11.729C35.5989 9.42383 34.1993 7.32928 32.435 5.56497C30.6707 3.80066 28.5762 2.40113 26.271 1.44629C23.9658 0.49145 21.4951 0 19 0ZM28.8958 26.697C28.8958 27.9062 27.9062 28.8958 26.697 28.8958H11.303C10.0938 28.8958 9.10417 27.9062 9.10417 26.697V11.303C9.10417 10.0938 10.0938 9.10417 11.303 9.10417H26.697C27.9062 9.10417 28.8958 10.0938 28.8958 11.303V26.697Z" fill="#5F6380" fill-opacity="0.5"/>
</g>
<defs>
<clipPath id="clip0_30_1345">
<rect width="38" height="38" fill="white"/>
</clipPath>
</defs>
</svg>
