<svg width="38" height="38" viewBox="0 0 38 38" fill="none" xmlns="http://www.w3.org/2000/svg">
<g clip-path="url(#clip0_30_1347)">
<path d="M18.9999 0C29.4939 0 38 8.50725 38 19.0001C38 29.4929 29.4939 38 18.9999 38C8.50594 38 0 29.4928 0 19.0001C0 8.50738 8.50607 0 18.9999 0Z" fill="#5F6380" fill-opacity="0.5"/>
<path d="M10.7065 26.1059H14.2643V14.2475H10.7065V26.1059ZM24.5671 13.8368C22.8404 13.8368 21.2955 14.4673 20.1995 15.8591V14.2085H16.6287V26.1061H20.1995V19.6722C20.1995 18.3125 21.4452 16.986 23.0056 16.986C24.5659 16.986 24.9507 18.3125 24.9507 19.6389V26.1049H28.5085V19.3741C28.5084 14.6989 26.2949 13.8368 24.5671 13.8368ZM12.4688 13.0625C13.4521 13.0625 14.2501 12.2644 14.2501 11.2812C14.2501 10.2979 13.4521 9.5 12.4688 9.5C11.4855 9.5 10.6875 10.298 10.6875 11.2813C10.6875 12.2646 11.4855 13.0625 12.4688 13.0625Z" fill="#DADADA"/>
</g>
<defs>
<clipPath id="clip0_30_1347">
<rect width="38" height="38" fill="white"/>
</clipPath>
</defs>
</svg>
