<svg width="40" height="40" viewBox="0 0 40 40" fill="none" xmlns="http://www.w3.org/2000/svg">
<path d="M32.8593 5.60933L3.73431 13.8125C3.48638 13.8802 3.26538 14.0228 3.1014 14.2207C2.93742 14.4186 2.83844 14.6623 2.81795 14.9185C2.79745 15.1747 2.85643 15.431 2.98686 15.6525C3.11728 15.874 3.31281 16.0499 3.54681 16.1562L16.9218 22.4843C17.1838 22.6057 17.3942 22.8161 17.5156 23.0781L23.8437 36.4531C23.95 36.6871 24.1259 36.8826 24.3474 37.013C24.5689 37.1435 24.8252 37.2024 25.0814 37.1819C25.3376 37.1614 25.5812 37.0625 25.7792 36.8985C25.9771 36.7345 26.1197 36.5135 26.1874 36.2656L34.3906 7.14058C34.4527 6.92804 34.4566 6.7027 34.4017 6.48816C34.3468 6.27363 34.2352 6.07781 34.0787 5.92123C33.9221 5.76465 33.7263 5.65307 33.5117 5.5982C33.2972 5.54332 33.0718 5.54716 32.8593 5.60933V5.60933Z" stroke="#5F6380" stroke-opacity="0.5" stroke-linecap="round" stroke-linejoin="round"/>
<path d="M17.3281 22.6716L24.3906 15.6091" stroke="#5F6380" stroke-opacity="0.5" stroke-linecap="round" stroke-linejoin="round"/>
</svg>
