<svg width="64" height="64" viewBox="0 0 64 64" fill="none" xmlns="http://www.w3.org/2000/svg">
<g clip-path="url(#clip0_30_1252)">
<path d="M11.333 0.799988C5.0665 0.799988 0 5.86699 0 12.134V51.866C0 58.133 5.0665 63.2 11.333 63.2H52.667C58.9335 63.2 64 58.133 64 51.866V12.134C64 5.86699 58.9335 0.799988 52.667 0.799988H11.333ZM22.9335 16.667C25.12 16.667 26.9335 16.933 28.4265 17.493C29.7653 17.9479 30.986 18.6951 32 19.6805C32.8591 20.5426 33.5231 21.5791 33.947 22.72C34.347 23.84 34.5595 24.9865 34.5595 26.1865C34.5595 28.4798 34.0262 30.3732 32.9595 31.8665C31.8935 33.3595 30.4005 34.48 28.667 35.12C26.8535 35.787 24.8535 36.0265 22.667 36.0265C22.027 36.0265 21.5995 36.0265 21.333 36C21.0665 35.9735 20.693 35.9735 20.1865 35.9735V44.5335C20.213 44.72 20.08 44.8805 19.8935 44.907H14.72C14.507 44.907 14.401 44.7995 14.401 44.5595V17.12C14.401 16.9335 14.481 16.826 14.6675 16.826C15.121 16.826 15.5475 16.826 16.1605 16.8C16.8005 16.773 17.467 16.774 18.187 16.747C18.907 16.7205 19.6805 16.72 20.507 16.6935C21.334 16.6665 22.1335 16.667 22.9335 16.667ZM23.5285 21.919C23.3923 21.9164 23.2561 21.9167 23.12 21.92C22.427 21.92 21.8135 21.9205 21.3065 21.9475C20.7735 21.9205 20.4005 21.947 20.214 21.9735V30.9335C20.587 30.9605 20.933 30.9865 21.253 30.9865H22.667C23.707 30.9865 24.747 30.8265 25.7335 30.5065C26.587 30.2665 27.3335 29.7595 27.92 29.093C28.48 28.426 28.747 27.52 28.747 26.3465C28.7715 25.5134 28.559 24.6905 28.134 23.9735C27.6805 23.2805 27.04 22.7465 26.2665 22.4535C25.403 22.1035 24.4785 21.9375 23.5285 21.919ZM45.8935 23.2805C46.987 23.2805 48.107 23.3595 49.2 23.5195C50 23.626 50.773 23.8405 51.493 24.134C51.6 24.1605 51.7065 24.2665 51.7595 24.373C51.7865 24.4795 51.8135 24.5865 51.8135 24.693V29.04C51.8138 29.0917 51.8019 29.1428 51.7788 29.1891C51.7557 29.2354 51.722 29.2756 51.6805 29.3065C51.4405 29.36 51.307 29.36 51.2005 29.3065C50.4005 28.88 49.5465 28.587 48.6395 28.4005C47.653 28.187 46.6665 28.053 45.6535 28.053C45.12 28.026 44.5595 28.107 44.053 28.24C43.706 28.32 43.413 28.507 43.2265 28.7735C43.0935 28.987 43.0135 29.2535 43.0135 29.4935C43.0135 29.7335 43.1205 29.9735 43.2805 30.1865C43.5205 30.48 43.84 30.7205 44.1865 30.9075C44.8049 31.2271 45.4366 31.5202 46.08 31.786C47.52 32.266 48.9065 32.9335 50.1865 33.7335C51.0665 34.2935 51.7865 35.0405 52.293 35.947C52.722 36.7975 52.933 37.7413 52.907 38.6935C52.9286 39.954 52.5655 41.1912 51.866 42.24C51.1224 43.3044 50.0848 44.129 48.88 44.613C47.573 45.173 45.973 45.4665 44.053 45.4665C42.826 45.4665 41.627 45.36 40.427 45.12C39.4865 44.9575 38.5718 44.6705 37.707 44.2665C37.5205 44.16 37.3865 43.973 37.413 43.7595V39.12C37.413 39.04 37.4395 38.933 37.5195 38.88C37.5995 38.8265 37.6795 38.854 37.7595 38.907C38.7867 39.513 39.9026 39.954 41.0665 40.214C42.08 40.4805 43.147 40.6135 44.214 40.6135C45.227 40.6135 45.947 40.48 46.427 40.24C46.8535 40.0535 47.1465 39.6 47.1465 39.12C47.1465 38.747 46.9335 38.3995 46.5065 38.0525C46.08 37.706 45.2 37.3065 43.8935 36.8C42.5529 36.3278 41.2797 35.6824 40.1065 34.88C39.2709 34.2846 38.5786 33.5103 38.08 32.6135C37.6544 31.7713 37.4438 30.8368 37.467 29.8935C37.467 28.747 37.7865 27.6535 38.373 26.667C39.0395 25.6005 40.027 24.747 41.174 24.214C42.427 23.574 43.9995 23.2805 45.8935 23.2805Z" fill="#5F6380" fill-opacity="0.5"/>
</g>
<defs>
<clipPath id="clip0_30_1252">
<rect width="64" height="64" fill="white"/>
</clipPath>
</defs>
</svg>
