<svg width="144" height="45" viewBox="0 0 144 45" fill="none" xmlns="http://www.w3.org/2000/svg">
<path d="M0 16C0 7.16344 7.16344 0 16 0H128C136.837 0 144 7.16344 144 16V29C144 37.8366 136.837 45 128 45H16C7.16344 45 0 37.8366 0 29V16Z" fill="#5F6380" fill-opacity="0.1"/>
<path d="M17 30.4H37V10.4H17V30.4ZM43.2847 29V14.8H49.3047C49.958 14.8 50.558 14.9333 51.1047 15.2C51.6514 15.4667 52.1247 15.8267 52.5247 16.28C52.938 16.7333 53.258 17.24 53.4847 17.8C53.7114 18.36 53.8247 18.9333 53.8247 19.52C53.8247 20.32 53.638 21.08 53.2647 21.8C52.8914 22.52 52.378 23.1067 51.7247 23.56C51.0714 24.0133 50.298 24.24 49.4047 24.24H46.0447V29H43.2847ZM46.0447 21.82H49.2447C49.578 21.82 49.878 21.7267 50.1447 21.54C50.4114 21.3533 50.6247 21.0867 50.7847 20.74C50.9447 20.38 51.0247 19.9733 51.0247 19.52C51.0247 19.0267 50.9314 18.6067 50.7447 18.26C50.5714 17.9133 50.338 17.6533 50.0447 17.48C49.7647 17.3067 49.458 17.22 49.1247 17.22H46.0447V21.82ZM60.1108 29.2C59.2574 29.2 58.4908 29.06 57.8108 28.78C57.1308 28.4867 56.5508 28.0867 56.0708 27.58C55.6041 27.0733 55.2441 26.4933 54.9908 25.84C54.7374 25.1867 54.6108 24.5 54.6108 23.78C54.6108 23.0467 54.7374 22.3533 54.9908 21.7C55.2441 21.0467 55.6041 20.4667 56.0708 19.96C56.5508 19.4533 57.1308 19.06 57.8108 18.78C58.4908 18.4867 59.2574 18.34 60.1108 18.34C60.9641 18.34 61.7241 18.4867 62.3908 18.78C63.0708 19.06 63.6508 19.4533 64.1308 19.96C64.6108 20.4667 64.9708 21.0467 65.2108 21.7C65.4641 22.3533 65.5908 23.0467 65.5908 23.78C65.5908 24.5 65.4641 25.1867 65.2108 25.84C64.9708 26.4933 64.6108 27.0733 64.1308 27.58C63.6641 28.0867 63.0908 28.4867 62.4108 28.78C61.7308 29.06 60.9641 29.2 60.1108 29.2ZM57.3708 23.78C57.3708 24.3933 57.4908 24.94 57.7308 25.42C57.9708 25.8867 58.2974 26.2533 58.7108 26.52C59.1241 26.7867 59.5908 26.92 60.1108 26.92C60.6174 26.92 61.0774 26.7867 61.4908 26.52C61.9041 26.24 62.2308 25.8667 62.4708 25.4C62.7241 24.92 62.8508 24.3733 62.8508 23.76C62.8508 23.16 62.7241 22.62 62.4708 22.14C62.2308 21.66 61.9041 21.2867 61.4908 21.02C61.0774 20.7533 60.6174 20.62 60.1108 20.62C59.5908 20.62 59.1241 20.76 58.7108 21.04C58.2974 21.3067 57.9708 21.68 57.7308 22.16C57.4908 22.6267 57.3708 23.1667 57.3708 23.78ZM73.6397 20.84C72.8264 20.84 72.0997 21 71.4597 21.32C70.8197 21.6267 70.3597 22.0733 70.0797 22.66V29H67.3997V18.52H69.8597V20.76C70.233 20.04 70.7064 19.4733 71.2797 19.06C71.853 18.6467 72.4597 18.42 73.0997 18.38C73.2464 18.38 73.3597 18.38 73.4397 18.38C73.5197 18.38 73.5864 18.3867 73.6397 18.4V20.84ZM81.4141 28.46C81.1874 28.5533 80.9141 28.66 80.5941 28.78C80.2741 28.9 79.9274 28.9933 79.5541 29.06C79.1941 29.14 78.8274 29.18 78.4541 29.18C77.9607 29.18 77.5074 29.0933 77.0941 28.92C76.6807 28.7467 76.3474 28.4733 76.0941 28.1C75.8541 27.7133 75.7341 27.2133 75.7341 26.6V20.58H74.3541V18.52H75.7341V15.12H78.4141V18.52H80.6141V20.58H78.4141V25.7C78.4274 26.06 78.5274 26.32 78.7141 26.48C78.9007 26.64 79.1341 26.72 79.4141 26.72C79.6941 26.72 79.9674 26.6733 80.2341 26.58C80.5007 26.4867 80.7141 26.4067 80.8741 26.34L81.4141 28.46ZM83.4108 29V21.12H82.0308V19.08H83.4108V18.44C83.4108 17.5733 83.5508 16.8267 83.8308 16.2C84.1241 15.56 84.5308 15.0667 85.0508 14.72C85.5841 14.3733 86.2041 14.2 86.9108 14.2C87.3374 14.2 87.7641 14.2533 88.1908 14.36C88.6308 14.4667 89.0641 14.62 89.4908 14.82L88.9508 16.84C88.7508 16.7333 88.5174 16.6467 88.2508 16.58C87.9841 16.5 87.7308 16.46 87.4908 16.46C87.0374 16.46 86.6908 16.62 86.4508 16.94C86.2108 17.26 86.0908 17.7267 86.0908 18.34V19.08H88.6508V21.12H86.0908V29H83.4108ZM94.8764 29.2C94.0231 29.2 93.2564 29.06 92.5764 28.78C91.8964 28.4867 91.3164 28.0867 90.8364 27.58C90.3697 27.0733 90.0097 26.4933 89.7564 25.84C89.5031 25.1867 89.3764 24.5 89.3764 23.78C89.3764 23.0467 89.5031 22.3533 89.7564 21.7C90.0097 21.0467 90.3697 20.4667 90.8364 19.96C91.3164 19.4533 91.8964 19.06 92.5764 18.78C93.2564 18.4867 94.0231 18.34 94.8764 18.34C95.7297 18.34 96.4897 18.4867 97.1564 18.78C97.8364 19.06 98.4164 19.4533 98.8964 19.96C99.3764 20.4667 99.7364 21.0467 99.9764 21.7C100.23 22.3533 100.356 23.0467 100.356 23.78C100.356 24.5 100.23 25.1867 99.9764 25.84C99.7364 26.4933 99.3764 27.0733 98.8964 27.58C98.4297 28.0867 97.8564 28.4867 97.1764 28.78C96.4964 29.06 95.7297 29.2 94.8764 29.2ZM92.1364 23.78C92.1364 24.3933 92.2564 24.94 92.4964 25.42C92.7364 25.8867 93.0631 26.2533 93.4764 26.52C93.8897 26.7867 94.3564 26.92 94.8764 26.92C95.3831 26.92 95.8431 26.7867 96.2564 26.52C96.6697 26.24 96.9964 25.8667 97.2364 25.4C97.4897 24.92 97.6164 24.3733 97.6164 23.76C97.6164 23.16 97.4897 22.62 97.2364 22.14C96.9964 21.66 96.6697 21.2867 96.2564 21.02C95.8431 20.7533 95.3831 20.62 94.8764 20.62C94.3564 20.62 93.8897 20.76 93.4764 21.04C93.0631 21.3067 92.7364 21.68 92.4964 22.16C92.2564 22.6267 92.1364 23.1667 92.1364 23.78ZM95.7564 17.3L94.0364 16.78L95.1164 14.4H97.6164L95.7564 17.3ZM102.145 14.4H104.825V25.64C104.825 26.12 104.905 26.4467 105.065 26.62C105.225 26.78 105.445 26.86 105.725 26.86C105.939 26.86 106.159 26.8333 106.385 26.78C106.612 26.7267 106.812 26.66 106.985 26.58L107.345 28.62C106.985 28.7933 106.565 28.9267 106.085 29.02C105.605 29.1133 105.172 29.16 104.785 29.16C103.945 29.16 103.292 28.94 102.825 28.5C102.372 28.0467 102.145 27.4067 102.145 26.58V14.4ZM108.513 29V18.52H111.193V29H108.513ZM108.513 17.06V14.4H111.193V17.06H108.513ZM118.451 29.2C117.597 29.2 116.831 29.06 116.151 28.78C115.471 28.4867 114.891 28.0867 114.411 27.58C113.944 27.0733 113.584 26.4933 113.331 25.84C113.077 25.1867 112.951 24.5 112.951 23.78C112.951 23.0467 113.077 22.3533 113.331 21.7C113.584 21.0467 113.944 20.4667 114.411 19.96C114.891 19.4533 115.471 19.06 116.151 18.78C116.831 18.4867 117.597 18.34 118.451 18.34C119.304 18.34 120.064 18.4867 120.731 18.78C121.411 19.06 121.991 19.4533 122.471 19.96C122.951 20.4667 123.311 21.0467 123.551 21.7C123.804 22.3533 123.931 23.0467 123.931 23.78C123.931 24.5 123.804 25.1867 123.551 25.84C123.311 26.4933 122.951 27.0733 122.471 27.58C122.004 28.0867 121.431 28.4867 120.751 28.78C120.071 29.06 119.304 29.2 118.451 29.2ZM115.711 23.78C115.711 24.3933 115.831 24.94 116.071 25.42C116.311 25.8867 116.637 26.2533 117.051 26.52C117.464 26.7867 117.931 26.92 118.451 26.92C118.957 26.92 119.417 26.7867 119.831 26.52C120.244 26.24 120.571 25.8667 120.811 25.4C121.064 24.92 121.191 24.3733 121.191 23.76C121.191 23.16 121.064 22.62 120.811 22.14C120.571 21.66 120.244 21.2867 119.831 21.02C119.417 20.7533 118.957 20.62 118.451 20.62C117.931 20.62 117.464 20.76 117.051 21.04C116.637 21.3067 116.311 21.68 116.071 22.16C115.831 22.6267 115.711 23.1667 115.711 23.78Z" fill="#5F6380"/>
</svg>
