<svg width="246" height="200" viewBox="0 0 246 200" fill="none" xmlns="http://www.w3.org/2000/svg">
<rect width="246" height="200" rx="16" fill="#5F6380" fill-opacity="0.1"/>
<path d="M93.3582 134.109L93.3565 131.261L88.0285 131.264L88.0279 130.304L93.7037 122.941L94.4397 122.94L94.4439 130.268L95.8519 130.268L95.8525 131.26L94.4445 131.26L94.4462 134.108L93.3582 134.109ZM89.1799 130.271L93.4679 130.269L93.4647 124.653L89.1799 130.271ZM101 129.673C101 129.15 101.149 128.702 101.447 128.328C101.746 127.944 102.156 127.651 102.679 127.448C103.212 127.234 103.825 127.127 104.519 127.127C104.924 127.126 105.345 127.158 105.783 127.222C106.22 127.286 106.609 127.381 106.951 127.509L106.95 126.805C106.95 126.101 106.742 125.541 106.325 125.126C105.909 124.71 105.333 124.502 104.597 124.503C104.149 124.503 103.706 124.588 103.269 124.759C102.843 124.92 102.395 125.16 101.926 125.48L101.509 124.712C102.053 124.339 102.586 124.061 103.109 123.879C103.631 123.687 104.165 123.591 104.709 123.59C105.733 123.59 106.543 123.883 107.141 124.469C107.739 125.055 108.038 125.866 108.038 126.901L108.041 130.757C108.041 130.906 108.073 131.018 108.137 131.092C108.201 131.156 108.302 131.194 108.441 131.204L108.441 132.068C108.324 132.079 108.223 132.09 108.137 132.1C108.052 132.111 107.988 132.111 107.945 132.101C107.679 132.09 107.476 132.005 107.337 131.845C107.199 131.685 107.124 131.514 107.113 131.333L107.097 130.725C106.724 131.205 106.239 131.579 105.641 131.846C105.044 132.102 104.436 132.231 103.818 132.231C103.284 132.231 102.799 132.12 102.361 131.896C101.935 131.661 101.598 131.352 101.353 130.968C101.118 130.574 101 130.142 101 129.673ZM106.584 130.309C106.702 130.16 106.792 130.016 106.856 129.877C106.92 129.738 106.952 129.616 106.952 129.509L106.951 128.293C106.589 128.155 106.21 128.048 105.815 127.974C105.431 127.899 105.042 127.862 104.647 127.862C103.868 127.863 103.239 128.018 102.759 128.328C102.279 128.637 102.04 129.059 102.04 129.592C102.04 129.901 102.12 130.195 102.281 130.472C102.441 130.738 102.675 130.962 102.985 131.143C103.294 131.314 103.657 131.399 104.073 131.399C104.596 131.399 105.081 131.297 105.529 131.094C105.987 130.891 106.339 130.629 106.584 130.309ZM117.4 132.063L116.312 132.064L116.31 127.408C116.309 126.426 116.165 125.712 115.876 125.264C115.588 124.805 115.135 124.576 114.516 124.577C114.089 124.577 113.668 124.684 113.252 124.897C112.836 125.1 112.468 125.383 112.149 125.746C111.839 126.098 111.616 126.504 111.477 126.963L111.48 132.067L110.392 132.067L110.387 123.731L111.379 123.731L111.38 125.619C111.604 125.213 111.897 124.861 112.26 124.562C112.622 124.253 113.033 124.012 113.491 123.841C113.95 123.67 114.425 123.585 114.915 123.585C115.374 123.584 115.763 123.669 116.083 123.84C116.404 124.01 116.66 124.256 116.852 124.575C117.044 124.885 117.183 125.263 117.269 125.711C117.354 126.148 117.397 126.639 117.397 127.183L117.4 132.063ZM123.272 132.22C122.675 132.22 122.12 132.108 121.608 131.885C121.107 131.65 120.669 131.336 120.296 130.941C119.933 130.536 119.65 130.078 119.447 129.566C119.244 129.043 119.142 128.494 119.142 127.918C119.142 127.321 119.243 126.766 119.445 126.254C119.647 125.731 119.935 125.272 120.308 124.877C120.681 124.472 121.118 124.157 121.62 123.933C122.131 123.698 122.686 123.58 123.283 123.58C123.881 123.579 124.43 123.696 124.932 123.931C125.433 124.154 125.871 124.469 126.244 124.874C126.618 125.268 126.906 125.727 127.109 126.249C127.312 126.761 127.414 127.316 127.414 127.913C127.414 128.489 127.313 129.039 127.111 129.561C126.909 130.074 126.621 130.532 126.248 130.938C125.885 131.333 125.448 131.648 124.936 131.883C124.435 132.107 123.88 132.219 123.272 132.22ZM120.246 127.933C120.246 128.552 120.38 129.117 120.647 129.629C120.925 130.13 121.293 130.53 121.752 130.829C122.21 131.116 122.717 131.26 123.272 131.26C123.827 131.259 124.333 131.11 124.792 130.811C125.25 130.512 125.618 130.106 125.895 129.594C126.172 129.071 126.31 128.506 126.31 127.898C126.31 127.279 126.171 126.714 125.893 126.202C125.615 125.69 125.247 125.285 124.788 124.987C124.329 124.688 123.823 124.539 123.268 124.54C122.713 124.54 122.207 124.695 121.748 125.005C121.3 125.314 120.938 125.725 120.661 126.237C120.384 126.739 120.246 127.304 120.246 127.933ZM131.972 132.215C131.289 132.215 130.655 132.103 130.068 131.88C129.481 131.656 128.974 131.315 128.547 130.857L128.995 130.088C129.464 130.525 129.934 130.845 130.403 131.048C130.883 131.239 131.39 131.335 131.924 131.335C132.574 131.334 133.102 131.206 133.507 130.95C133.913 130.683 134.115 130.304 134.115 129.813C134.114 129.483 134.013 129.232 133.81 129.062C133.618 128.88 133.335 128.737 132.962 128.63C132.599 128.513 132.162 128.391 131.65 128.263C131.074 128.103 130.588 127.938 130.193 127.768C129.809 127.587 129.516 127.363 129.313 127.096C129.121 126.819 129.025 126.462 129.024 126.024C129.024 125.48 129.157 125.032 129.424 124.68C129.701 124.317 130.074 124.045 130.543 123.863C131.023 123.671 131.556 123.575 132.143 123.575C132.783 123.574 133.348 123.675 133.839 123.878C134.33 124.08 134.73 124.362 135.04 124.725L134.512 125.461C134.213 125.12 133.856 124.87 133.44 124.71C133.034 124.539 132.581 124.454 132.08 124.455C131.738 124.455 131.413 124.503 131.104 124.599C130.794 124.685 130.538 124.834 130.336 125.048C130.144 125.25 130.048 125.533 130.048 125.896C130.049 126.194 130.123 126.429 130.273 126.6C130.422 126.76 130.646 126.898 130.945 127.015C131.244 127.122 131.612 127.239 132.049 127.367C132.679 127.537 133.228 127.713 133.698 127.894C134.167 128.064 134.53 128.288 134.786 128.565C135.042 128.842 135.17 129.231 135.171 129.733C135.171 130.511 134.878 131.12 134.292 131.557C133.705 131.995 132.932 132.214 131.972 132.215ZM140.486 127.906C140.486 127.116 140.645 126.396 140.965 125.745C141.295 125.084 141.748 124.556 142.324 124.161C142.9 123.766 143.556 123.568 144.292 123.568C144.985 123.567 145.604 123.753 146.148 124.126C146.703 124.489 147.135 124.931 147.445 125.454L147.442 120.366L148.53 120.365L148.536 130.733C148.536 130.882 148.568 130.994 148.632 131.069C148.696 131.133 148.792 131.17 148.92 131.181L148.92 132.045C148.707 132.077 148.542 132.088 148.424 132.077C148.2 132.067 148.003 131.976 147.832 131.805C147.662 131.635 147.576 131.448 147.576 131.246L147.576 130.43C147.245 130.974 146.797 131.406 146.232 131.726C145.667 132.047 145.081 132.207 144.473 132.207C143.897 132.208 143.363 132.091 142.872 131.856C142.392 131.622 141.971 131.302 141.608 130.897C141.256 130.492 140.978 130.033 140.775 129.522C140.583 128.999 140.486 128.46 140.486 127.906ZM147.447 129.182L147.445 126.606C147.306 126.222 147.082 125.875 146.773 125.566C146.463 125.246 146.111 124.996 145.716 124.815C145.332 124.623 144.948 124.527 144.564 124.527C144.116 124.528 143.711 124.624 143.348 124.816C142.986 124.998 142.671 125.248 142.405 125.569C142.149 125.889 141.952 126.252 141.813 126.657C141.675 127.062 141.606 127.478 141.606 127.905C141.606 128.353 141.681 128.78 141.831 129.185C141.991 129.59 142.215 129.953 142.503 130.273C142.792 130.582 143.122 130.822 143.496 130.992C143.869 131.162 144.275 131.248 144.712 131.247C144.989 131.247 145.277 131.194 145.576 131.087C145.875 130.98 146.157 130.836 146.424 130.654C146.701 130.462 146.93 130.238 147.111 129.982C147.292 129.726 147.404 129.459 147.447 129.182ZM154.602 132.202C154.004 132.202 153.45 132.09 152.937 131.867C152.425 131.632 151.983 131.318 151.609 130.923C151.235 130.518 150.942 130.054 150.728 129.532C150.525 129.009 150.424 128.449 150.423 127.852C150.423 127.073 150.598 126.359 150.95 125.708C151.312 125.057 151.808 124.539 152.437 124.155C153.066 123.76 153.781 123.562 154.581 123.562C155.402 123.561 156.117 123.758 156.725 124.152C157.344 124.547 157.83 125.069 158.182 125.719C158.534 126.359 158.711 127.063 158.711 127.831C158.711 127.916 158.711 128.002 158.711 128.087C158.711 128.162 158.706 128.22 158.695 128.263L151.559 128.267C151.613 128.865 151.779 129.398 152.056 129.867C152.345 130.326 152.713 130.693 153.161 130.97C153.62 131.237 154.116 131.37 154.649 131.37C155.193 131.369 155.705 131.23 156.185 130.953C156.675 130.675 157.017 130.312 157.208 129.864L158.152 130.119C157.982 130.514 157.721 130.872 157.369 131.192C157.017 131.512 156.601 131.763 156.122 131.945C155.652 132.116 155.146 132.201 154.602 132.202ZM151.527 127.483L157.687 127.48C157.644 126.872 157.478 126.339 157.19 125.88C156.912 125.422 156.544 125.064 156.085 124.809C155.637 124.542 155.141 124.409 154.597 124.41C154.053 124.41 153.557 124.543 153.109 124.81C152.662 125.067 152.294 125.43 152.006 125.899C151.729 126.358 151.569 126.886 151.527 127.483Z" fill="#5F6380"/>
<path d="M87.452 158.208L87.4543 162.08L71.6783 162.089L71.6651 139.369L87.1531 139.36L87.1553 143.232L76.0833 143.238L76.0865 148.71L85.6545 148.705L85.6566 152.289L76.0886 152.294L76.092 158.214L87.452 158.208ZM96.5947 162.395C95.1654 162.395 93.7999 162.161 92.4983 161.693C91.1967 161.224 90.0763 160.532 89.1371 159.615L90.6715 156.83C91.6746 157.64 92.6563 158.237 93.6165 158.62C94.5981 159.004 95.5368 159.195 96.4328 159.195C97.2648 159.194 97.9261 159.044 98.4166 158.745C98.9284 158.447 99.1841 157.998 99.1838 157.401C99.1836 156.996 99.0447 156.686 98.7673 156.473C98.4898 156.239 98.0843 156.036 97.5509 155.866C97.0388 155.696 96.4094 155.504 95.6626 155.291C94.425 154.886 93.3901 154.492 92.5579 154.109C91.7257 153.725 91.0961 153.246 90.6691 152.67C90.2634 152.073 90.0603 151.316 90.0597 150.398C90.0591 149.289 90.3359 148.339 90.8901 147.55C91.4656 146.739 92.2546 146.109 93.257 145.66C94.2807 145.212 95.4753 144.987 96.8406 144.986C98.0353 144.986 99.1661 145.177 100.233 145.56C101.3 145.922 102.271 146.519 103.146 147.351L101.42 150.072C100.566 149.411 99.7549 148.931 98.9867 148.633C98.2185 148.314 97.4398 148.154 96.6504 148.154C96.2024 148.155 95.7758 148.208 95.3705 148.315C94.9866 148.422 94.6667 148.604 94.4109 148.86C94.1763 149.095 94.0592 149.436 94.0594 149.884C94.0597 150.289 94.1665 150.609 94.38 150.844C94.6148 151.057 94.9562 151.249 95.4043 151.419C95.8738 151.59 96.4392 151.781 97.1007 151.994C98.4449 152.377 99.5758 152.771 100.493 153.176C101.432 153.581 102.137 154.082 102.606 154.679C103.076 155.255 103.311 156.055 103.312 157.079C103.313 158.743 102.705 160.044 101.49 160.984C100.274 161.923 98.6427 162.393 96.5947 162.395ZM116.185 161.199C115.822 161.349 115.385 161.52 114.873 161.712C114.361 161.904 113.807 162.054 113.209 162.161C112.633 162.289 112.047 162.354 111.449 162.354C110.66 162.354 109.935 162.216 109.273 161.939C108.612 161.662 108.078 161.225 107.672 160.628C107.288 160.01 107.096 159.21 107.095 158.228L107.089 148.596L104.881 148.598L104.88 145.302L107.088 145.3L107.084 139.86L111.372 139.858L111.376 145.298L114.896 145.296L114.897 148.592L111.377 148.594L111.382 156.786C111.404 157.362 111.564 157.778 111.863 158.034C112.162 158.29 112.535 158.417 112.983 158.417C113.431 158.417 113.868 158.342 114.295 158.192C114.722 158.043 115.063 157.914 115.319 157.808L116.185 161.199ZM118.255 155.79L118.249 145.294L122.537 145.291L122.542 154.859C122.543 156.139 122.778 157.11 123.248 157.771C123.718 158.411 124.411 158.73 125.329 158.73C125.883 158.73 126.427 158.623 126.96 158.409C127.515 158.174 128.016 157.832 128.464 157.384C128.933 156.936 129.327 156.37 129.647 155.687L129.641 145.287L133.929 145.285L133.936 157.253C133.936 157.701 134.011 158.021 134.16 158.213C134.331 158.405 134.598 158.522 134.96 158.564L134.963 162.052C134.536 162.117 134.173 162.159 133.875 162.181C133.597 162.224 133.341 162.245 133.107 162.245C132.339 162.246 131.709 162.076 131.218 161.734C130.749 161.372 130.471 160.882 130.385 160.263L130.289 158.919C129.543 160.05 128.583 160.915 127.41 161.513C126.237 162.089 124.947 162.378 123.539 162.379C121.811 162.38 120.498 161.826 119.602 160.717C118.705 159.587 118.256 157.945 118.255 155.79ZM137.171 153.667C137.17 152.046 137.489 150.584 138.128 149.282C138.768 147.959 139.652 146.914 140.783 146.145C141.913 145.376 143.203 144.992 144.654 144.991C145.891 144.99 147.001 145.299 147.982 145.917C148.985 146.514 149.765 147.281 150.32 148.219L150.314 138.683L154.602 138.681L154.613 157.241C154.613 157.689 154.688 158.009 154.838 158.201C154.987 158.393 155.243 158.51 155.606 158.552L155.608 162.04C154.861 162.19 154.253 162.265 153.784 162.265C153.016 162.266 152.376 162.074 151.864 161.691C151.373 161.307 151.095 160.806 151.031 160.187L150.966 159.131C150.348 160.177 149.506 160.977 148.439 161.532C147.394 162.088 146.296 162.366 145.144 162.366C143.992 162.367 142.925 162.144 141.944 161.696C140.983 161.249 140.14 160.631 139.414 159.842C138.71 159.053 138.155 158.136 137.749 157.091C137.364 156.024 137.172 154.883 137.171 153.667ZM150.324 155.899L150.322 151.899C150.108 151.281 149.767 150.726 149.297 150.236C148.827 149.746 148.304 149.362 147.728 149.085C147.152 148.787 146.576 148.638 146 148.638C145.339 148.638 144.741 148.777 144.208 149.055C143.675 149.333 143.206 149.706 142.801 150.176C142.417 150.645 142.119 151.189 141.906 151.808C141.714 152.427 141.619 153.078 141.619 153.76C141.619 154.443 141.726 155.094 141.94 155.712C142.175 156.309 142.506 156.832 142.933 157.28C143.36 157.727 143.851 158.079 144.406 158.335C144.982 158.59 145.6 158.718 146.262 158.718C146.667 158.718 147.072 158.653 147.478 158.525C147.904 158.375 148.299 158.183 148.661 157.948C149.045 157.692 149.376 157.393 149.653 157.052C149.951 156.689 150.175 156.305 150.324 155.899ZM166.569 162.354C165.204 162.355 163.977 162.131 162.889 161.684C161.8 161.215 160.872 160.576 160.103 159.766C159.356 158.956 158.78 158.028 158.374 156.983C157.968 155.938 157.765 154.839 157.764 153.687C157.763 152.514 157.965 151.404 158.37 150.359C158.775 149.313 159.35 148.385 160.096 147.574C160.864 146.763 161.792 146.133 162.879 145.684C163.967 145.214 165.194 144.979 166.559 144.978C167.924 144.977 169.14 145.211 170.207 145.68C171.296 146.127 172.224 146.756 172.992 147.566C173.761 148.376 174.337 149.304 174.722 150.349C175.128 151.394 175.331 152.504 175.332 153.677C175.333 154.829 175.131 155.928 174.726 156.973C174.342 158.019 173.767 158.947 172.999 159.758C172.253 160.569 171.336 161.21 170.249 161.68C169.161 162.128 167.934 162.353 166.569 162.354ZM162.18 153.685C162.18 154.666 162.373 155.54 162.757 156.308C163.142 157.055 163.665 157.641 164.326 158.067C164.988 158.494 165.735 158.706 166.567 158.706C167.377 158.706 168.113 158.492 168.774 158.065C169.436 157.616 169.958 157.019 170.341 156.272C170.746 155.504 170.948 154.629 170.948 153.647C170.947 152.687 170.744 151.824 170.338 151.056C169.954 150.288 169.431 149.691 168.769 149.265C168.108 148.838 167.372 148.626 166.561 148.626C165.729 148.626 164.982 148.851 164.321 149.299C163.66 149.726 163.138 150.324 162.754 151.092C162.371 151.839 162.179 152.703 162.18 153.685Z" fill="#5F6380"/>
<path d="M101 56H145V86C145 86.5304 144.789 87.0391 144.414 87.4142C144.039 87.7893 143.53 88 143 88H133C132.47 88 131.961 87.7893 131.586 87.4142C131.211 87.0391 131 86.5304 131 86V80H115V94C115 94.5304 114.789 95.0391 114.414 95.4142C114.039 95.7893 113.53 96 113 96H103C102.47 96 101.961 95.7893 101.586 95.4142C101.211 95.0391 101 94.5304 101 94V56Z" stroke="#5F6380" stroke-linecap="round" stroke-linejoin="round"/>
<path d="M115 72H101" stroke="#5F6380" stroke-linecap="round" stroke-linejoin="round"/>
<path d="M115 56V80" stroke="#5F6380" stroke-linecap="round" stroke-linejoin="round"/>
<path d="M131 72H145" stroke="#5F6380" stroke-linecap="round" stroke-linejoin="round"/>
<path d="M131 56V80" stroke="#5F6380" stroke-linecap="round" stroke-linejoin="round"/>
<g filter="url(#filter0_d_30_1181)">
<circle cx="123" cy="76" r="20" fill="#5F6380" fill-opacity="0.2" shape-rendering="crispEdges"/>
</g>
<defs>
<filter id="filter0_d_30_1181" x="99" y="56" width="48" height="48" filterUnits="userSpaceOnUse" color-interpolation-filters="sRGB">
<feFlood flood-opacity="0" result="BackgroundImageFix"/>
<feColorMatrix in="SourceAlpha" type="matrix" values="0 0 0 0 0 0 0 0 0 0 0 0 0 0 0 0 0 0 127 0" result="hardAlpha"/>
<feOffset dy="4"/>
<feGaussianBlur stdDeviation="2"/>
<feComposite in2="hardAlpha" operator="out"/>
<feColorMatrix type="matrix" values="0 0 0 0 0 0 0 0 0 0 0 0 0 0 0 0 0 0 0.25 0"/>
<feBlend mode="normal" in2="BackgroundImageFix" result="effect1_dropShadow_30_1181"/>
<feBlend mode="normal" in="SourceGraphic" in2="effect1_dropShadow_30_1181" result="shape"/>
</filter>
</defs>
</svg>
