<svg width="150" height="38" viewBox="0 0 150 38" fill="none" xmlns="http://www.w3.org/2000/svg">
<path fill-rule="evenodd" clip-rule="evenodd" d="M75 0C64.5025 0 56 8.71756 56 19.4806C56 28.1007 61.4387 35.3816 68.9912 37.9628C69.9412 38.1332 70.2975 37.5488 70.2975 37.0375C70.2975 36.5748 70.2737 35.0407 70.2737 33.4092C65.5 34.3102 64.265 32.216 63.885 31.1202C63.6712 30.5602 62.745 28.8313 61.9375 28.3686C61.2725 28.0033 60.3225 27.1024 61.9138 27.078C63.41 27.0537 64.4788 28.4904 64.835 29.0748C66.545 32.0212 69.2762 31.1933 70.3687 30.6819C70.535 29.4157 71.0337 28.5634 71.58 28.0764C67.3525 27.5894 62.935 25.9092 62.935 18.4579C62.935 16.3393 63.6713 14.5861 64.8825 13.2224C64.6925 12.7354 64.0275 10.7387 65.0725 8.06009C65.0725 8.06009 66.6637 7.54873 70.2975 10.0569C71.8175 9.61854 73.4325 9.39938 75.0475 9.39938C76.6625 9.39938 78.2775 9.61854 79.7975 10.0569C83.4312 7.52437 85.0225 8.06009 85.0225 8.06009C86.0675 10.7387 85.4025 12.7354 85.2125 13.2224C86.4237 14.5861 87.16 16.315 87.16 18.4579C87.16 25.9335 82.7187 27.5894 78.4912 28.0764C79.18 28.6852 79.7737 29.854 79.7737 31.6803C79.7737 34.2858 79.75 36.38 79.75 37.0375C79.75 37.5488 80.1062 38.1576 81.0562 37.9628C88.5612 35.3816 94 28.0764 94 19.4806C94 8.71756 85.4975 0 75 0Z" fill="#5F6380" fill-opacity="0.5"/>
<g clip-path="url(#clip0_30_1341)">
<path d="M136.938 19C136.938 20.5747 136.312 22.0849 135.198 23.1984C134.085 24.3119 132.575 24.9375 131 24.9375C129.425 24.9375 127.915 24.3119 126.802 23.1984C125.688 22.0849 125.062 20.5747 125.062 19C125.064 18.6609 125.096 18.331 125.159 18.0104H123.083V25.9211C123.083 26.4714 123.529 26.9167 124.079 26.9167H137.923C138.187 26.9161 138.44 26.811 138.626 26.6244C138.812 26.4377 138.917 26.1848 138.917 25.9211V18.0104H136.841C136.904 18.331 136.936 18.6609 136.938 19ZM131 22.9583C131.52 22.9582 132.035 22.8557 132.515 22.6566C132.995 22.4575 133.432 22.1657 133.799 21.798C134.167 21.4302 134.458 20.9937 134.657 20.5133C134.856 20.0328 134.958 19.518 134.958 18.998C134.958 18.4781 134.856 17.9632 134.657 17.4829C134.457 17.0026 134.166 16.5662 133.798 16.1986C133.43 15.8311 132.994 15.5395 132.513 15.3407C132.033 15.1418 131.518 15.0396 130.998 15.0397C129.948 15.0399 128.941 15.4573 128.199 16.2C127.456 16.9427 127.039 17.9499 127.04 19C127.04 20.0501 127.457 21.057 128.2 21.7994C128.943 22.5417 129.95 22.9586 131 22.9583ZM135.75 14.8438H138.123C138.201 14.844 138.279 14.8288 138.351 14.7991C138.423 14.7694 138.489 14.7257 138.544 14.6705C138.599 14.6154 138.643 14.5498 138.673 14.4777C138.703 14.4055 138.719 14.3281 138.719 14.25V11.877C138.719 11.7987 138.704 11.7211 138.674 11.6487C138.644 11.5763 138.6 11.5105 138.545 11.4552C138.489 11.3998 138.424 11.3559 138.351 11.3261C138.279 11.2962 138.201 11.281 138.123 11.2812H135.75C135.672 11.281 135.594 11.2962 135.522 11.3261C135.449 11.3559 135.384 11.3998 135.328 11.4552C135.273 11.5105 135.229 11.5763 135.199 11.6487C135.169 11.7211 135.154 11.7987 135.154 11.877V14.25C135.156 14.5766 135.423 14.8438 135.75 14.8438ZM131 0C125.961 0 121.128 2.00178 117.565 5.56497C114.002 9.12816 112 13.9609 112 19C112 24.0391 114.002 28.8718 117.565 32.435C121.128 35.9982 125.961 38 131 38C133.495 38 135.966 37.5086 138.271 36.5537C140.576 35.5989 142.671 34.1993 144.435 32.435C146.199 30.6707 147.599 28.5762 148.554 26.271C149.509 23.9658 150 21.4951 150 19C150 16.5049 149.509 14.0342 148.554 11.729C147.599 9.42383 146.199 7.32928 144.435 5.56497C142.671 3.80066 140.576 2.40113 138.271 1.44629C135.966 0.49145 133.495 0 131 0ZM140.896 26.697C140.896 27.9062 139.906 28.8958 138.697 28.8958H123.303C122.094 28.8958 121.104 27.9062 121.104 26.697V11.303C121.104 10.0938 122.094 9.10417 123.303 9.10417H138.697C139.906 9.10417 140.896 10.0938 140.896 11.303V26.697Z" fill="#5F6380" fill-opacity="0.5"/>
</g>
<g clip-path="url(#clip1_30_1341)">
<path d="M18.9999 0C29.4939 0 38 8.50725 38 19.0001C38 29.4929 29.4939 38 18.9999 38C8.50594 38 0 29.4928 0 19.0001C0 8.50738 8.50607 0 18.9999 0Z" fill="#5F6380" fill-opacity="0.5"/>
<path d="M10.7065 26.1059H14.2643V14.2475H10.7065V26.1059ZM24.5671 13.8368C22.8404 13.8368 21.2955 14.4673 20.1995 15.8591V14.2085H16.6287V26.1061H20.1995V19.6722C20.1995 18.3125 21.4452 16.986 23.0056 16.986C24.5659 16.986 24.9507 18.3125 24.9507 19.6389V26.1049H28.5085V19.3741C28.5084 14.6989 26.2949 13.8368 24.5671 13.8368ZM12.4688 13.0625C13.4521 13.0625 14.2501 12.2644 14.2501 11.2812C14.2501 10.2979 13.4521 9.5 12.4688 9.5C11.4855 9.5 10.6875 10.298 10.6875 11.2813C10.6875 12.2646 11.4855 13.0625 12.4688 13.0625Z" fill="#DADADA"/>
</g>
<defs>
<clipPath id="clip0_30_1341">
<rect width="38" height="38" fill="white" transform="translate(112)"/>
</clipPath>
<clipPath id="clip1_30_1341">
<rect width="38" height="38" fill="white"/>
</clipPath>
</defs>
</svg>
