<svg width="1640" height="64" viewBox="0 0 1640 64" fill="none" xmlns="http://www.w3.org/2000/svg">
<rect width="1640" height="64" rx="16" fill="#d4d4d5" fill-opacity="100%"/>
<path d="M36.346 34.8798C36.5513 34.4223 36.7566 33.9648 36.9619 33.5074C38.088 30.956 39.2199 28.4106 40.346 25.8593C41.6481 22.9209 42.9443 19.9766 44.2463 17.0382C44.4868 16.4927 44.739 15.9531 44.9736 15.4077C45.0322 15.2669 45.1143 15.2141 45.261 15.2141C46.1583 15.2141 47.0616 15.22 47.9589 15.2141C48.1349 15.2141 48.1994 15.3138 48.258 15.4428C49.0146 17.1027 49.7654 18.7625 50.5278 20.4223C51.4663 22.4751 52.4164 24.5279 53.3548 26.5865C54.5572 29.2082 55.7536 31.8358 56.9501 34.4575C56.9501 34.4692 56.956 34.4751 56.9618 34.481C57.0381 34.5631 57.0029 34.7566 57.1554 34.7332C57.2727 34.7156 57.2492 34.5572 57.2786 34.4575C57.824 32.3813 58.3753 30.3109 58.9149 28.2346C59.3724 26.481 59.824 24.7273 60.3577 22.9912C60.827 21.4604 61.2844 19.9297 61.7478 18.3989C62.1407 17.0909 62.5396 15.7889 62.9208 14.4751C62.9795 14.2698 63.0733 14.217 63.2727 14.217C66.6158 14.217 69.9589 14.2229 73.302 14.217C73.5366 14.217 73.5953 14.2874 73.5953 14.522C73.5953 26.217 73.5953 37.9121 73.5953 49.6129C73.5953 49.8417 73.5249 49.8886 73.3138 49.8886C70.9501 49.8827 68.5865 49.8827 66.217 49.8886C65.9765 49.8886 65.9296 49.8065 65.9296 49.5836C65.9355 46.9443 65.9472 44.305 65.9296 41.6716C65.9179 39.6423 65.9707 37.6071 66 35.5777C66.0234 33.9179 66.1055 32.2581 66.1114 30.5983C66.1114 30.4223 66.129 30.2464 66.1407 30.0704C66.1407 30.0176 66.129 29.9648 66.0704 29.959C66.0117 29.959 66 30.0059 65.9824 30.0587C65.4545 31.7009 64.9208 33.3431 64.3929 34.9854C64.0058 36.1701 63.6187 37.3549 63.2316 38.5396C62.8387 39.742 62.4457 40.9502 62.0469 42.1525C61.6774 43.2845 61.3079 44.4106 60.9325 45.5426C60.4985 46.8681 60.0528 48.1877 59.6305 49.5132C59.5425 49.7889 59.4017 49.8769 59.1202 49.871C58.3284 49.8593 57.5366 49.8534 56.7448 49.871C56.4633 49.8769 56.3226 49.783 56.2111 49.5308C55.3372 47.5836 54.4516 45.6423 53.566 43.7009C52.2287 40.7684 50.8856 37.8299 49.5425 34.8974C48.6275 32.8915 47.7185 30.8857 46.8094 28.8798C46.7742 28.8094 46.7566 28.7214 46.6627 28.7156C46.5572 28.7156 46.5689 28.827 46.5396 28.8915C45.2727 31.6657 44.0117 34.4399 42.7448 37.22C41.6539 39.6012 40.563 41.9883 39.4721 44.3695C38.6862 46.088 37.9003 47.8123 37.1261 49.5308C37.0146 49.7713 36.8797 49.8769 36.5924 49.871C35.7595 49.8475 34.9325 49.8593 34.0997 49.871C33.912 49.871 33.824 49.8182 33.7595 49.6364C33.3255 48.305 32.8739 46.9736 32.434 45.6423C31.912 44.0821 31.3959 42.5162 30.8797 40.956C30.2815 39.132 29.6891 37.3079 29.085 35.4839C28.4223 33.478 27.7478 31.4722 27.085 29.4663C26.4399 27.5074 25.8006 25.5426 25.1495 23.5777C24.6041 21.9238 24.041 20.2757 23.4897 18.6217C23.0733 17.3666 22.6569 16.1056 22.2463 14.8446C22.2111 14.739 22.2287 14.61 22.217 14.4986C22.1935 14.2992 22.2698 14.217 22.4751 14.2288C22.8856 14.2405 23.2962 14.2288 23.7067 14.2288C25.7419 14.2288 27.7712 14.2288 29.8064 14.2288C30.041 14.2288 30.1583 14.2757 30.2404 14.5338C30.8446 16.5103 31.4663 18.481 32.088 20.4516C32.5865 22.0294 33.1026 23.6071 33.5718 25.1965C34 26.6452 34.3753 28.1115 34.7742 29.566C35.0792 30.6745 35.39 31.783 35.7009 32.8915C35.8827 33.5543 36.0645 34.2229 36.2463 34.8857C36.2756 34.8857 36.305 34.8974 36.3343 34.8974L36.346 34.8798Z" fill="#5F6380" fill-opacity="0.7"/>
</svg>
