<svg width="38" height="38" viewBox="0 0 38 38" fill="none" xmlns="http://www.w3.org/2000/svg">
<path d="M6.73898 26.2733C4.97092 23.2903 4.35247 19.7646 4.99974 16.3579C5.64701 12.9513 7.51549 9.898 10.2544 7.77135C12.9933 5.64471 16.4143 4.59091 19.8751 4.8078C23.3359 5.02469 26.5985 6.49734 29.0505 8.9493C31.5024 11.4013 32.9751 14.6639 33.192 18.1247C33.4089 21.5855 32.3551 25.0065 30.2284 27.7454C28.1018 30.4843 25.0485 32.3528 21.6419 33C18.2352 33.6473 14.7095 33.0289 11.7265 31.2608V31.2608L6.79835 32.6561C6.59644 32.7152 6.38237 32.7188 6.17856 32.6667C5.97476 32.6146 5.78873 32.5086 5.63997 32.3598C5.49122 32.2111 5.38522 32.025 5.33309 31.8212C5.28096 31.6174 5.28461 31.4033 5.34366 31.2014L6.73898 26.2733Z" stroke="#5F6380" stroke-opacity="0.5" stroke-linecap="round" stroke-linejoin="round"/>
<path d="M22.5774 27.3123C21.0149 27.3163 19.467 27.0114 18.0227 26.4153C16.5784 25.8191 15.2661 24.9435 14.1613 23.8386C13.0564 22.7338 12.1808 21.4215 11.5846 19.9772C10.9885 18.5329 10.6836 16.985 10.6875 15.4225C10.6915 14.3228 11.1311 13.2694 11.9101 12.4932C12.6891 11.7169 13.744 11.2811 14.8438 11.2811V11.2811C15.0252 11.2797 15.2037 11.3271 15.3604 11.4186C15.5172 11.51 15.6464 11.642 15.7344 11.8006L17.4711 14.8288C17.5744 15.0128 17.6274 15.2209 17.6248 15.4319C17.6222 15.643 17.5641 15.8496 17.4563 16.0311L16.061 18.3616C16.7757 19.9515 18.0484 21.2242 19.6383 21.9389L21.9688 20.5436C22.1503 20.4358 22.3569 20.3777 22.568 20.3751C22.779 20.3725 22.9871 20.4255 23.1711 20.5288L26.1993 22.2655C26.3579 22.3535 26.4899 22.4827 26.5813 22.6394C26.6727 22.7962 26.7202 22.9747 26.7188 23.1561C26.7149 24.2546 26.2778 25.3073 25.5024 26.0855C24.727 26.8637 23.6759 27.3045 22.5774 27.3123V27.3123Z" stroke="#5F6380" stroke-opacity="0.5" stroke-linecap="round" stroke-linejoin="round"/>
</svg>
